<svg width="800" height="200" xmlns="http://www.w3.org/2000/svg"><rect x="0.0" y="192.24360324115682" width="8.0" height="7.756396758843173" fill="#0702FF" /><rect x="8.0" y="191.61553434618986" width="8.0" height="8.384465653810137" fill="#0702FF" /><rect x="16.0" y="197.77689458506057" width="8.0" height="2.223105414939427" fill="#0702FF" /><rect x="24.0" y="191.2505705562373" width="8.0" height="8.749429443762702" fill="#0702FF" /><rect x="32.0" y="194.09506792273172" width="8.0" height="5.904932077268288" fill="#0702FF" /><rect x="40.0" y="191.520610610685" width="8.0" height="8.479389389314997" fill="#0702FF" /><rect x="48.0" y="196.03090033682548" width="8.0" height="3.9690996631745223" fill="#0702FF" /><rect x="56.0" y="197.72026544079395" width="8.0" height="2.2797345592060614" fill="#0702FF" /><rect x="64.0" y="196.21721846619587" width="8.0" height="3.7827815338041395" fill="#0702FF" /><rect x="72.0" y="196.35619452027427" width="8.0" height="3.6438054797257147" fill="#0702FF" /><rect x="80.0" y="196.25934105763324" width="8.0" height="3.7406589423667755" fill="#0702FF" /><rect x="88.0" y="197.10526245140514" width="8.0" height="2.89473754859485" fill="#0702FF" /><rect x="96.0" y="197.07369536922985" width="8.0" height="2.926304630770146" fill="#0702FF" /><rect x="104.0" y="198.4654471020431" width="8.0" height="1.534552897956889" fill="#0702FF" /><rect x="112.0" y="199.55201859613007" width="8.0" height="0.44798140386994373" fill="#0702FF" /><rect x="120.0" y="195.2011405355375" width="8.0" height="4.798859464462524" fill="#0702FF" /><rect x="128.0" y="190.75658785601144" width="8.0" height="9.243412143988573" fill="#0702FF" /><rect x="136.0" y="196.35825643687537" width="8.0" height="3.6417435631246406" fill="#0702FF" /><rect x="144.0" y="199.76999315636206" width="8.0" height="0.23000684363793322" fill="#0702FF" /><rect x="152.0" y="193.39892913897455" width="8.0" height="6.601070861025455" fill="#0702FF" /><rect x="160.0" y="192.0071557814879" width="8.0" height="7.9928442185120865" fill="#0702FF" /><rect x="168.0" y="191.78758869270672" width="8.0" height="8.212411307293275" fill="#0702FF" /><rect x="176.0" y="195.10277968371778" width="8.0" height="4.897220316282209" fill="#0702FF" /><rect x="184.0" y="194.53075508873533" width="8.0" height="5.469244911264658" fill="#0702FF" /><rect x="192.0" y="198.34604989574913" width="8.0" height="1.6539501042508644" fill="#0702FF" /><rect x="200.0" y="191.75642985085835" width="8.0" height="8.243570149141652" fill="#0702FF" /><rect x="208.0" y="198.08312289077378" width="8.0" height="1.9168771092262296" fill="#0702FF" /><rect x="216.0" y="194.27408074220696" width="8.0" height="5.725919257793029" fill="#0702FF" /><rect x="224.0" y="192.65791503692338" width="8.0" height="7.342084963076627" fill="#0702FF" /><rect x="232.0" y="192.223736541204" width="8.0" height="7.776263458795982" fill="#0702FF" /><rect x="240.0" y="194.6610636577648" width="8.0" height="5.338936342235195" fill="#0702FF" /><rect x="248.0" y="199.38878099340437" width="8.0" height="0.6112190065956369" fill="#0702FF" /><rect x="256.0" y="193.19692139667146" width="8.0" height="6.803078603328549" fill="#0702FF" /><rect x="264.0" y="190.68378976388487" width="8.0" height="9.316210236115133" fill="#0702FF" /><rect x="272.0" y="197.4233328637453" width="8.0" height="2.5766671362547178" fill="#0702FF" /><rect x="280.0" y="195.51490423593046" width="8.0" height="4.485095764069544" fill="#0702FF" /><rect x="288.0" y="191.52529220099242" width="8.0" height="8.474707799007565" fill="#0702FF" /><rect x="296.0" y="199.482720672614" width="8.0" height="0.5172793273860045" fill="#0702FF" /><rect x="304.0" y="196.37166717751325" width="8.0" height="3.628332822486746" fill="#0702FF" /><rect x="312.0" y="199.846645810537" width="8.0" height="0.15335418946299195" fill="#0702FF" /><rect x="320.0" y="196.8509588727232" width="8.0" height="3.1490411272768095" fill="#0702FF" /><rect x="328.0" y="196.44930433977197" width="8.0" height="3.550695660228037" fill="#0702FF" /><rect x="336.0" y="191.42853084262708" width="8.0" height="8.571469157372912" fill="#0702FF" /><rect x="344.0" y="194.82004577643508" width="8.0" height="5.1799542235649225" fill="#0702FF" /><rect x="352.0" y="192.8049139439974" width="8.0" height="7.195086056002585" fill="#0702FF" /><rect x="360.0" y="197.06649275983983" width="8.0" height="2.9335072401601603" fill="#0702FF" /><rect x="368.0" y="192.16339044077483" width="8.0" height="7.836609559225173" fill="#0702FF" /><rect x="376.0" y="198.3079355378935" width="8.0" height="1.6920644621065006" fill="#0702FF" /><rect x="384.0" y="199.56828171884771" width="8.0" height="0.4317182811522913" fill="#0702FF" /><rect x="392.0" y="191.78070118810263" width="8.0" height="8.219298811897367" fill="#0702FF" /><rect x="400.0" y="198.64492687306034" width="8.0" height="1.3550731269396699" fill="#0702FF" /><rect x="408.0" y="194.9754839887098" width="8.0" height="5.024516011290199" fill="#0702FF" /><rect x="416.0" y="197.1684291341095" width="8.0" height="2.8315708658904994" fill="#0702FF" /><rect x="424.0" y="191.31570584071073" width="8.0" height="8.684294159289257" fill="#0702FF" /><rect x="432.0" y="197.395903921428" width="8.0" height="2.6040960785720038" fill="#0702FF" /><rect x="440.0" y="195.66965026442801" width="8.0" height="4.3303497355719855" fill="#0702FF" /><rect x="448.0" y="196.28068755765966" width="8.0" height="3.7193124423403465" fill="#0702FF" /><rect x="456.0" y="192.62125951851928" width="8.0" height="7.378740481480732" fill="#0702FF" /><rect x="464.0" y="194.3627789250081" width="8.0" height="5.637221074991915" fill="#0702FF" /><rect x="472.0" y="191.84075191224255" width="8.0" height="8.15924808775746" fill="#0702FF" /><rect x="480.0" y="192.6973416485126" width="8.0" height="7.302658351487401" fill="#0702FF" /><rect x="488.0" y="196.63754616112328" width="8.0" height="3.3624538388767133" fill="#0702FF" /><rect x="496.0" y="192.52169915254134" width="8.0" height="7.478300847458663" fill="#0702FF" /><rect x="504.0" y="193.31474199359343" width="8.0" height="6.685258006406582" fill="#0702FF" /><rect x="512.0" y="190.01069912795063" width="8.0" height="9.989300872049359" fill="#0702FF" /><rect x="520.0" y="190.82488913629717" width="8.0" height="9.175110863702818" fill="#0702FF" /><rect x="528.0" y="194.31385293718552" width="8.0" height="5.686147062814497" fill="#0702FF" /><rect x="536.0" y="195.15651006167903" width="8.0" height="4.843489938320982" fill="#0702FF" /><rect x="544.0" y="192.66000693505381" width="8.0" height="7.339993064946191" fill="#0702FF" /><rect x="552.0" y="199.532674753721" width="8.0" height="0.4673252462790001" fill="#0702FF" /><rect x="560.0" y="199.9799595379991" width="8.0" height="0.020040462000906478" fill="#0702FF" /><rect x="568.0" y="196.26135084097356" width="8.0" height="3.7386491590264295" fill="#0702FF" /><rect x="576.0" y="199.16159516588837" width="8.0" height="0.8384048341116214" fill="#0702FF" /><rect x="584.0" y="194.8586243539105" width="8.0" height="5.141375646089501" fill="#0702FF" /><rect x="592.0" y="192.59963107403703" width="8.0" height="7.400368925962956" fill="#0702FF" /><rect x="600.0" y="198.73781677948242" width="8.0" height="1.2621832205175831" fill="#0702FF" /><rect x="608.0" y="198.40782892661792" width="8.0" height="1.5921710733820729" fill="#0702FF" /><rect x="616.0" y="198.15700724644137" width="8.0" height="1.8429927535586457" fill="#0702FF" /><rect x="624.0" y="197.19218917705615" width="8.0" height="2.807810822943842" fill="#0702FF" /><rect x="632.0" y="190.65358025636607" width="8.0" height="9.346419743633918" fill="#0702FF" /><rect x="640.0" y="95.41805677032991" width="8.0" height="104.58194322967009" fill="#0702FF" /><rect x="648.0" y="42.99469166585769" width="8.0" height="157.0053083341423" fill="#0702FF" /><rect x="656.0" y="66.24925175968647" width="8.0" height="133.75074824031353" fill="#0702FF" /><rect x="664.0" y="14.198558178744548" width="8.0" height="185.80144182125545" fill="#0702FF" /><rect x="672.0" y="62.063575746143414" width="8.0" height="137.9364242538566" fill="#0702FF" /><rect x="680.0" y="77.51371526903048" width="8.0" height="122.48628473096952" fill="#0702FF" /><rect x="688.0" y="14.208512342834325" width="8.0" height="185.79148765716567" fill="#0702FF" /><rect x="696.0" y="41.75498398868868" width="8.0" height="158.24501601131132" fill="#0702FF" /><rect x="704.0" y="93.71882375961111" width="8.0" height="106.28117624038889" fill="#0702FF" /><rect x="712.0" y="17.954126239190344" width="8.0" height="182.04587376080966" fill="#0702FF" /><rect x="720.0" y="88.79660872798405" width="8.0" height="111.20339127201595" fill="#0702FF" /><rect x="728.0" y="39.403799199272584" width="8.0" height="160.59620080072742" fill="#0702FF" /><rect x="736.0" y="76.31172232741615" width="8.0" height="123.68827767258385" fill="#0702FF" /><rect x="744.0" y="36.34491096370289" width="8.0" height="163.6550890362971" fill="#0702FF" /><rect x="752.0" y="8.18719922570071" width="8.0" height="191.8128007742993" fill="#0702FF" /><rect x="760.0" y="5.8748719273620225" width="8.0" height="194.12512807263798" fill="#0702FF" /><rect x="768.0" y="69.36087706138125" width="8.0" height="130.63912293861875" fill="#0702FF" /><rect x="776.0" y="27.427920301327674" width="8.0" height="172.57207969867233" fill="#0702FF" /><rect x="784.0" y="81.66335345722958" width="8.0" height="118.33664654277042" fill="#0702FF" /><rect x="792.0" y="29.96600629957169" width="8.0" height="170.0339937004283" fill="#0702FF" /></svg>