<svg width="800" height="200" xmlns="http://www.w3.org/2000/svg"><rect x="0.0" y="200.0" width="8.0" height="0.0" fill="#0702FF" /><rect x="8.0" y="199.99991948358186" width="8.0" height="8.051641813502849e-05" fill="#0702FF" /><rect x="16.0" y="199.99935586865493" width="8.0" height="0.0006441313450802279" fill="#0702FF" /><rect x="24.0" y="199.99782605671035" width="8.0" height="0.0021739432896457694" fill="#0702FF" /><rect x="32.0" y="199.99484694923936" width="8.0" height="0.005153050760641823" fill="#0702FF" /><rect x="40.0" y="199.98993544773313" width="8.0" height="0.010064552266878557" fill="#0702FF" /><rect x="48.0" y="199.98260845368284" width="8.0" height="0.017391546317166155" fill="#0702FF" /><rect x="56.0" y="199.97238286857967" width="8.0" height="0.02761713142031476" fill="#0702FF" /><rect x="64.0" y="199.95877559391488" width="8.0" height="0.041224406085134585" fill="#0702FF" /><rect x="72.0" y="199.94130353117956" width="8.0" height="0.058696468820435756" fill="#0702FF" /><rect x="80.0" y="199.91948358186497" width="8.0" height="0.08051641813502845" fill="#0702FF" /><rect x="88.0" y="199.89283264746228" width="8.0" height="0.10716735253772287" fill="#0702FF" /><rect x="96.0" y="199.86086762946266" width="8.0" height="0.13913237053732924" fill="#0702FF" /><rect x="104.0" y="199.82310542935735" width="8.0" height="0.1768945706426576" fill="#0702FF" /><rect x="112.0" y="199.7790629486375" width="8.0" height="0.22093705136251807" fill="#0702FF" /><rect x="120.0" y="199.72825708879427" width="8.0" height="0.27174291120572114" fill="#0702FF" /><rect x="128.0" y="199.67020475131892" width="8.0" height="0.3297952486810767" fill="#0702FF" /><rect x="136.0" y="199.6044228377026" width="8.0" height="0.395577162297395" fill="#0702FF" /><rect x="144.0" y="199.5304282494365" width="8.0" height="0.46957175056348605" fill="#0702FF" /><rect x="152.0" y="199.44773788801183" width="8.0" height="0.5522621119881601" fill="#0702FF" /><rect x="160.0" y="199.35586865491976" width="8.0" height="0.6441313450802276" fill="#0702FF" /><rect x="168.0" y="199.2543374516515" width="8.0" height="0.7456625483484987" fill="#0702FF" /><rect x="176.0" y="199.14266117969822" width="8.0" height="0.857338820301783" fill="#0702FF" /><rect x="184.0" y="199.0203567405511" width="8.0" height="0.9796432594488914" fill="#0702FF" /><rect x="192.0" y="198.88694103570137" width="8.0" height="1.113058964298634" fill="#0702FF" /><rect x="200.0" y="198.74193096664018" width="8.0" height="1.2580690333598197" fill="#0702FF" /><rect x="208.0" y="198.58484343485873" width="8.0" height="1.4151565651412608" fill="#0702FF" /><rect x="216.0" y="198.41519534184823" width="8.0" height="1.5848046581517654" fill="#0702FF" /><rect x="224.0" y="198.23250358909985" width="8.0" height="1.7674964109001445" fill="#0702FF" /><rect x="232.0" y="198.03628507810478" width="8.0" height="1.9637149218952092" fill="#0702FF" /><rect x="240.0" y="197.82605671035424" width="8.0" height="2.173943289645769" fill="#0702FF" /><rect x="248.0" y="197.60133538733936" width="8.0" height="2.398664612660634" fill="#0702FF" /><rect x="256.0" y="197.3616380105514" width="8.0" height="2.6383619894486134" fill="#0702FF" /><rect x="264.0" y="197.1064814814815" width="8.0" height="2.8935185185185173" fill="#0702FF" /><rect x="272.0" y="196.83538270162083" width="8.0" height="3.16461729837916" fill="#0702FF" /><rect x="280.0" y="196.54785857246065" width="8.0" height="3.452141427539345" fill="#0702FF" /><rect x="288.0" y="196.24342599549212" width="8.0" height="3.7565740045078884" fill="#0702FF" /><rect x="296.0" y="195.9216018722064" width="8.0" height="4.078398127793598" fill="#0702FF" /><rect x="304.0" y="195.58190310409472" width="8.0" height="4.418096895905281" fill="#0702FF" /><rect x="312.0" y="195.22384659264824" width="8.0" height="4.776153407351753" fill="#0702FF" /><rect x="320.0" y="194.84694923935817" width="8.0" height="5.153050760641821" fill="#0702FF" /><rect x="328.0" y="194.4507279457157" width="8.0" height="5.549272054284296" fill="#0702FF" /><rect x="336.0" y="194.034699613212" width="8.0" height="5.965300386787989" fill="#0702FF" /><rect x="344.0" y="193.5983811433383" width="8.0" height="6.4016188566617105" fill="#0702FF" /><rect x="352.0" y="193.14128943758573" width="8.0" height="6.858710562414264" fill="#0702FF" /><rect x="360.0" y="192.66294139744554" width="8.0" height="7.3370586025544675" fill="#0702FF" /><rect x="368.0" y="192.16285392440886" width="8.0" height="7.837146075591131" fill="#0702FF" /><rect x="376.0" y="191.64054391996694" width="8.0" height="8.359456080033063" fill="#0702FF" /><rect x="384.0" y="191.09552828561092" width="8.0" height="8.904471714389071" fill="#0702FF" /><rect x="392.0" y="190.52732392283204" width="8.0" height="9.472676077167968" fill="#0702FF" /><rect x="400.0" y="189.93544773312144" width="8.0" height="10.064552266878557" fill="#0702FF" /><rect x="408.0" y="189.31941661797035" width="8.0" height="10.680583382029663" fill="#0702FF" /><rect x="416.0" y="188.67874747886992" width="8.0" height="11.321252521130086" fill="#0702FF" /><rect x="424.0" y="188.01295721731137" width="8.0" height="11.987042782688631" fill="#0702FF" /><rect x="432.0" y="187.32156273478589" width="8.0" height="12.678437265214123" fill="#0702FF" /><rect x="440.0" y="186.60408093278463" width="8.0" height="13.395919067215365" fill="#0702FF" /><rect x="448.0" y="185.86002871279885" width="8.0" height="14.139971287201156" fill="#0702FF" /><rect x="456.0" y="185.08892297631968" width="8.0" height="14.911077023680331" fill="#0702FF" /><rect x="464.0" y="184.29028062483832" width="8.0" height="15.709719375161674" fill="#0702FF" /><rect x="472.0" y="183.463618559846" width="8.0" height="16.536381440154006" fill="#0702FF" /><rect x="480.0" y="182.60845368283384" width="8.0" height="17.391546317166153" fill="#0702FF" /><rect x="488.0" y="181.7243028952931" width="8.0" height="18.275697104706897" fill="#0702FF" /><rect x="496.0" y="180.81068309871492" width="8.0" height="19.18931690128507" fill="#0702FF" /><rect x="504.0" y="179.86711119459054" width="8.0" height="20.132888805409465" fill="#0702FF" /><rect x="512.0" y="178.8931040844111" width="8.0" height="21.106895915588908" fill="#0702FF" /><rect x="520.0" y="177.8881786696678" width="8.0" height="22.111821330332194" fill="#0702FF" /><rect x="528.0" y="176.85185185185185" width="8.0" height="23.148148148148138" fill="#0702FF" /><rect x="536.0" y="175.78364053245443" width="8.0" height="24.216359467545566" fill="#0702FF" /><rect x="544.0" y="174.68306161296672" width="8.0" height="25.31693838703328" fill="#0702FF" /><rect x="552.0" y="173.54963199487992" width="8.0" height="26.450368005120072" fill="#0702FF" /><rect x="560.0" y="172.38286857968524" width="8.0" height="27.61713142031476" fill="#0702FF" /><rect x="568.0" y="171.18228826887383" width="8.0" height="28.817711731126174" fill="#0702FF" /><rect x="576.0" y="169.94740796393688" width="8.0" height="30.052592036063107" fill="#0702FF" /><rect x="584.0" y="168.67774456636565" width="8.0" height="31.32225543363436" fill="#0702FF" /><rect x="592.0" y="167.37281497765122" width="8.0" height="32.62718502234878" fill="#0702FF" /><rect x="600.0" y="166.03213609928486" width="8.0" height="33.96786390071513" fill="#0702FF" /><rect x="608.0" y="164.65522483275777" width="8.0" height="35.34477516724225" fill="#0702FF" /><rect x="616.0" y="163.24159807956104" width="8.0" height="36.758401920438956" fill="#0702FF" /><rect x="624.0" y="161.79077274118598" width="8.0" height="38.209227258814025" fill="#0702FF" /><rect x="632.0" y="160.30226571912368" width="8.0" height="39.69773428087631" fill="#0702FF" /><rect x="640.0" y="62.202780297687895" width="8.0" height="137.7972197023121" fill="#0702FF" /><rect x="648.0" y="71.35802240166183" width="8.0" height="128.64197759833817" fill="#0702FF" /><rect x="656.0" y="67.74700863918935" width="8.0" height="132.25299136081065" fill="#0702FF" /><rect x="664.0" y="58.27643469783064" width="8.0" height="141.72356530216936" fill="#0702FF" /><rect x="672.0" y="12.03409115006599" width="8.0" height="187.965908849934" fill="#0702FF" /><rect x="680.0" y="52.42865097043665" width="8.0" height="147.57134902956335" fill="#0702FF" /><rect x="688.0" y="52.03395900488553" width="8.0" height="147.96604099511447" fill="#0702FF" /><rect x="696.0" y="2.253725735790738" width="8.0" height="197.74627426420926" fill="#0702FF" /><rect x="704.0" y="35.067425689296584" width="8.0" height="164.93257431070342" fill="#0702FF" /><rect x="712.0" y="24.295285705088162" width="8.0" height="175.70471429491184" fill="#0702FF" /><rect x="720.0" y="56.430597750187445" width="8.0" height="143.56940224981255" fill="#0702FF" /><rect x="728.0" y="15.075531522027376" width="8.0" height="184.92446847797262" fill="#0702FF" /><rect x="736.0" y="63.472531486722346" width="8.0" height="136.52746851327765" fill="#0702FF" /><rect x="744.0" y="56.08610123505545" width="8.0" height="143.91389876494455" fill="#0702FF" /><rect x="752.0" y="75.68595837637471" width="8.0" height="124.31404162362529" fill="#0702FF" /><rect x="760.0" y="79.91173409259333" width="8.0" height="120.08826590740667" fill="#0702FF" /><rect x="768.0" y="59.17569534130834" width="8.0" height="140.82430465869166" fill="#0702FF" /><rect x="776.0" y="6.673319016681546" width="8.0" height="193.32668098331845" fill="#0702FF" /><rect x="784.0" y="53.68803008436686" width="8.0" height="146.31196991563314" fill="#0702FF" /><rect x="792.0" y="6.053816617675466" width="8.0" height="193.94618338232453" fill="#0702FF" /></svg>