<svg width="800" height="200" xmlns="http://www.w3.org/2000/svg"><rect x="0.0" y="100" width="8.0" height="100" fill="#0702FF" /><rect x="8.0" y="138" width="8.0" height="62" fill="#0702FF" /><rect x="16.0" y="121" width="8.0" height="79" fill="#0702FF" /><rect x="24.0" y="81" width="8.0" height="119" fill="#0702FF" /><rect x="32.0" y="69" width="8.0" height="131" fill="#0702FF" /><rect x="40.0" y="100" width="8.0" height="100" fill="#0702FF" /><rect x="48.0" y="105" width="8.0" height="95" fill="#0702FF" /><rect x="56.0" y="93" width="8.0" height="107" fill="#0702FF" /><rect x="64.0" y="112" width="8.0" height="88" fill="#0702FF" /><rect x="72.0" y="117" width="8.0" height="83" fill="#0702FF" /><rect x="80.0" y="100" width="8.0" height="100" fill="#0702FF" /><rect x="88.0" y="105" width="8.0" height="95" fill="#0702FF" /><rect x="96.0" y="110" width="8.0" height="90" fill="#0702FF" /><rect x="104.0" y="88" width="8.0" height="112" fill="#0702FF" /><rect x="112.0" y="80" width="8.0" height="120" fill="#0702FF" /><rect x="120.0" y="100" width="8.0" height="100" fill="#0702FF" /><rect x="128.0" y="100" width="8.0" height="100" fill="#0702FF" /><rect x="136.0" y="92" width="8.0" height="108" fill="#0702FF" /><rect x="144.0" y="110" width="8.0" height="90" fill="#0702FF" /><rect x="152.0" y="109" width="8.0" height="91" fill="#0702FF" /><rect x="160.0" y="100" width="8.0" height="100" fill="#0702FF" /><rect x="168.0" y="105" width="8.0" height="95" fill="#0702FF" /><rect x="176.0" y="104" width="8.0" height="96" fill="#0702FF" /><rect x="184.0" y="97" width="8.0" height="103" fill="#0702FF" /><rect x="192.0" y="95" width="8.0" height="105" fill="#0702FF" /><rect x="200.0" y="100" width="8.0" height="100" fill="#0702FF" /><rect x="208.0" y="102" width="8.0" height="98" fill="#0702FF" /><rect x="216.0" y="100" width="8.0" height="100" fill="#0702FF" /><rect x="224.0" y="99" width="8.0" height="101" fill="#0702FF" /><rect x="232.0" y="88" width="8.0" height="112" fill="#0702FF" /><rect x="240.0" y="100" width="8.0" height="100" fill="#0702FF" /><rect x="248.0" y="99" width="8.0" height="101" fill="#0702FF" /><rect x="256.0" y="88" width="8.0" height="112" fill="#0702FF" /><rect x="264.0" y="120" width="8.0" height="80" fill="#0702FF" /><rect x="272.0" y="141" width="8.0" height="59" fill="#0702FF" /><rect x="280.0" y="100" width="8.0" height="100" fill="#0702FF" /><rect x="288.0" y="70" width="8.0" height="130" fill="#0702FF" /><rect x="296.0" y="91" width="8.0" height="109" fill="#0702FF" /><rect x="304.0" y="106" width="8.0" height="94" fill="#0702FF" /><rect x="312.0" y="107" width="8.0" height="93" fill="#0702FF" /><rect x="320.0" y="100" width="8.0" height="100" fill="#0702FF" /><rect x="328.0" y="87" width="8.0" height="113" fill="#0702FF" /><rect x="336.0" y="88" width="8.0" height="112" fill="#0702FF" /><rect x="344.0" y="114" width="8.0" height="86" fill="#0702FF" /><rect x="352.0" y="122" width="8.0" height="78" fill="#0702FF" /><rect x="360.0" y="100" width="8.0" height="100" fill="#0702FF" /><rect x="368.0" y="106" width="8.0" height="94" fill="#0702FF" /><rect x="376.0" y="114" width="8.0" height="86" fill="#0702FF" /><rect x="384.0" y="82" width="8.0" height="118" fill="#0702FF" /><rect x="392.0" y="67" width="8.0" height="133" fill="#0702FF" /><rect x="400.0" y="100" width="8.0" height="100" fill="#0702FF" /><rect x="408.0" y="136" width="8.0" height="64" fill="#0702FF" /><rect x="416.0" y="121" width="8.0" height="79" fill="#0702FF" /><rect x="424.0" y="87" width="8.0" height="113" fill="#0702FF" /><rect x="432.0" y="106" width="8.0" height="94" fill="#0702FF" /><rect x="440.0" y="100" width="8.0" height="100" fill="#0702FF" /><rect x="448.0" y="85" width="8.0" height="115" fill="#0702FF" /><rect x="456.0" y="105" width="8.0" height="95" fill="#0702FF" /><rect x="464.0" y="91" width="8.0" height="109" fill="#0702FF" /><rect x="472.0" y="86" width="8.0" height="114" fill="#0702FF" /><rect x="480.0" y="100" width="8.0" height="100" fill="#0702FF" /><rect x="488.0" y="117" width="8.0" height="83" fill="#0702FF" /><rect x="496.0" y="111" width="8.0" height="89" fill="#0702FF" /><rect x="504.0" y="93" width="8.0" height="107" fill="#0702FF" /><rect x="512.0" y="99" width="8.0" height="101" fill="#0702FF" /><rect x="520.0" y="100" width="8.0" height="100" fill="#0702FF" /><rect x="528.0" y="78" width="8.0" height="122" fill="#0702FF" /><rect x="536.0" y="85" width="8.0" height="115" fill="#0702FF" /><rect x="544.0" y="116" width="8.0" height="84" fill="#0702FF" /><rect x="552.0" y="118" width="8.0" height="82" fill="#0702FF" /><rect x="560.0" y="100" width="8.0" height="100" fill="#0702FF" /><rect x="568.0" y="99" width="8.0" height="101" fill="#0702FF" /><rect x="576.0" y="102" width="8.0" height="98" fill="#0702FF" /><rect x="584.0" y="95" width="8.0" height="105" fill="#0702FF" /><rect x="592.0" y="72" width="8.0" height="128" fill="#0702FF" /><rect x="600.0" y="100" width="8.0" height="100" fill="#0702FF" /><rect x="608.0" y="111" width="8.0" height="89" fill="#0702FF" /><rect x="616.0" y="89" width="8.0" height="111" fill="#0702FF" /><rect x="624.0" y="117" width="8.0" height="83" fill="#0702FF" /><rect x="632.0" y="120" width="8.0" height="80" fill="#0702FF" /><rect x="640.0" y="100" width="8.0" height="100" fill="#0702FF" /><rect x="648.0" y="98" width="8.0" height="102" fill="#0702FF" /><rect x="656.0" y="101" width="8.0" height="99" fill="#0702FF" /><rect x="664.0" y="100" width="8.0" height="100" fill="#0702FF" /><rect x="672.0" y="102" width="8.0" height="98" fill="#0702FF" /><rect x="680.0" y="100" width="8.0" height="100" fill="#0702FF" /><rect x="688.0" y="91" width="8.0" height="109" fill="#0702FF" /><rect x="696.0" y="94" width="8.0" height="106" fill="#0702FF" /><rect x="704.0" y="109" width="8.0" height="91" fill="#0702FF" /><rect x="712.0" y="117" width="8.0" height="83" fill="#0702FF" /><rect x="720.0" y="100" width="8.0" height="100" fill="#0702FF" /><rect x="728.0" y="96" width="8.0" height="104" fill="#0702FF" /><rect x="736.0" y="104" width="8.0" height="96" fill="#0702FF" /><rect x="744.0" y="93" width="8.0" height="107" fill="#0702FF" /><rect x="752.0" y="79" width="8.0" height="121" fill="#0702FF" /><rect x="760.0" y="100" width="8.0" height="100" fill="#0702FF" /><rect x="768.0" y="115" width="8.0" height="85" fill="#0702FF" /><rect x="776.0" y="102" width="8.0" height="98" fill="#0702FF" /><rect x="784.0" y="101" width="8.0" height="99" fill="#0702FF" /><rect x="792.0" y="96" width="8.0" height="104" fill="#0702FF" /></svg>