<svg width="1000" height="220" xmlns="http://www.w3.org/2000/svg"><rect x="0.0" y="110" width="4.0" height="90" fill="#4682B4" /><text x="2.5" y="215" text-anchor="middle" font-size="10">1</text><rect x="5.0" y="144" width="4.0" height="56" fill="#4682B4" /><text x="7.5" y="215" text-anchor="middle" font-size="10">2</text><rect x="10.0" y="129" width="4.0" height="71" fill="#4682B4" /><text x="12.5" y="215" text-anchor="middle" font-size="10">3</text><rect x="15.0" y="93" width="4.0" height="107" fill="#4682B4" /><text x="17.5" y="215" text-anchor="middle" font-size="10">4</text><rect x="20.0" y="82" width="4.0" height="118" fill="#4682B4" /><text x="22.5" y="215" text-anchor="middle" font-size="10">5</text><rect x="25.0" y="110" width="4.0" height="90" fill="#4682B4" /><text x="27.5" y="215" text-anchor="middle" font-size="10">6</text><rect x="30.0" y="114" width="4.0" height="86" fill="#4682B4" /><text x="32.5" y="215" text-anchor="middle" font-size="10">7</text><rect x="35.0" y="104" width="4.0" height="96" fill="#4682B4" /><text x="37.5" y="215" text-anchor="middle" font-size="10">8</text><rect x="40.0" y="120" width="4.0" height="80" fill="#4682B4" /><text x="42.5" y="215" text-anchor="middle" font-size="10">9</text><rect x="45.0" y="126" width="4.0" height="74" fill="#4682B4" /><text x="47.5" y="215" text-anchor="middle" font-size="10">10</text><rect x="50.0" y="110" width="4.0" height="90" fill="#4682B4" /><text x="52.5" y="215" text-anchor="middle" font-size="10">11</text><rect x="55.0" y="115" width="4.0" height="85" fill="#4682B4" /><text x="57.5" y="215" text-anchor="middle" font-size="10">12</text><rect x="60.0" y="119" width="4.0" height="81" fill="#4682B4" /><text x="62.5" y="215" text-anchor="middle" font-size="10">13</text><rect x="65.0" y="99" width="4.0" height="101" fill="#4682B4" /><text x="67.5" y="215" text-anchor="middle" font-size="10">14</text><rect x="70.0" y="92" width="4.0" height="108" fill="#4682B4" /><text x="72.5" y="215" text-anchor="middle" font-size="10">15</text><rect x="75.0" y="110" width="4.0" height="90" fill="#4682B4" /><text x="77.5" y="215" text-anchor="middle" font-size="10">16</text><rect x="80.0" y="110" width="4.0" height="90" fill="#4682B4" /><text x="82.5" y="215" text-anchor="middle" font-size="10">17</text><rect x="85.0" y="103" width="4.0" height="97" fill="#4682B4" /><text x="87.5" y="215" text-anchor="middle" font-size="10">18</text><rect x="90.0" y="119" width="4.0" height="81" fill="#4682B4" /><text x="92.5" y="215" text-anchor="middle" font-size="10">19</text><rect x="95.0" y="118" width="4.0" height="82" fill="#4682B4" /><text x="97.5" y="215" text-anchor="middle" font-size="10">20</text><rect x="100.0" y="110" width="4.0" height="90" fill="#4682B4" /><text x="102.5" y="215" text-anchor="middle" font-size="10">21</text><rect x="105.0" y="115" width="4.0" height="85" fill="#4682B4" /><text x="107.5" y="215" text-anchor="middle" font-size="10">22</text><rect x="110.0" y="113" width="4.0" height="87" fill="#4682B4" /><text x="112.5" y="215" text-anchor="middle" font-size="10">23</text><rect x="115.0" y="108" width="4.0" height="92" fill="#4682B4" /><text x="117.5" y="215" text-anchor="middle" font-size="10">24</text><rect x="120.0" y="106" width="4.0" height="94" fill="#4682B4" /><text x="122.5" y="215" text-anchor="middle" font-size="10">25</text><rect x="125.0" y="110" width="4.0" height="90" fill="#4682B4" /><text x="127.5" y="215" text-anchor="middle" font-size="10">26</text><rect x="130.0" y="112" width="4.0" height="88" fill="#4682B4" /><text x="132.5" y="215" text-anchor="middle" font-size="10">27</text><rect x="135.0" y="110" width="4.0" height="90" fill="#4682B4" /><text x="137.5" y="215" text-anchor="middle" font-size="10">28</text><rect x="140.0" y="109" width="4.0" height="91" fill="#4682B4" /><text x="142.5" y="215" text-anchor="middle" font-size="10">29</text><rect x="145.0" y="100" width="4.0" height="100" fill="#4682B4" /><text x="147.5" y="215" text-anchor="middle" font-size="10">30</text><rect x="150.0" y="110" width="4.0" height="90" fill="#4682B4" /><text x="152.5" y="215" text-anchor="middle" font-size="10">31</text><rect x="155.0" y="109" width="4.0" height="91" fill="#4682B4" /><text x="157.5" y="215" text-anchor="middle" font-size="10">32</text><rect x="160.0" y="99" width="4.0" height="101" fill="#4682B4" /><text x="162.5" y="215" text-anchor="middle" font-size="10">33</text><rect x="165.0" y="128" width="4.0" height="72" fill="#4682B4" /><text x="167.5" y="215" text-anchor="middle" font-size="10">34</text><rect x="170.0" y="147" width="4.0" height="53" fill="#4682B4" /><text x="172.5" y="215" text-anchor="middle" font-size="10">35</text><rect x="175.0" y="110" width="4.0" height="90" fill="#4682B4" /><text x="177.5" y="215" text-anchor="middle" font-size="10">36</text><rect x="180.0" y="83" width="4.0" height="117" fill="#4682B4" /><text x="182.5" y="215" text-anchor="middle" font-size="10">37</text><rect x="185.0" y="102" width="4.0" height="98" fill="#4682B4" /><text x="187.5" y="215" text-anchor="middle" font-size="10">38</text><rect x="190.0" y="115" width="4.0" height="85" fill="#4682B4" /><text x="192.5" y="215" text-anchor="middle" font-size="10">39</text><rect x="195.0" y="116" width="4.0" height="84" fill="#4682B4" /><text x="197.5" y="215" text-anchor="middle" font-size="10">40</text><rect x="200.0" y="110" width="4.0" height="90" fill="#4682B4" /><text x="202.5" y="215" text-anchor="middle" font-size="10">41</text><rect x="205.0" y="98" width="4.0" height="102" fill="#4682B4" /><text x="207.5" y="215" text-anchor="middle" font-size="10">42</text><rect x="210.0" y="100" width="4.0" height="100" fill="#4682B4" /><text x="212.5" y="215" text-anchor="middle" font-size="10">43</text><rect x="215.0" y="123" width="4.0" height="77" fill="#4682B4" /><text x="217.5" y="215" text-anchor="middle" font-size="10">44</text><rect x="220.0" y="130" width="4.0" height="70" fill="#4682B4" /><text x="222.5" y="215" text-anchor="middle" font-size="10">45</text><rect x="225.0" y="110" width="4.0" height="90" fill="#4682B4" /><text x="227.5" y="215" text-anchor="middle" font-size="10">46</text><rect x="230.0" y="116" width="4.0" height="84" fill="#4682B4" /><text x="232.5" y="215" text-anchor="middle" font-size="10">47</text><rect x="235.0" y="123" width="4.0" height="77" fill="#4682B4" /><text x="237.5" y="215" text-anchor="middle" font-size="10">48</text><rect x="240.0" y="94" width="4.0" height="106" fill="#4682B4" /><text x="242.5" y="215" text-anchor="middle" font-size="10">49</text><rect x="245.0" y="80" width="4.0" height="120" fill="#4682B4" /><text x="247.5" y="215" text-anchor="middle" font-size="10">50</text><rect x="250.0" y="110" width="4.0" height="90" fill="#4682B4" /><text x="252.5" y="215" text-anchor="middle" font-size="10">51</text><rect x="255.0" y="143" width="4.0" height="57" fill="#4682B4" /><text x="257.5" y="215" text-anchor="middle" font-size="10">52</text><rect x="260.0" y="129" width="4.0" height="71" fill="#4682B4" /><text x="262.5" y="215" text-anchor="middle" font-size="10">53</text><rect x="265.0" y="99" width="4.0" height="101" fill="#4682B4" /><text x="267.5" y="215" text-anchor="middle" font-size="10">54</text><rect x="270.0" y="116" width="4.0" height="84" fill="#4682B4" /><text x="272.5" y="215" text-anchor="middle" font-size="10">55</text><rect x="275.0" y="110" width="4.0" height="90" fill="#4682B4" /><text x="277.5" y="215" text-anchor="middle" font-size="10">56</text><rect x="280.0" y="97" width="4.0" height="103" fill="#4682B4" /><text x="282.5" y="215" text-anchor="middle" font-size="10">57</text><rect x="285.0" y="114" width="4.0" height="86" fill="#4682B4" /><text x="287.5" y="215" text-anchor="middle" font-size="10">58</text><rect x="290.0" y="102" width="4.0" height="98" fill="#4682B4" /><text x="292.5" y="215" text-anchor="middle" font-size="10">59</text><rect x="295.0" y="97" width="4.0" height="103" fill="#4682B4" /><text x="297.5" y="215" text-anchor="middle" font-size="10">60</text><rect x="300.0" y="110" width="4.0" height="90" fill="#4682B4" /><text x="302.5" y="215" text-anchor="middle" font-size="10">61</text><rect x="305.0" y="125" width="4.0" height="75" fill="#4682B4" /><text x="307.5" y="215" text-anchor="middle" font-size="10">62</text><rect x="310.0" y="120" width="4.0" height="80" fill="#4682B4" /><text x="312.5" y="215" text-anchor="middle" font-size="10">63</text><rect x="315.0" y="103" width="4.0" height="97" fill="#4682B4" /><text x="317.5" y="215" text-anchor="middle" font-size="10">64</text><rect x="320.0" y="109" width="4.0" height="91" fill="#4682B4" /><text x="322.5" y="215" text-anchor="middle" font-size="10">65</text><rect x="325.0" y="110" width="4.0" height="90" fill="#4682B4" /><text x="327.5" y="215" text-anchor="middle" font-size="10">66</text><rect x="330.0" y="90" width="4.0" height="110" fill="#4682B4" /><text x="332.5" y="215" text-anchor="middle" font-size="10">67</text><rect x="335.0" y="96" width="4.0" height="104" fill="#4682B4" /><text x="337.5" y="215" text-anchor="middle" font-size="10">68</text><rect x="340.0" y="124" width="4.0" height="76" fill="#4682B4" /><text x="342.5" y="215" text-anchor="middle" font-size="10">69</text><rect x="345.0" y="126" width="4.0" height="74" fill="#4682B4" /><text x="347.5" y="215" text-anchor="middle" font-size="10">70</text><rect x="350.0" y="110" width="4.0" height="90" fill="#4682B4" /><text x="352.5" y="215" text-anchor="middle" font-size="10">71</text><rect x="355.0" y="109" width="4.0" height="91" fill="#4682B4" /><text x="357.5" y="215" text-anchor="middle" font-size="10">72</text><rect x="360.0" y="111" width="4.0" height="89" fill="#4682B4" /><text x="362.5" y="215" text-anchor="middle" font-size="10">73</text><rect x="365.0" y="105" width="4.0" height="95" fill="#4682B4" /><text x="367.5" y="215" text-anchor="middle" font-size="10">74</text><rect x="370.0" y="85" width="4.0" height="115" fill="#4682B4" /><text x="372.5" y="215" text-anchor="middle" font-size="10">75</text><rect x="375.0" y="110" width="4.0" height="90" fill="#4682B4" /><text x="377.5" y="215" text-anchor="middle" font-size="10">76</text><rect x="380.0" y="120" width="4.0" height="80" fill="#4682B4" /><text x="382.5" y="215" text-anchor="middle" font-size="10">77</text><rect x="385.0" y="100" width="4.0" height="100" fill="#4682B4" /><text x="387.5" y="215" text-anchor="middle" font-size="10">78</text><rect x="390.0" y="125" width="4.0" height="75" fill="#4682B4" /><text x="392.5" y="215" text-anchor="middle" font-size="10">79</text><rect x="395.0" y="128" width="4.0" height="72" fill="#4682B4" /><text x="397.5" y="215" text-anchor="middle" font-size="10">80</text><rect x="400.0" y="110" width="4.0" height="90" fill="#4682B4" /><text x="402.5" y="215" text-anchor="middle" font-size="10">81</text><rect x="405.0" y="108" width="4.0" height="92" fill="#4682B4" /><text x="407.5" y="215" text-anchor="middle" font-size="10">82</text><rect x="410.0" y="111" width="4.0" height="89" fill="#4682B4" /><text x="412.5" y="215" text-anchor="middle" font-size="10">83</text><rect x="415.0" y="110" width="4.0" height="90" fill="#4682B4" /><text x="417.5" y="215" text-anchor="middle" font-size="10">84</text><rect x="420.0" y="112" width="4.0" height="88" fill="#4682B4" /><text x="422.5" y="215" text-anchor="middle" font-size="10">85</text><rect x="425.0" y="110" width="4.0" height="90" fill="#4682B4" /><text x="427.5" y="215" text-anchor="middle" font-size="10">86</text><rect x="430.0" y="102" width="4.0" height="98" fill="#4682B4" /><text x="432.5" y="215" text-anchor="middle" font-size="10">87</text><rect x="435.0" y="104" width="4.0" height="96" fill="#4682B4" /><text x="437.5" y="215" text-anchor="middle" font-size="10">88</text><rect x="440.0" y="118" width="4.0" height="82" fill="#4682B4" /><text x="442.5" y="215" text-anchor="middle" font-size="10">89</text><rect x="445.0" y="125" width="4.0" height="75" fill="#4682B4" /><text x="447.5" y="215" text-anchor="middle" font-size="10">90</text><rect x="450.0" y="110" width="4.0" height="90" fill="#4682B4" /><text x="452.5" y="215" text-anchor="middle" font-size="10">91</text><rect x="455.0" y="106" width="4.0" height="94" fill="#4682B4" /><text x="457.5" y="215" text-anchor="middle" font-size="10">92</text><rect x="460.0" y="114" width="4.0" height="86" fill="#4682B4" /><text x="462.5" y="215" text-anchor="middle" font-size="10">93</text><rect x="465.0" y="103" width="4.0" height="97" fill="#4682B4" /><text x="467.5" y="215" text-anchor="middle" font-size="10">94</text><rect x="470.0" y="91" width="4.0" height="109" fill="#4682B4" /><text x="472.5" y="215" text-anchor="middle" font-size="10">95</text><rect x="475.0" y="110" width="4.0" height="90" fill="#4682B4" /><text x="477.5" y="215" text-anchor="middle" font-size="10">96</text><rect x="480.0" y="123" width="4.0" height="77" fill="#4682B4" /><text x="482.5" y="215" text-anchor="middle" font-size="10">97</text><rect x="485.0" y="112" width="4.0" height="88" fill="#4682B4" /><text x="487.5" y="215" text-anchor="middle" font-size="10">98</text><rect x="490.0" y="111" width="4.0" height="89" fill="#4682B4" /><text x="492.5" y="215" text-anchor="middle" font-size="10">99</text><rect x="495.0" y="106" width="4.0" height="94" fill="#4682B4" /><text x="497.5" y="215" text-anchor="middle" font-size="10">100</text><rect x="500.0" y="110" width="4.0" height="90" fill="#4682B4" /><text x="502.5" y="215" text-anchor="middle" font-size="10">101</text><rect x="505.0" y="121" width="4.0" height="79" fill="#4682B4" /><text x="507.5" y="215" text-anchor="middle" font-size="10">102</text><rect x="510.0" y="116" width="4.0" height="84" fill="#4682B4" /><text x="512.5" y="215" text-anchor="middle" font-size="10">103</text><rect x="515.0" y="102" width="4.0" height="98" fill="#4682B4" /><text x="517.5" y="215" text-anchor="middle" font-size="10">104</text><rect x="520.0" y="83" width="4.0" height="117" fill="#4682B4" /><text x="522.5" y="215" text-anchor="middle" font-size="10">105</text><rect x="525.0" y="110" width="4.0" height="90" fill="#4682B4" /><text x="527.5" y="215" text-anchor="middle" font-size="10">106</text><rect x="530.0" y="130" width="4.0" height="70" fill="#4682B4" /><text x="532.5" y="215" text-anchor="middle" font-size="10">107</text><rect x="535.0" y="111" width="4.0" height="89" fill="#4682B4" /><text x="537.5" y="215" text-anchor="middle" font-size="10">108</text><rect x="540.0" y="112" width="4.0" height="88" fill="#4682B4" /><text x="542.5" y="215" text-anchor="middle" font-size="10">109</text><rect x="545.0" y="102" width="4.0" height="98" fill="#4682B4" /><text x="547.5" y="215" text-anchor="middle" font-size="10">110</text><rect x="550.0" y="110" width="4.0" height="90" fill="#4682B4" /><text x="552.5" y="215" text-anchor="middle" font-size="10">111</text><rect x="555.0" y="135" width="4.0" height="65" fill="#4682B4" /><text x="557.5" y="215" text-anchor="middle" font-size="10">112</text><rect x="560.0" y="126" width="4.0" height="74" fill="#4682B4" /><text x="562.5" y="215" text-anchor="middle" font-size="10">113</text><rect x="565.0" y="96" width="4.0" height="104" fill="#4682B4" /><text x="567.5" y="215" text-anchor="middle" font-size="10">114</text><rect x="570.0" y="90" width="4.0" height="110" fill="#4682B4" /><text x="572.5" y="215" text-anchor="middle" font-size="10">115</text><rect x="575.0" y="110" width="4.0" height="90" fill="#4682B4" /><text x="577.5" y="215" text-anchor="middle" font-size="10">116</text><rect x="580.0" y="119" width="4.0" height="81" fill="#4682B4" /><text x="582.5" y="215" text-anchor="middle" font-size="10">117</text><rect x="585.0" y="113" width="4.0" height="87" fill="#4682B4" /><text x="587.5" y="215" text-anchor="middle" font-size="10">118</text><rect x="590.0" y="105" width="4.0" height="95" fill="#4682B4" /><text x="592.5" y="215" text-anchor="middle" font-size="10">119</text><rect x="595.0" y="88" width="4.0" height="112" fill="#4682B4" /><text x="597.5" y="215" text-anchor="middle" font-size="10">120</text><rect x="600.0" y="110" width="4.0" height="90" fill="#4682B4" /><text x="602.5" y="215" text-anchor="middle" font-size="10">121</text><rect x="605.0" y="132" width="4.0" height="68" fill="#4682B4" /><text x="607.5" y="215" text-anchor="middle" font-size="10">122</text><rect x="610.0" y="114" width="4.0" height="86" fill="#4682B4" /><text x="612.5" y="215" text-anchor="middle" font-size="10">123</text><rect x="615.0" y="108" width="4.0" height="92" fill="#4682B4" /><text x="617.5" y="215" text-anchor="middle" font-size="10">124</text><rect x="620.0" y="98" width="4.0" height="102" fill="#4682B4" /><text x="622.5" y="215" text-anchor="middle" font-size="10">125</text><rect x="625.0" y="110" width="4.0" height="90" fill="#4682B4" /><text x="627.5" y="215" text-anchor="middle" font-size="10">126</text><rect x="630.0" y="140" width="4.0" height="60" fill="#4682B4" /><text x="632.5" y="215" text-anchor="middle" font-size="10">127</text><rect x="635.0" y="129" width="4.0" height="71" fill="#4682B4" /><text x="637.5" y="215" text-anchor="middle" font-size="10">128</text><rect x="640.0" y="95" width="4.0" height="105" fill="#4682B4" /><text x="642.5" y="215" text-anchor="middle" font-size="10">129</text><rect x="645.0" y="100" width="4.0" height="100" fill="#4682B4" /><text x="647.5" y="215" text-anchor="middle" font-size="10">130</text><rect x="650.0" y="110" width="4.0" height="90" fill="#4682B4" /><text x="652.5" y="215" text-anchor="middle" font-size="10">131</text><rect x="655.0" y="119" width="4.0" height="81" fill="#4682B4" /><text x="657.5" y="215" text-anchor="middle" font-size="10">132</text><rect x="660.0" y="124" width="4.0" height="76" fill="#4682B4" /><text x="662.5" y="215" text-anchor="middle" font-size="10">133</text><rect x="665.0" y="93" width="4.0" height="107" fill="#4682B4" /><text x="667.5" y="215" text-anchor="middle" font-size="10">134</text><rect x="670.0" y="76" width="4.0" height="124" fill="#4682B4" /><text x="672.5" y="215" text-anchor="middle" font-size="10">135</text><rect x="675.0" y="110" width="4.0" height="90" fill="#4682B4" /><text x="677.5" y="215" text-anchor="middle" font-size="10">136</text><rect x="680.0" y="147" width="4.0" height="53" fill="#4682B4" /><text x="682.5" y="215" text-anchor="middle" font-size="10">137</text><rect x="685.0" y="130" width="4.0" height="70" fill="#4682B4" /><text x="687.5" y="215" text-anchor="middle" font-size="10">138</text><rect x="690.0" y="91" width="4.0" height="109" fill="#4682B4" /><text x="692.5" y="215" text-anchor="middle" font-size="10">139</text><rect x="695.0" y="72" width="4.0" height="128" fill="#4682B4" /><text x="697.5" y="215" text-anchor="middle" font-size="10">140</text><rect x="700.0" y="110" width="4.0" height="90" fill="#4682B4" /><text x="702.5" y="215" text-anchor="middle" font-size="10">141</text><rect x="705.0" y="136" width="4.0" height="64" fill="#4682B4" /><text x="707.5" y="215" text-anchor="middle" font-size="10">142</text><rect x="710.0" y="117" width="4.0" height="83" fill="#4682B4" /><text x="712.5" y="215" text-anchor="middle" font-size="10">143</text><rect x="715.0" y="105" width="4.0" height="95" fill="#4682B4" /><text x="717.5" y="215" text-anchor="middle" font-size="10">144</text><rect x="720.0" y="94" width="4.0" height="106" fill="#4682B4" /><text x="722.5" y="215" text-anchor="middle" font-size="10">145</text><rect x="725.0" y="110" width="4.0" height="90" fill="#4682B4" /><text x="727.5" y="215" text-anchor="middle" font-size="10">146</text><rect x="730.0" y="117" width="4.0" height="83" fill="#4682B4" /><text x="732.5" y="215" text-anchor="middle" font-size="10">147</text><rect x="735.0" y="106" width="4.0" height="94" fill="#4682B4" /><text x="737.5" y="215" text-anchor="middle" font-size="10">148</text><rect x="740.0" y="117" width="4.0" height="83" fill="#4682B4" /><text x="742.5" y="215" text-anchor="middle" font-size="10">149</text><rect x="745.0" y="117" width="4.0" height="83" fill="#4682B4" /><text x="747.5" y="215" text-anchor="middle" font-size="10">150</text><rect x="750.0" y="110" width="4.0" height="90" fill="#4682B4" /><text x="752.5" y="215" text-anchor="middle" font-size="10">151</text><rect x="755.0" y="125" width="4.0" height="75" fill="#4682B4" /><text x="757.5" y="215" text-anchor="middle" font-size="10">152</text><rect x="760.0" y="125" width="4.0" height="75" fill="#4682B4" /><text x="762.5" y="215" text-anchor="middle" font-size="10">153</text><rect x="765.0" y="96" width="4.0" height="104" fill="#4682B4" /><text x="767.5" y="215" text-anchor="middle" font-size="10">154</text><rect x="770.0" y="93" width="4.0" height="107" fill="#4682B4" /><text x="772.5" y="215" text-anchor="middle" font-size="10">155</text><rect x="775.0" y="110" width="4.0" height="90" fill="#4682B4" /><text x="777.5" y="215" text-anchor="middle" font-size="10">156</text><rect x="780.0" y="112" width="4.0" height="88" fill="#4682B4" /><text x="782.5" y="215" text-anchor="middle" font-size="10">157</text><rect x="785.0" y="110" width="4.0" height="90" fill="#4682B4" /><text x="787.5" y="215" text-anchor="middle" font-size="10">158</text><rect x="790.0" y="111" width="4.0" height="89" fill="#4682B4" /><text x="792.5" y="215" text-anchor="middle" font-size="10">159</text><rect x="795.0" y="107" width="4.0" height="93" fill="#4682B4" /><text x="797.5" y="215" text-anchor="middle" font-size="10">160</text><rect x="800.0" y="110" width="4.0" height="90" fill="#4682B4" /><text x="802.5" y="215" text-anchor="middle" font-size="10">161</text><rect x="805.0" y="100" width="4.0" height="100" fill="#4682B4" /><text x="807.5" y="215" text-anchor="middle" font-size="10">162</text><rect x="810.0" y="97" width="4.0" height="103" fill="#4682B4" /><text x="812.5" y="215" text-anchor="middle" font-size="10">163</text><rect x="815.0" y="122" width="4.0" height="78" fill="#4682B4" /><text x="817.5" y="215" text-anchor="middle" font-size="10">164</text><rect x="820.0" y="104" width="4.0" height="96" fill="#4682B4" /><text x="822.5" y="215" text-anchor="middle" font-size="10">165</text><rect x="825.0" y="110" width="4.0" height="90" fill="#4682B4" /><text x="827.5" y="215" text-anchor="middle" font-size="10">166</text><rect x="830.0" y="140" width="4.0" height="60" fill="#4682B4" /><text x="832.5" y="215" text-anchor="middle" font-size="10">167</text><rect x="835.0" y="122" width="4.0" height="78" fill="#4682B4" /><text x="837.5" y="215" text-anchor="middle" font-size="10">168</text><rect x="840.0" y="104" width="4.0" height="96" fill="#4682B4" /><text x="842.5" y="215" text-anchor="middle" font-size="10">169</text><rect x="845.0" y="111" width="4.0" height="89" fill="#4682B4" /><text x="847.5" y="215" text-anchor="middle" font-size="10">170</text><rect x="850.0" y="110" width="4.0" height="90" fill="#4682B4" /><text x="852.5" y="215" text-anchor="middle" font-size="10">171</text><rect x="855.0" y="115" width="4.0" height="85" fill="#4682B4" /><text x="857.5" y="215" text-anchor="middle" font-size="10">172</text><rect x="860.0" y="123" width="4.0" height="77" fill="#4682B4" /><text x="862.5" y="215" text-anchor="middle" font-size="10">173</text><rect x="865.0" y="95" width="4.0" height="105" fill="#4682B4" /><text x="867.5" y="215" text-anchor="middle" font-size="10">174</text><rect x="870.0" y="88" width="4.0" height="112" fill="#4682B4" /><text x="872.5" y="215" text-anchor="middle" font-size="10">175</text><rect x="875.0" y="110" width="4.0" height="90" fill="#4682B4" /><text x="877.5" y="215" text-anchor="middle" font-size="10">176</text><rect x="880.0" y="105" width="4.0" height="95" fill="#4682B4" /><text x="882.5" y="215" text-anchor="middle" font-size="10">177</text><rect x="885.0" y="98" width="4.0" height="102" fill="#4682B4" /><text x="887.5" y="215" text-anchor="middle" font-size="10">178</text><rect x="890.0" y="123" width="4.0" height="77" fill="#4682B4" /><text x="892.5" y="215" text-anchor="middle" font-size="10">179</text><rect x="895.0" y="114" width="4.0" height="86" fill="#4682B4" /><text x="897.5" y="215" text-anchor="middle" font-size="10">180</text><rect x="900.0" y="110" width="4.0" height="90" fill="#4682B4" /><text x="902.5" y="215" text-anchor="middle" font-size="10">181</text><rect x="905.0" y="134" width="4.0" height="66" fill="#4682B4" /><text x="907.5" y="215" text-anchor="middle" font-size="10">182</text><rect x="910.0" y="125" width="4.0" height="75" fill="#4682B4" /><text x="912.5" y="215" text-anchor="middle" font-size="10">183</text><rect x="915.0" y="98" width="4.0" height="102" fill="#4682B4" /><text x="917.5" y="215" text-anchor="middle" font-size="10">184</text><rect x="920.0" y="96" width="4.0" height="104" fill="#4682B4" /><text x="922.5" y="215" text-anchor="middle" font-size="10">185</text><rect x="925.0" y="110" width="4.0" height="90" fill="#4682B4" /><text x="927.5" y="215" text-anchor="middle" font-size="10">186</text><rect x="930.0" y="108" width="4.0" height="92" fill="#4682B4" /><text x="932.5" y="215" text-anchor="middle" font-size="10">187</text><rect x="935.0" y="107" width="4.0" height="93" fill="#4682B4" /><text x="937.5" y="215" text-anchor="middle" font-size="10">188</text><rect x="940.0" y="117" width="4.0" height="83" fill="#4682B4" /><text x="942.5" y="215" text-anchor="middle" font-size="10">189</text><rect x="945.0" y="130" width="4.0" height="70" fill="#4682B4" /><text x="947.5" y="215" text-anchor="middle" font-size="10">190</text><rect x="950.0" y="110" width="4.0" height="90" fill="#4682B4" /><text x="952.5" y="215" text-anchor="middle" font-size="10">191</text><rect x="955.0" y="107" width="4.0" height="93" fill="#4682B4" /><text x="957.5" y="215" text-anchor="middle" font-size="10">192</text><rect x="960.0" y="119" width="4.0" height="81" fill="#4682B4" /><text x="962.5" y="215" text-anchor="middle" font-size="10">193</text><rect x="965.0" y="97" width="4.0" height="103" fill="#4682B4" /><text x="967.5" y="215" text-anchor="middle" font-size="10">194</text><rect x="970.0" y="82" width="4.0" height="118" fill="#4682B4" /><text x="972.5" y="215" text-anchor="middle" font-size="10">195</text><rect x="975.0" y="110" width="4.0" height="90" fill="#4682B4" /><text x="977.5" y="215" text-anchor="middle" font-size="10">196</text><rect x="980.0" y="120" width="4.0" height="80" fill="#4682B4" /><text x="982.5" y="215" text-anchor="middle" font-size="10">197</text><rect x="985.0" y="106" width="4.0" height="94" fill="#4682B4" /><text x="987.5" y="215" text-anchor="middle" font-size="10">198</text><rect x="990.0" y="118" width="4.0" height="82" fill="#4682B4" /><text x="992.5" y="215" text-anchor="middle" font-size="10">199</text><rect x="995.0" y="119" width="4.0" height="81" fill="#4682B4" /><text x="997.5" y="215" text-anchor="middle" font-size="10">200</text><line x1="0" y1="200" x2="1000" y2="200" stroke="black" stroke-width="1" /><line x1="0" y1="0" x2="0" y2="200" stroke="black" stroke-width="1" /></svg>