<svg width="1260" height="720" xmlns="http://www.w3.org/2000/svg"><rect x="462.125" y="12.125" width="5.75" height="5.75" fill="#0702FF" /><rect x="492.125" y="12.125" width="5.75" height="5.75" fill="#0702FF" /><rect x="522.125" y="12.125" width="5.75" height="5.75" fill="#0702FF" /><rect x="552.125" y="12.125" width="5.75" height="5.75" fill="#0702FF" /><rect x="582.125" y="12.125" width="5.75" height="5.75" fill="#0702FF" /><rect x="612.125" y="12.125" width="5.75" height="5.75" fill="#0702FF" /><rect x="642.125" y="12.125" width="5.75" height="5.75" fill="#0702FF" /><rect x="672.125" y="12.125" width="5.75" height="5.75" fill="#0702FF" /><rect x="702.125" y="12.125" width="5.75" height="5.75" fill="#0702FF" /><rect x="762.125" y="12.125" width="5.75" height="5.75" fill="#0702FF" /><rect x="852.125" y="12.125" width="5.75" height="5.75" fill="#0702FF" /><rect x="882.125" y="12.125" width="5.75" height="5.75" fill="#0702FF" /><rect x="462.125" y="42.125" width="5.75" height="5.75" fill="#0702FF" /><rect x="492.125" y="42.125" width="5.75" height="5.75" fill="#0702FF" /><rect x="522.125" y="42.125" width="5.75" height="5.75" fill="#0702FF" /><rect x="552.125" y="42.125" width="5.75" height="5.75" fill="#0702FF" /><rect x="582.125" y="42.125" width="5.75" height="5.75" fill="#0702FF" /><rect x="612.125" y="42.125" width="5.75" height="5.75" fill="#0702FF" /><rect x="642.125" y="42.125" width="5.75" height="5.75" fill="#0702FF" /><rect x="672.125" y="42.125" width="5.75" height="5.75" fill="#0702FF" /><rect x="702.125" y="42.125" width="5.75" height="5.75" fill="#0702FF" /><rect x="732.125" y="42.125" width="5.75" height="5.75" fill="#0702FF" /><rect x="762.125" y="42.125" width="5.75" height="5.75" fill="#0702FF" /><rect x="792.125" y="42.125" width="5.75" height="5.75" fill="#0702FF" /><rect x="822.125" y="42.125" width="5.75" height="5.75" fill="#0702FF" /><rect x="342.125" y="72.125" width="5.75" height="5.75" fill="#0702FF" /><rect x="372.125" y="72.125" width="5.75" height="5.75" fill="#0702FF" /><rect x="402.125" y="72.125" width="5.75" height="5.75" fill="#0702FF" /><rect x="432.125" y="72.125" width="5.75" height="5.75" fill="#0702FF" /><rect x="462.125" y="72.125" width="5.75" height="5.75" fill="#0702FF" /><rect x="522.125" y="72.125" width="5.75" height="5.75" fill="#0702FF" /><rect x="552.125" y="72.125" width="5.75" height="5.75" fill="#0702FF" /><rect x="702.125" y="72.125" width="5.75" height="5.75" fill="#0702FF" /><rect x="728.75" y="68.75" width="12.5" height="12.5" fill="#0702FF" /><rect x="762.125" y="72.125" width="5.75" height="5.75" fill="#0702FF" /><rect x="792.125" y="72.125" width="5.75" height="5.75" fill="#0702FF" /><rect x="822.125" y="72.125" width="5.75" height="5.75" fill="#0702FF" /><rect x="912.125" y="72.125" width="5.75" height="5.75" fill="#0702FF" /><rect x="372.125" y="102.125" width="5.75" height="5.75" fill="#0702FF" /><rect x="402.125" y="102.125" width="5.75" height="5.75" fill="#0702FF" /><rect x="522.125" y="102.125" width="5.75" height="5.75" fill="#0702FF" /><rect x="548.75" y="98.75" width="12.5" height="12.5" fill="#0702FF" /><rect x="582.125" y="102.125" width="5.75" height="5.75" fill="#0702FF" /><rect x="612.125" y="102.125" width="5.75" height="5.75" fill="#0702FF" /><rect x="642.125" y="102.125" width="5.75" height="5.75" fill="#0702FF" /><rect x="672.125" y="102.125" width="5.75" height="5.75" fill="#0702FF" /><rect x="702.125" y="102.125" width="5.75" height="5.75" fill="#0702FF" /><rect x="732.125" y="102.125" width="5.75" height="5.75" fill="#0702FF" /><rect x="822.125" y="102.125" width="5.75" height="5.75" fill="#0702FF" /><rect x="852.125" y="102.125" width="5.75" height="5.75" fill="#0702FF" /><rect x="882.125" y="102.125" width="5.75" height="5.75" fill="#0702FF" /><rect x="912.125" y="102.125" width="5.75" height="5.75" fill="#0702FF" /><rect x="942.125" y="102.125" width="5.75" height="5.75" fill="#0702FF" /><rect x="972.125" y="102.125" width="5.75" height="5.75" fill="#0702FF" /><rect x="1002.125" y="102.125" width="5.75" height="5.75" fill="#0702FF" /><rect x="282.125" y="132.125" width="5.75" height="5.75" fill="#0702FF" /><rect x="312.125" y="132.125" width="5.75" height="5.75" fill="#0702FF" /><rect x="342.125" y="132.125" width="5.75" height="5.75" fill="#0702FF" /><rect x="372.125" y="132.125" width="5.75" height="5.75" fill="#0702FF" /><rect x="402.125" y="132.125" width="5.75" height="5.75" fill="#0702FF" /><rect x="432.125" y="132.125" width="5.75" height="5.75" fill="#0702FF" /><rect x="462.125" y="132.125" width="5.75" height="5.75" fill="#0702FF" /><rect x="492.125" y="132.125" width="5.75" height="5.75" fill="#0702FF" /><rect x="518.75" y="128.75" width="12.5" height="12.5" fill="#0702FF" /><rect x="548.75" y="128.75" width="12.5" height="12.5" fill="#0702FF" /><rect x="582.125" y="132.125" width="5.75" height="5.75" fill="#0702FF" /><rect x="612.125" y="132.125" width="5.75" height="5.75" fill="#0702FF" /><rect x="642.125" y="132.125" width="5.75" height="5.75" fill="#0702FF" /><rect x="668.75" y="128.75" width="12.5" height="12.5" fill="#0702FF" /><rect x="702.125" y="132.125" width="5.75" height="5.75" fill="#0702FF" /><rect x="732.125" y="132.125" width="5.75" height="5.75" fill="#0702FF" /><rect x="762.125" y="132.125" width="5.75" height="5.75" fill="#0702FF" /><rect x="792.125" y="132.125" width="5.75" height="5.75" fill="#0702FF" /><rect x="822.125" y="132.125" width="5.75" height="5.75" fill="#0702FF" /><rect x="852.125" y="132.125" width="5.75" height="5.75" fill="#0702FF" /><rect x="882.125" y="132.125" width="5.75" height="5.75" fill="#0702FF" /><rect x="342.125" y="162.125" width="5.75" height="5.75" fill="#0702FF" /><rect x="372.125" y="162.125" width="5.75" height="5.75" fill="#0702FF" /><rect x="402.125" y="162.125" width="5.75" height="5.75" fill="#0702FF" /><rect x="432.125" y="162.125" width="5.75" height="5.75" fill="#0702FF" /><rect x="462.125" y="162.125" width="5.75" height="5.75" fill="#0702FF" /><rect x="492.125" y="162.125" width="5.75" height="5.75" fill="#0702FF" /><rect x="522.125" y="162.125" width="5.75" height="5.75" fill="#0702FF" /><rect x="552.125" y="162.125" width="5.75" height="5.75" fill="#0702FF" /><rect x="582.125" y="162.125" width="5.75" height="5.75" fill="#0702FF" /><rect x="608.75" y="158.75" width="12.5" height="12.5" fill="#0702FF" /><rect x="642.125" y="162.125" width="5.75" height="5.75" fill="#0702FF" /><rect x="668.75" y="158.75" width="12.5" height="12.5" fill="#0702FF" /><rect x="702.125" y="162.125" width="5.75" height="5.75" fill="#0702FF" /><rect x="732.125" y="162.125" width="5.75" height="5.75" fill="#0702FF" /><rect x="762.125" y="162.125" width="5.75" height="5.75" fill="#0702FF" /><rect x="792.125" y="162.125" width="5.75" height="5.75" fill="#0702FF" /><rect x="822.125" y="162.125" width="5.75" height="5.75" fill="#0702FF" /><rect x="852.125" y="162.125" width="5.75" height="5.75" fill="#0702FF" /><rect x="882.125" y="162.125" width="5.75" height="5.75" fill="#0702FF" /><rect x="912.125" y="162.125" width="5.75" height="5.75" fill="#0702FF" /><rect x="942.125" y="162.125" width="5.75" height="5.75" fill="#0702FF" /><rect x="972.125" y="162.125" width="5.75" height="5.75" fill="#0702FF" /><rect x="1062.125" y="162.125" width="5.75" height="5.75" fill="#0702FF" /><rect x="222.125" y="192.125" width="5.75" height="5.75" fill="#0702FF" /><rect x="312.125" y="192.125" width="5.75" height="5.75" fill="#0702FF" /><rect x="342.125" y="192.125" width="5.75" height="5.75" fill="#0702FF" /><rect x="372.125" y="192.125" width="5.75" height="5.75" fill="#0702FF" /><rect x="402.125" y="192.125" width="5.75" height="5.75" fill="#0702FF" /><rect x="432.125" y="192.125" width="5.75" height="5.75" fill="#0702FF" /><rect x="462.125" y="192.125" width="5.75" height="5.75" fill="#0702FF" /><rect x="488.75" y="188.75" width="12.5" height="12.5" fill="#0702FF" /><rect x="522.125" y="192.125" width="5.75" height="5.75" fill="#0702FF" /><rect x="582.125" y="192.125" width="5.75" height="5.75" fill="#0702FF" /><rect x="612.125" y="192.125" width="5.75" height="5.75" fill="#0702FF" /><rect x="642.125" y="192.125" width="5.75" height="5.75" fill="#0702FF" /><rect x="668.75" y="188.75" width="12.5" height="12.5" fill="#0702FF" /><rect x="702.125" y="192.125" width="5.75" height="5.75" fill="#0702FF" /><rect x="732.125" y="192.125" width="5.75" height="5.75" fill="#0702FF" /><rect x="762.125" y="192.125" width="5.75" height="5.75" fill="#0702FF" /><rect x="792.125" y="192.125" width="5.75" height="5.75" fill="#0702FF" /><rect x="822.125" y="192.125" width="5.75" height="5.75" fill="#0702FF" /><rect x="852.125" y="192.125" width="5.75" height="5.75" fill="#0702FF" /><rect x="882.125" y="192.125" width="5.75" height="5.75" fill="#0702FF" /><rect x="912.125" y="192.125" width="5.75" height="5.75" fill="#0702FF" /><rect x="972.125" y="192.125" width="5.75" height="5.75" fill="#0702FF" /><rect x="1002.125" y="192.125" width="5.75" height="5.75" fill="#0702FF" /><rect x="252.125" y="222.125" width="5.75" height="5.75" fill="#0702FF" /><rect x="282.125" y="222.125" width="5.75" height="5.75" fill="#0702FF" /><rect x="312.125" y="222.125" width="5.75" height="5.75" fill="#0702FF" /><rect x="342.125" y="222.125" width="5.75" height="5.75" fill="#0702FF" /><rect x="372.125" y="222.125" width="5.75" height="5.75" fill="#0702FF" /><rect x="402.125" y="222.125" width="5.75" height="5.75" fill="#0702FF" /><rect x="432.125" y="222.125" width="5.75" height="5.75" fill="#0702FF" /><rect x="462.125" y="222.125" width="5.75" height="5.75" fill="#0702FF" /><rect x="488.75" y="218.75" width="12.5" height="12.5" fill="#0702FF" /><rect x="522.125" y="222.125" width="5.75" height="5.75" fill="#0702FF" /><rect x="552.125" y="222.125" width="5.75" height="5.75" fill="#0702FF" /><rect x="578.75" y="218.75" width="12.5" height="12.5" fill="#0702FF" /><rect x="608.75" y="218.75" width="12.5" height="12.5" fill="#0702FF" /><rect x="638.75" y="218.75" width="12.5" height="12.5" fill="#0702FF" /><rect x="668.75" y="218.75" width="12.5" height="12.5" fill="#0702FF" /><rect x="698.75" y="218.75" width="12.5" height="12.5" fill="#0702FF" /><rect x="732.125" y="222.125" width="5.75" height="5.75" fill="#0702FF" /><rect x="758.75" y="218.75" width="12.5" height="12.5" fill="#0702FF" /><rect x="788.75" y="218.75" width="12.5" height="12.5" fill="#0702FF" /><rect x="822.125" y="222.125" width="5.75" height="5.75" fill="#0702FF" /><rect x="852.125" y="222.125" width="5.75" height="5.75" fill="#0702FF" /><rect x="882.125" y="222.125" width="5.75" height="5.75" fill="#0702FF" /><rect x="912.125" y="222.125" width="5.75" height="5.75" fill="#0702FF" /><rect x="942.125" y="222.125" width="5.75" height="5.75" fill="#0702FF" /><rect x="972.125" y="222.125" width="5.75" height="5.75" fill="#0702FF" /><rect x="1002.125" y="222.125" width="5.75" height="5.75" fill="#0702FF" /><rect x="252.125" y="252.125" width="5.75" height="5.75" fill="#0702FF" /><rect x="312.125" y="252.125" width="5.75" height="5.75" fill="#0702FF" /><rect x="402.125" y="252.125" width="5.75" height="5.75" fill="#0702FF" /><rect x="432.125" y="252.125" width="5.75" height="5.75" fill="#0702FF" /><rect x="462.125" y="252.125" width="5.75" height="5.75" fill="#0702FF" /><rect x="492.125" y="252.125" width="5.75" height="5.75" fill="#0702FF" /><rect x="522.125" y="252.125" width="5.75" height="5.75" fill="#0702FF" /><rect x="552.125" y="252.125" width="5.75" height="5.75" fill="#0702FF" /><rect x="578.75" y="248.75" width="12.5" height="12.5" fill="#0702FF" /><rect x="608.75" y="248.75" width="12.5" height="12.5" fill="#0702FF" /><rect x="638.75" y="248.75" width="12.5" height="12.5" fill="#0702FF" /><rect x="668.75" y="248.75" width="12.5" height="12.5" fill="#0702FF" /><rect x="702.125" y="252.125" width="5.75" height="5.75" fill="#0702FF" /><rect x="732.125" y="252.125" width="5.75" height="5.75" fill="#0702FF" /><rect x="762.125" y="252.125" width="5.75" height="5.75" fill="#0702FF" /><rect x="792.125" y="252.125" width="5.75" height="5.75" fill="#0702FF" /><rect x="822.125" y="252.125" width="5.75" height="5.75" fill="#0702FF" /><rect x="852.125" y="252.125" width="5.75" height="5.75" fill="#0702FF" /><rect x="882.125" y="252.125" width="5.75" height="5.75" fill="#0702FF" /><rect x="912.125" y="252.125" width="5.75" height="5.75" fill="#0702FF" /><rect x="942.125" y="252.125" width="5.75" height="5.75" fill="#0702FF" /><rect x="972.125" y="252.125" width="5.75" height="5.75" fill="#0702FF" /><rect x="192.125" y="282.125" width="5.75" height="5.75" fill="#0702FF" /><rect x="222.125" y="282.125" width="5.75" height="5.75" fill="#0702FF" /><rect x="252.125" y="282.125" width="5.75" height="5.75" fill="#0702FF" /><rect x="282.125" y="282.125" width="5.75" height="5.75" fill="#0702FF" /><rect x="312.125" y="282.125" width="5.75" height="5.75" fill="#0702FF" /><rect x="342.125" y="282.125" width="5.75" height="5.75" fill="#0702FF" /><rect x="372.125" y="282.125" width="5.75" height="5.75" fill="#0702FF" /><rect x="402.125" y="282.125" width="5.75" height="5.75" fill="#0702FF" /><rect x="428.75" y="278.75" width="12.5" height="12.5" fill="#0702FF" /><rect x="458.75" y="278.75" width="12.5" height="12.5" fill="#0702FF" /><rect x="488.75" y="278.75" width="12.5" height="12.5" fill="#0702FF" /><rect x="518.75" y="278.75" width="12.5" height="12.5" fill="#0702FF" /><rect x="548.75" y="278.75" width="12.5" height="12.5" fill="#0702FF" /><rect x="578.75" y="278.75" width="12.5" height="12.5" fill="#0702FF" /><rect x="612.125" y="282.125" width="5.75" height="5.75" fill="#0702FF" /><rect x="638.75" y="278.75" width="12.5" height="12.5" fill="#0702FF" /><rect x="668.75" y="278.75" width="12.5" height="12.5" fill="#0702FF" /><rect x="702.125" y="282.125" width="5.75" height="5.75" fill="#0702FF" /><rect x="732.125" y="282.125" width="5.75" height="5.75" fill="#0702FF" /><rect x="758.75" y="278.75" width="12.5" height="12.5" fill="#0702FF" /><rect x="788.75" y="278.75" width="12.5" height="12.5" fill="#0702FF" /><rect x="822.125" y="282.125" width="5.75" height="5.75" fill="#0702FF" /><rect x="852.125" y="282.125" width="5.75" height="5.75" fill="#0702FF" /><rect x="882.125" y="282.125" width="5.75" height="5.75" fill="#0702FF" /><rect x="912.125" y="282.125" width="5.75" height="5.75" fill="#0702FF" /><rect x="942.125" y="282.125" width="5.75" height="5.75" fill="#0702FF" /><rect x="972.125" y="282.125" width="5.75" height="5.75" fill="#0702FF" /><rect x="1002.125" y="282.125" width="5.75" height="5.75" fill="#0702FF" /><rect x="1032.125" y="282.125" width="5.75" height="5.75" fill="#0702FF" /><rect x="342.125" y="312.125" width="5.75" height="5.75" fill="#0702FF" /><rect x="372.125" y="312.125" width="5.75" height="5.75" fill="#0702FF" /><rect x="402.125" y="312.125" width="5.75" height="5.75" fill="#0702FF" /><rect x="432.125" y="312.125" width="5.75" height="5.75" fill="#0702FF" /><rect x="462.125" y="312.125" width="5.75" height="5.75" fill="#0702FF" /><rect x="492.125" y="312.125" width="5.75" height="5.75" fill="#0702FF" /><rect x="522.125" y="312.125" width="5.75" height="5.75" fill="#0702FF" /><rect x="548.75" y="308.75" width="12.5" height="12.5" fill="#0702FF" /><rect x="578.75" y="308.75" width="12.5" height="12.5" fill="#0702FF" /><rect x="612.125" y="312.125" width="5.75" height="5.75" fill="#0702FF" /><rect x="642.125" y="312.125" width="5.75" height="5.75" fill="#0702FF" /><rect x="668.75" y="308.75" width="12.5" height="12.5" fill="#0702FF" /><rect x="698.75" y="308.75" width="12.5" height="12.5" fill="#0702FF" /><rect x="732.125" y="312.125" width="5.75" height="5.75" fill="#0702FF" /><rect x="758.75" y="308.75" width="12.5" height="12.5" fill="#0702FF" /><rect x="792.125" y="312.125" width="5.75" height="5.75" fill="#0702FF" /><rect x="822.125" y="312.125" width="5.75" height="5.75" fill="#0702FF" /><rect x="852.125" y="312.125" width="5.75" height="5.75" fill="#0702FF" /><rect x="882.125" y="312.125" width="5.75" height="5.75" fill="#0702FF" /><rect x="942.125" y="312.125" width="5.75" height="5.75" fill="#0702FF" /><rect x="972.125" y="312.125" width="5.75" height="5.75" fill="#0702FF" /><rect x="1062.125" y="312.125" width="5.75" height="5.75" fill="#0702FF" /><rect x="1092.125" y="312.125" width="5.75" height="5.75" fill="#0702FF" /><rect x="222.125" y="342.125" width="5.75" height="5.75" fill="#0702FF" /><rect x="252.125" y="342.125" width="5.75" height="5.75" fill="#0702FF" /><rect x="312.125" y="342.125" width="5.75" height="5.75" fill="#0702FF" /><rect x="342.125" y="342.125" width="5.75" height="5.75" fill="#0702FF" /><rect x="372.125" y="342.125" width="5.75" height="5.75" fill="#0702FF" /><rect x="402.125" y="342.125" width="5.75" height="5.75" fill="#0702FF" /><rect x="432.125" y="342.125" width="5.75" height="5.75" fill="#0702FF" /><rect x="462.125" y="342.125" width="5.75" height="5.75" fill="#0702FF" /><rect x="488.75" y="338.75" width="12.5" height="12.5" fill="#0702FF" /><rect x="522.125" y="342.125" width="5.75" height="5.75" fill="#0702FF" /><rect x="552.125" y="342.125" width="5.75" height="5.75" fill="#0702FF" /><rect x="582.125" y="342.125" width="5.75" height="5.75" fill="#0702FF" /><rect x="608.75" y="338.75" width="12.5" height="12.5" fill="#0702FF" /><rect x="638.75" y="338.75" width="12.5" height="12.5" fill="#0702FF" /><rect x="668.75" y="338.75" width="12.5" height="12.5" fill="#0702FF" /><rect x="698.75" y="338.75" width="12.5" height="12.5" fill="#0702FF" /><rect x="728.75" y="338.75" width="12.5" height="12.5" fill="#0702FF" /><rect x="758.75" y="338.75" width="12.5" height="12.5" fill="#0702FF" /><rect x="788.75" y="338.75" width="12.5" height="12.5" fill="#0702FF" /><rect x="818.75" y="338.75" width="12.5" height="12.5" fill="#0702FF" /><rect x="852.125" y="342.125" width="5.75" height="5.75" fill="#0702FF" /><rect x="882.125" y="342.125" width="5.75" height="5.75" fill="#0702FF" /><rect x="908.75" y="338.75" width="12.5" height="12.5" fill="#0702FF" /><rect x="942.125" y="342.125" width="5.75" height="5.75" fill="#0702FF" /><rect x="1032.125" y="342.125" width="5.75" height="5.75" fill="#0702FF" /><rect x="252.125" y="372.125" width="5.75" height="5.75" fill="#0702FF" /><rect x="282.125" y="372.125" width="5.75" height="5.75" fill="#0702FF" /><rect x="312.125" y="372.125" width="5.75" height="5.75" fill="#0702FF" /><rect x="342.125" y="372.125" width="5.75" height="5.75" fill="#0702FF" /><rect x="372.125" y="372.125" width="5.75" height="5.75" fill="#0702FF" /><rect x="402.125" y="372.125" width="5.75" height="5.75" fill="#0702FF" /><rect x="432.125" y="372.125" width="5.75" height="5.75" fill="#0702FF" /><rect x="462.125" y="372.125" width="5.75" height="5.75" fill="#0702FF" /><rect x="488.75" y="368.75" width="12.5" height="12.5" fill="#0702FF" /><rect x="522.125" y="372.125" width="5.75" height="5.75" fill="#0702FF" /><rect x="548.75" y="368.75" width="12.5" height="12.5" fill="#0702FF" /><rect x="578.75" y="368.75" width="12.5" height="12.5" fill="#0702FF" /><rect x="608.75" y="368.75" width="12.5" height="12.5" fill="#0702FF" /><rect x="638.75" y="368.75" width="12.5" height="12.5" fill="#0702FF" /><rect x="672.125" y="372.125" width="5.75" height="5.75" fill="#0702FF" /><rect x="698.75" y="368.75" width="12.5" height="12.5" fill="#0702FF" /><rect x="728.75" y="368.75" width="12.5" height="12.5" fill="#0702FF" /><rect x="762.125" y="372.125" width="5.75" height="5.75" fill="#0702FF" /><rect x="788.75" y="368.75" width="12.5" height="12.5" fill="#0702FF" /><rect x="818.75" y="368.75" width="12.5" height="12.5" fill="#0702FF" /><rect x="852.125" y="372.125" width="5.75" height="5.75" fill="#0702FF" /><rect x="882.125" y="372.125" width="5.75" height="5.75" fill="#0702FF" /><rect x="912.125" y="372.125" width="5.75" height="5.75" fill="#0702FF" /><rect x="942.125" y="372.125" width="5.75" height="5.75" fill="#0702FF" /><rect x="972.125" y="372.125" width="5.75" height="5.75" fill="#0702FF" /><rect x="1002.125" y="372.125" width="5.75" height="5.75" fill="#0702FF" /><rect x="1032.125" y="372.125" width="5.75" height="5.75" fill="#0702FF" /><rect x="1062.125" y="372.125" width="5.75" height="5.75" fill="#0702FF" /><rect x="312.125" y="402.125" width="5.75" height="5.75" fill="#0702FF" /><rect x="372.125" y="402.125" width="5.75" height="5.75" fill="#0702FF" /><rect x="402.125" y="402.125" width="5.75" height="5.75" fill="#0702FF" /><rect x="428.75" y="398.75" width="12.5" height="12.5" fill="#0702FF" /><rect x="458.75" y="398.75" width="12.5" height="12.5" fill="#0702FF" /><rect x="492.125" y="402.125" width="5.75" height="5.75" fill="#0702FF" /><rect x="518.75" y="398.75" width="12.5" height="12.5" fill="#0702FF" /><rect x="548.75" y="398.75" width="12.5" height="12.5" fill="#0702FF" /><rect x="578.75" y="398.75" width="12.5" height="12.5" fill="#0702FF" /><rect x="608.75" y="398.75" width="12.5" height="12.5" fill="#0702FF" /><rect x="638.75" y="398.75" width="12.5" height="12.5" fill="#0702FF" /><rect x="668.75" y="398.75" width="12.5" height="12.5" fill="#0702FF" /><rect x="698.75" y="398.75" width="12.5" height="12.5" fill="#0702FF" /><rect x="728.75" y="398.75" width="12.5" height="12.5" fill="#0702FF" /><rect x="758.75" y="398.75" width="12.5" height="12.5" fill="#0702FF" /><rect x="792.125" y="402.125" width="5.75" height="5.75" fill="#0702FF" /><rect x="822.125" y="402.125" width="5.75" height="5.75" fill="#0702FF" /><rect x="852.125" y="402.125" width="5.75" height="5.75" fill="#0702FF" /><rect x="882.125" y="402.125" width="5.75" height="5.75" fill="#0702FF" /><rect x="912.125" y="402.125" width="5.75" height="5.75" fill="#0702FF" /><rect x="942.125" y="402.125" width="5.75" height="5.75" fill="#0702FF" /><rect x="972.125" y="402.125" width="5.75" height="5.75" fill="#0702FF" /><rect x="1002.125" y="402.125" width="5.75" height="5.75" fill="#0702FF" /><rect x="1032.125" y="402.125" width="5.75" height="5.75" fill="#0702FF" /><rect x="1062.125" y="402.125" width="5.75" height="5.75" fill="#0702FF" /><rect x="192.125" y="432.125" width="5.75" height="5.75" fill="#0702FF" /><rect x="222.125" y="432.125" width="5.75" height="5.75" fill="#0702FF" /><rect x="252.125" y="432.125" width="5.75" height="5.75" fill="#0702FF" /><rect x="282.125" y="432.125" width="5.75" height="5.75" fill="#0702FF" /><rect x="312.125" y="432.125" width="5.75" height="5.75" fill="#0702FF" /><rect x="342.125" y="432.125" width="5.75" height="5.75" fill="#0702FF" /><rect x="372.125" y="432.125" width="5.75" height="5.75" fill="#0702FF" /><rect x="402.125" y="432.125" width="5.75" height="5.75" fill="#0702FF" /><rect x="432.125" y="432.125" width="5.75" height="5.75" fill="#0702FF" /><rect x="462.125" y="432.125" width="5.75" height="5.75" fill="#0702FF" /><rect x="492.125" y="432.125" width="5.75" height="5.75" fill="#0702FF" /><rect x="522.125" y="432.125" width="5.75" height="5.75" fill="#0702FF" /><rect x="552.125" y="432.125" width="5.75" height="5.75" fill="#0702FF" /><rect x="582.125" y="432.125" width="5.75" height="5.75" fill="#0702FF" /><rect x="612.125" y="432.125" width="5.75" height="5.75" fill="#0702FF" /><rect x="638.75" y="428.75" width="12.5" height="12.5" fill="#0702FF" /><rect x="665.375" y="425.375" width="19.25" height="19.25" fill="#0702FF" /><rect x="698.75" y="428.75" width="12.5" height="12.5" fill="#0702FF" /><rect x="728.75" y="428.75" width="12.5" height="12.5" fill="#0702FF" /><rect x="758.75" y="428.75" width="12.5" height="12.5" fill="#0702FF" /><rect x="792.125" y="432.125" width="5.75" height="5.75" fill="#0702FF" /><rect x="822.125" y="432.125" width="5.75" height="5.75" fill="#0702FF" /><rect x="852.125" y="432.125" width="5.75" height="5.75" fill="#0702FF" /><rect x="882.125" y="432.125" width="5.75" height="5.75" fill="#0702FF" /><rect x="942.125" y="432.125" width="5.75" height="5.75" fill="#0702FF" /><rect x="972.125" y="432.125" width="5.75" height="5.75" fill="#0702FF" /><rect x="1002.125" y="432.125" width="5.75" height="5.75" fill="#0702FF" /><rect x="1032.125" y="432.125" width="5.75" height="5.75" fill="#0702FF" /><rect x="1062.125" y="432.125" width="5.75" height="5.75" fill="#0702FF" /><rect x="1092.125" y="432.125" width="5.75" height="5.75" fill="#0702FF" /><rect x="312.125" y="462.125" width="5.75" height="5.75" fill="#0702FF" /><rect x="342.125" y="462.125" width="5.75" height="5.75" fill="#0702FF" /><rect x="372.125" y="462.125" width="5.75" height="5.75" fill="#0702FF" /><rect x="462.125" y="462.125" width="5.75" height="5.75" fill="#0702FF" /><rect x="488.75" y="458.75" width="12.5" height="12.5" fill="#0702FF" /><rect x="518.75" y="458.75" width="12.5" height="12.5" fill="#0702FF" /><rect x="552.125" y="462.125" width="5.75" height="5.75" fill="#0702FF" /><rect x="578.75" y="458.75" width="12.5" height="12.5" fill="#0702FF" /><rect x="608.75" y="458.75" width="12.5" height="12.5" fill="#0702FF" /><rect x="642.125" y="462.125" width="5.75" height="5.75" fill="#0702FF" /><rect x="672.125" y="462.125" width="5.75" height="5.75" fill="#0702FF" /><rect x="702.125" y="462.125" width="5.75" height="5.75" fill="#0702FF" /><rect x="732.125" y="462.125" width="5.75" height="5.75" fill="#0702FF" /><rect x="758.75" y="458.75" width="12.5" height="12.5" fill="#0702FF" /><rect x="792.125" y="462.125" width="5.75" height="5.75" fill="#0702FF" /><rect x="818.75" y="458.75" width="12.5" height="12.5" fill="#0702FF" /><rect x="848.75" y="458.75" width="12.5" height="12.5" fill="#0702FF" /><rect x="878.75" y="458.75" width="12.5" height="12.5" fill="#0702FF" /><rect x="908.75" y="458.75" width="12.5" height="12.5" fill="#0702FF" /><rect x="942.125" y="462.125" width="5.75" height="5.75" fill="#0702FF" /><rect x="972.125" y="462.125" width="5.75" height="5.75" fill="#0702FF" /><rect x="222.125" y="492.125" width="5.75" height="5.75" fill="#0702FF" /><rect x="252.125" y="492.125" width="5.75" height="5.75" fill="#0702FF" /><rect x="282.125" y="492.125" width="5.75" height="5.75" fill="#0702FF" /><rect x="312.125" y="492.125" width="5.75" height="5.75" fill="#0702FF" /><rect x="342.125" y="492.125" width="5.75" height="5.75" fill="#0702FF" /><rect x="372.125" y="492.125" width="5.75" height="5.75" fill="#0702FF" /><rect x="402.125" y="492.125" width="5.75" height="5.75" fill="#0702FF" /><rect x="432.125" y="492.125" width="5.75" height="5.75" fill="#0702FF" /><rect x="458.75" y="488.75" width="12.5" height="12.5" fill="#0702FF" /><rect x="488.75" y="488.75" width="12.5" height="12.5" fill="#0702FF" /><rect x="522.125" y="492.125" width="5.75" height="5.75" fill="#0702FF" /><rect x="552.125" y="492.125" width="5.75" height="5.75" fill="#0702FF" /><rect x="578.75" y="488.75" width="12.5" height="12.5" fill="#0702FF" /><rect x="608.75" y="488.75" width="12.5" height="12.5" fill="#0702FF" /><rect x="642.125" y="492.125" width="5.75" height="5.75" fill="#0702FF" /><rect x="672.125" y="492.125" width="5.75" height="5.75" fill="#0702FF" /><rect x="698.75" y="488.75" width="12.5" height="12.5" fill="#0702FF" /><rect x="728.75" y="488.75" width="12.5" height="12.5" fill="#0702FF" /><rect x="762.125" y="492.125" width="5.75" height="5.75" fill="#0702FF" /><rect x="792.125" y="492.125" width="5.75" height="5.75" fill="#0702FF" /><rect x="822.125" y="492.125" width="5.75" height="5.75" fill="#0702FF" /><rect x="852.125" y="492.125" width="5.75" height="5.75" fill="#0702FF" /><rect x="912.125" y="492.125" width="5.75" height="5.75" fill="#0702FF" /><rect x="942.125" y="492.125" width="5.75" height="5.75" fill="#0702FF" /><rect x="972.125" y="492.125" width="5.75" height="5.75" fill="#0702FF" /><rect x="1002.125" y="492.125" width="5.75" height="5.75" fill="#0702FF" /><rect x="1032.125" y="492.125" width="5.75" height="5.75" fill="#0702FF" /><rect x="282.125" y="522.125" width="5.75" height="5.75" fill="#0702FF" /><rect x="312.125" y="522.125" width="5.75" height="5.75" fill="#0702FF" /><rect x="342.125" y="522.125" width="5.75" height="5.75" fill="#0702FF" /><rect x="372.125" y="522.125" width="5.75" height="5.75" fill="#0702FF" /><rect x="402.125" y="522.125" width="5.75" height="5.75" fill="#0702FF" /><rect x="432.125" y="522.125" width="5.75" height="5.75" fill="#0702FF" /><rect x="462.125" y="522.125" width="5.75" height="5.75" fill="#0702FF" /><rect x="492.125" y="522.125" width="5.75" height="5.75" fill="#0702FF" /><rect x="518.75" y="518.75" width="12.5" height="12.5" fill="#0702FF" /><rect x="548.75" y="518.75" width="12.5" height="12.5" fill="#0702FF" /><rect x="578.75" y="518.75" width="12.5" height="12.5" fill="#0702FF" /><rect x="608.75" y="518.75" width="12.5" height="12.5" fill="#0702FF" /><rect x="638.75" y="518.75" width="12.5" height="12.5" fill="#0702FF" /><rect x="668.75" y="518.75" width="12.5" height="12.5" fill="#0702FF" /><rect x="698.75" y="518.75" width="12.5" height="12.5" fill="#0702FF" /><rect x="732.125" y="522.125" width="5.75" height="5.75" fill="#0702FF" /><rect x="762.125" y="522.125" width="5.75" height="5.75" fill="#0702FF" /><rect x="792.125" y="522.125" width="5.75" height="5.75" fill="#0702FF" /><rect x="822.125" y="522.125" width="5.75" height="5.75" fill="#0702FF" /><rect x="848.75" y="518.75" width="12.5" height="12.5" fill="#0702FF" /><rect x="882.125" y="522.125" width="5.75" height="5.75" fill="#0702FF" /><rect x="912.125" y="522.125" width="5.75" height="5.75" fill="#0702FF" /><rect x="972.125" y="522.125" width="5.75" height="5.75" fill="#0702FF" /><rect x="1002.125" y="522.125" width="5.75" height="5.75" fill="#0702FF" /><rect x="282.125" y="552.125" width="5.75" height="5.75" fill="#0702FF" /><rect x="312.125" y="552.125" width="5.75" height="5.75" fill="#0702FF" /><rect x="342.125" y="552.125" width="5.75" height="5.75" fill="#0702FF" /><rect x="402.125" y="552.125" width="5.75" height="5.75" fill="#0702FF" /><rect x="428.75" y="548.75" width="12.5" height="12.5" fill="#0702FF" /><rect x="462.125" y="552.125" width="5.75" height="5.75" fill="#0702FF" /><rect x="522.125" y="552.125" width="5.75" height="5.75" fill="#0702FF" /><rect x="552.125" y="552.125" width="5.75" height="5.75" fill="#0702FF" /><rect x="582.125" y="552.125" width="5.75" height="5.75" fill="#0702FF" /><rect x="608.75" y="548.75" width="12.5" height="12.5" fill="#0702FF" /><rect x="642.125" y="552.125" width="5.75" height="5.75" fill="#0702FF" /><rect x="672.125" y="552.125" width="5.75" height="5.75" fill="#0702FF" /><rect x="702.125" y="552.125" width="5.75" height="5.75" fill="#0702FF" /><rect x="732.125" y="552.125" width="5.75" height="5.75" fill="#0702FF" /><rect x="762.125" y="552.125" width="5.75" height="5.75" fill="#0702FF" /><rect x="792.125" y="552.125" width="5.75" height="5.75" fill="#0702FF" /><rect x="822.125" y="552.125" width="5.75" height="5.75" fill="#0702FF" /><rect x="852.125" y="552.125" width="5.75" height="5.75" fill="#0702FF" /><rect x="882.125" y="552.125" width="5.75" height="5.75" fill="#0702FF" /><rect x="912.125" y="552.125" width="5.75" height="5.75" fill="#0702FF" /><rect x="942.125" y="552.125" width="5.75" height="5.75" fill="#0702FF" /><rect x="972.125" y="552.125" width="5.75" height="5.75" fill="#0702FF" /><rect x="1032.125" y="552.125" width="5.75" height="5.75" fill="#0702FF" /><rect x="282.125" y="582.125" width="5.75" height="5.75" fill="#0702FF" /><rect x="312.125" y="582.125" width="5.75" height="5.75" fill="#0702FF" /><rect x="342.125" y="582.125" width="5.75" height="5.75" fill="#0702FF" /><rect x="372.125" y="582.125" width="5.75" height="5.75" fill="#0702FF" /><rect x="402.125" y="582.125" width="5.75" height="5.75" fill="#0702FF" /><rect x="432.125" y="582.125" width="5.75" height="5.75" fill="#0702FF" /><rect x="462.125" y="582.125" width="5.75" height="5.75" fill="#0702FF" /><rect x="492.125" y="582.125" width="5.75" height="5.75" fill="#0702FF" /><rect x="522.125" y="582.125" width="5.75" height="5.75" fill="#0702FF" /><rect x="548.75" y="578.75" width="12.5" height="12.5" fill="#0702FF" /><rect x="582.125" y="582.125" width="5.75" height="5.75" fill="#0702FF" /><rect x="608.75" y="578.75" width="12.5" height="12.5" fill="#0702FF" /><rect x="642.125" y="582.125" width="5.75" height="5.75" fill="#0702FF" /><rect x="672.125" y="582.125" width="5.75" height="5.75" fill="#0702FF" /><rect x="702.125" y="582.125" width="5.75" height="5.75" fill="#0702FF" /><rect x="728.75" y="578.75" width="12.5" height="12.5" fill="#0702FF" /><rect x="762.125" y="582.125" width="5.75" height="5.75" fill="#0702FF" /><rect x="792.125" y="582.125" width="5.75" height="5.75" fill="#0702FF" /><rect x="822.125" y="582.125" width="5.75" height="5.75" fill="#0702FF" /><rect x="852.125" y="582.125" width="5.75" height="5.75" fill="#0702FF" /><rect x="882.125" y="582.125" width="5.75" height="5.75" fill="#0702FF" /><rect x="912.125" y="582.125" width="5.75" height="5.75" fill="#0702FF" /><rect x="942.125" y="582.125" width="5.75" height="5.75" fill="#0702FF" /><rect x="342.125" y="612.125" width="5.75" height="5.75" fill="#0702FF" /><rect x="372.125" y="612.125" width="5.75" height="5.75" fill="#0702FF" /><rect x="432.125" y="612.125" width="5.75" height="5.75" fill="#0702FF" /><rect x="462.125" y="612.125" width="5.75" height="5.75" fill="#0702FF" /><rect x="522.125" y="612.125" width="5.75" height="5.75" fill="#0702FF" /><rect x="552.125" y="612.125" width="5.75" height="5.75" fill="#0702FF" /><rect x="582.125" y="612.125" width="5.75" height="5.75" fill="#0702FF" /><rect x="608.75" y="608.75" width="12.5" height="12.5" fill="#0702FF" /><rect x="642.125" y="612.125" width="5.75" height="5.75" fill="#0702FF" /><rect x="732.125" y="612.125" width="5.75" height="5.75" fill="#0702FF" /><rect x="762.125" y="612.125" width="5.75" height="5.75" fill="#0702FF" /><rect x="792.125" y="612.125" width="5.75" height="5.75" fill="#0702FF" /><rect x="822.125" y="612.125" width="5.75" height="5.75" fill="#0702FF" /><rect x="852.125" y="612.125" width="5.75" height="5.75" fill="#0702FF" /><rect x="912.125" y="612.125" width="5.75" height="5.75" fill="#0702FF" /><rect x="282.125" y="642.125" width="5.75" height="5.75" fill="#0702FF" /><rect x="342.125" y="642.125" width="5.75" height="5.75" fill="#0702FF" /><rect x="372.125" y="642.125" width="5.75" height="5.75" fill="#0702FF" /><rect x="402.125" y="642.125" width="5.75" height="5.75" fill="#0702FF" /><rect x="432.125" y="642.125" width="5.75" height="5.75" fill="#0702FF" /><rect x="462.125" y="642.125" width="5.75" height="5.75" fill="#0702FF" /><rect x="492.125" y="642.125" width="5.75" height="5.75" fill="#0702FF" /><rect x="522.125" y="642.125" width="5.75" height="5.75" fill="#0702FF" /><rect x="552.125" y="642.125" width="5.75" height="5.75" fill="#0702FF" /><rect x="582.125" y="642.125" width="5.75" height="5.75" fill="#0702FF" /><rect x="612.125" y="642.125" width="5.75" height="5.75" fill="#0702FF" /><rect x="642.125" y="642.125" width="5.75" height="5.75" fill="#0702FF" /><rect x="672.125" y="642.125" width="5.75" height="5.75" fill="#0702FF" /><rect x="702.125" y="642.125" width="5.75" height="5.75" fill="#0702FF" /><rect x="732.125" y="642.125" width="5.75" height="5.75" fill="#0702FF" /><rect x="762.125" y="642.125" width="5.75" height="5.75" fill="#0702FF" /><rect x="792.125" y="642.125" width="5.75" height="5.75" fill="#0702FF" /><rect x="822.125" y="642.125" width="5.75" height="5.75" fill="#0702FF" /><rect x="852.125" y="642.125" width="5.75" height="5.75" fill="#0702FF" /><rect x="882.125" y="642.125" width="5.75" height="5.75" fill="#0702FF" /><rect x="912.125" y="642.125" width="5.75" height="5.75" fill="#0702FF" /><rect x="942.125" y="642.125" width="5.75" height="5.75" fill="#0702FF" /><rect x="972.125" y="642.125" width="5.75" height="5.75" fill="#0702FF" /><rect x="312.125" y="672.125" width="5.75" height="5.75" fill="#0702FF" /><rect x="462.125" y="672.125" width="5.75" height="5.75" fill="#0702FF" /><rect x="492.125" y="672.125" width="5.75" height="5.75" fill="#0702FF" /><rect x="522.125" y="672.125" width="5.75" height="5.75" fill="#0702FF" /><rect x="552.125" y="672.125" width="5.75" height="5.75" fill="#0702FF" /><rect x="612.125" y="672.125" width="5.75" height="5.75" fill="#0702FF" /><rect x="642.125" y="672.125" width="5.75" height="5.75" fill="#0702FF" /><rect x="672.125" y="672.125" width="5.75" height="5.75" fill="#0702FF" /><rect x="702.125" y="672.125" width="5.75" height="5.75" fill="#0702FF" /><rect x="732.125" y="672.125" width="5.75" height="5.75" fill="#0702FF" /><rect x="882.125" y="672.125" width="5.75" height="5.75" fill="#0702FF" /><rect x="912.125" y="672.125" width="5.75" height="5.75" fill="#0702FF" /><rect x="1002.125" y="672.125" width="5.75" height="5.75" fill="#0702FF" /><rect x="432.125" y="702.125" width="5.75" height="5.75" fill="#0702FF" /><rect x="522.125" y="702.125" width="5.75" height="5.75" fill="#0702FF" /><rect x="552.125" y="702.125" width="5.75" height="5.75" fill="#0702FF" /><rect x="582.125" y="702.125" width="5.75" height="5.75" fill="#0702FF" /><rect x="612.125" y="702.125" width="5.75" height="5.75" fill="#0702FF" /><rect x="642.125" y="702.125" width="5.75" height="5.75" fill="#0702FF" /><rect x="672.125" y="702.125" width="5.75" height="5.75" fill="#0702FF" /><rect x="702.125" y="702.125" width="5.75" height="5.75" fill="#0702FF" /><rect x="732.125" y="702.125" width="5.75" height="5.75" fill="#0702FF" /><rect x="762.125" y="702.125" width="5.75" height="5.75" fill="#0702FF" /><rect x="822.125" y="702.125" width="5.75" height="5.75" fill="#0702FF" /><rect x="852.125" y="702.125" width="5.75" height="5.75" fill="#0702FF" /><line x1="0" y1="0" x2="1260" y2="0" stroke="#D3D3D3" stroke-width="1" /><line x1="0" y1="30" x2="1260" y2="30" stroke="#D3D3D3" stroke-width="1" /><line x1="0" y1="60" x2="1260" y2="60" stroke="#D3D3D3" stroke-width="1" /><line x1="0" y1="90" x2="1260" y2="90" stroke="#D3D3D3" stroke-width="1" /><line x1="0" y1="120" x2="1260" y2="120" stroke="#D3D3D3" stroke-width="1" /><line x1="0" y1="150" x2="1260" y2="150" stroke="#D3D3D3" stroke-width="1" /><line x1="0" y1="180" x2="1260" y2="180" stroke="#D3D3D3" stroke-width="1" /><line x1="0" y1="210" x2="1260" y2="210" stroke="#D3D3D3" stroke-width="1" /><line x1="0" y1="240" x2="1260" y2="240" stroke="#D3D3D3" stroke-width="1" /><line x1="0" y1="270" x2="1260" y2="270" stroke="#D3D3D3" stroke-width="1" /><line x1="0" y1="300" x2="1260" y2="300" stroke="#D3D3D3" stroke-width="1" /><line x1="0" y1="330" x2="1260" y2="330" stroke="#D3D3D3" stroke-width="1" /><line x1="0" y1="360" x2="1260" y2="360" stroke="#D3D3D3" stroke-width="1" /><line x1="0" y1="390" x2="1260" y2="390" stroke="#D3D3D3" stroke-width="1" /><line x1="0" y1="420" x2="1260" y2="420" stroke="#D3D3D3" stroke-width="1" /><line x1="0" y1="450" x2="1260" y2="450" stroke="#D3D3D3" stroke-width="1" /><line x1="0" y1="480" x2="1260" y2="480" stroke="#D3D3D3" stroke-width="1" /><line x1="0" y1="510" x2="1260" y2="510" stroke="#D3D3D3" stroke-width="1" /><line x1="0" y1="540" x2="1260" y2="540" stroke="#D3D3D3" stroke-width="1" /><line x1="0" y1="570" x2="1260" y2="570" stroke="#D3D3D3" stroke-width="1" /><line x1="0" y1="600" x2="1260" y2="600" stroke="#D3D3D3" stroke-width="1" /><line x1="0" y1="630" x2="1260" y2="630" stroke="#D3D3D3" stroke-width="1" /><line x1="0" y1="660" x2="1260" y2="660" stroke="#D3D3D3" stroke-width="1" /><line x1="0" y1="690" x2="1260" y2="690" stroke="#D3D3D3" stroke-width="1" /><line x1="0" y1="720" x2="1260" y2="720" stroke="#D3D3D3" stroke-width="1" /><line x1="0" y1="0" x2="0" y2="720" stroke="#D3D3D3" stroke-width="1" /><line x1="30" y1="0" x2="30" y2="720" stroke="#D3D3D3" stroke-width="1" /><line x1="60" y1="0" x2="60" y2="720" stroke="#D3D3D3" stroke-width="1" /><line x1="90" y1="0" x2="90" y2="720" stroke="#D3D3D3" stroke-width="1" /><line x1="120" y1="0" x2="120" y2="720" stroke="#D3D3D3" stroke-width="1" /><line x1="150" y1="0" x2="150" y2="720" stroke="#D3D3D3" stroke-width="1" /><line x1="180" y1="0" x2="180" y2="720" stroke="#D3D3D3" stroke-width="1" /><line x1="210" y1="0" x2="210" y2="720" stroke="#D3D3D3" stroke-width="1" /><line x1="240" y1="0" x2="240" y2="720" stroke="#D3D3D3" stroke-width="1" /><line x1="270" y1="0" x2="270" y2="720" stroke="#D3D3D3" stroke-width="1" /><line x1="300" y1="0" x2="300" y2="720" stroke="#D3D3D3" stroke-width="1" /><line x1="330" y1="0" x2="330" y2="720" stroke="#D3D3D3" stroke-width="1" /><line x1="360" y1="0" x2="360" y2="720" stroke="#D3D3D3" stroke-width="1" /><line x1="390" y1="0" x2="390" y2="720" stroke="#D3D3D3" stroke-width="1" /><line x1="420" y1="0" x2="420" y2="720" stroke="#D3D3D3" stroke-width="1" /><line x1="450" y1="0" x2="450" y2="720" stroke="#D3D3D3" stroke-width="1" /><line x1="480" y1="0" x2="480" y2="720" stroke="#D3D3D3" stroke-width="1" /><line x1="510" y1="0" x2="510" y2="720" stroke="#D3D3D3" stroke-width="1" /><line x1="540" y1="0" x2="540" y2="720" stroke="#D3D3D3" stroke-width="1" /><line x1="570" y1="0" x2="570" y2="720" stroke="#D3D3D3" stroke-width="1" /><line x1="600" y1="0" x2="600" y2="720" stroke="#D3D3D3" stroke-width="1" /><line x1="630" y1="0" x2="630" y2="720" stroke="#D3D3D3" stroke-width="1" /><line x1="660" y1="0" x2="660" y2="720" stroke="#D3D3D3" stroke-width="1" /><line x1="690" y1="0" x2="690" y2="720" stroke="#D3D3D3" stroke-width="1" /><line x1="720" y1="0" x2="720" y2="720" stroke="#D3D3D3" stroke-width="1" /><line x1="750" y1="0" x2="750" y2="720" stroke="#D3D3D3" stroke-width="1" /><line x1="780" y1="0" x2="780" y2="720" stroke="#D3D3D3" stroke-width="1" /><line x1="810" y1="0" x2="810" y2="720" stroke="#D3D3D3" stroke-width="1" /><line x1="840" y1="0" x2="840" y2="720" stroke="#D3D3D3" stroke-width="1" /><line x1="870" y1="0" x2="870" y2="720" stroke="#D3D3D3" stroke-width="1" /><line x1="900" y1="0" x2="900" y2="720" stroke="#D3D3D3" stroke-width="1" /><line x1="930" y1="0" x2="930" y2="720" stroke="#D3D3D3" stroke-width="1" /><line x1="960" y1="0" x2="960" y2="720" stroke="#D3D3D3" stroke-width="1" /><line x1="990" y1="0" x2="990" y2="720" stroke="#D3D3D3" stroke-width="1" /><line x1="1020" y1="0" x2="1020" y2="720" stroke="#D3D3D3" stroke-width="1" /><line x1="1050" y1="0" x2="1050" y2="720" stroke="#D3D3D3" stroke-width="1" /><line x1="1080" y1="0" x2="1080" y2="720" stroke="#D3D3D3" stroke-width="1" /><line x1="1110" y1="0" x2="1110" y2="720" stroke="#D3D3D3" stroke-width="1" /><line x1="1140" y1="0" x2="1140" y2="720" stroke="#D3D3D3" stroke-width="1" /><line x1="1170" y1="0" x2="1170" y2="720" stroke="#D3D3D3" stroke-width="1" /><line x1="1200" y1="0" x2="1200" y2="720" stroke="#D3D3D3" stroke-width="1" /><line x1="1230" y1="0" x2="1230" y2="720" stroke="#D3D3D3" stroke-width="1" /><line x1="1260" y1="0" x2="1260" y2="720" stroke="#D3D3D3" stroke-width="1" /></svg>