<svg width="1260" height="720" xmlns="http://www.w3.org/2000/svg"><rect x="462.3879440184977" y="12.387944018497715" width="5.224111963004571" height="5.224111963004571" fill="#0702FF" /><rect x="492.1663117432973" y="12.166311743297303" width="5.667376513405392" height="5.667376513405392" fill="#0702FF" /><rect x="522.2943042392225" y="12.294304239222429" width="5.411391521555142" height="5.411391521555142" fill="#0702FF" /><rect x="551.681346215978" y="11.681346215977975" width="6.637307568044051" height="6.637307568044051" fill="#0702FF" /><rect x="582.2477485729154" y="12.247748572915329" width="5.504502854169342" height="5.504502854169342" fill="#0702FF" /><rect x="612.1037686025537" y="12.103768602553705" width="5.7924627948925895" height="5.7924627948925895" fill="#0702FF" /><rect x="642.0989378339086" y="12.098937833908629" width="5.802124332182743" height="5.802124332182743" fill="#0702FF" /><rect x="672.1826379960671" y="12.182637996067072" width="5.634724007865858" height="5.634724007865858" fill="#0702FF" /><rect x="702.0554076699644" y="12.055407669964413" width="5.889184660071175" height="5.889184660071175" fill="#0702FF" /><rect x="762.3435787289679" y="12.34357872896799" width="5.312842542064017" height="5.312842542064017" fill="#0702FF" /><rect x="851.8409799367325" y="11.840979936732499" width="6.318040126535001" height="6.318040126535001" fill="#0702FF" /><rect x="882.2514421206515" y="12.2514421206515" width="5.497115758697001" height="5.497115758697001" fill="#0702FF" /><rect x="461.74755095471033" y="41.74755095471032" width="6.504898090579356" height="6.504898090579356" fill="#0702FF" /><rect x="491.588833346408" y="41.58883334640805" width="6.822333307183904" height="6.822333307183904" fill="#0702FF" /><rect x="521.630267125513" y="41.630267125513015" width="6.7394657489739735" height="6.7394657489739735" fill="#0702FF" /><rect x="551.8955675703371" y="41.89556757033715" width="6.208864859325693" height="6.208864859325693" fill="#0702FF" /><rect x="581.850145155441" y="41.85014515544108" width="6.29970968911784" height="6.29970968911784" fill="#0702FF" /><rect x="611.698704320387" y="41.69870432038698" width="6.602591359226032" height="6.602591359226032" fill="#0702FF" /><rect x="641.3859183372257" y="41.38591833722574" width="7.228163325548525" height="7.228163325548525" fill="#0702FF" /><rect x="671.6249440704951" y="41.62494407049508" width="6.750111859009831" height="6.750111859009831" fill="#0702FF" /><rect x="701.8288142907038" y="41.82881429070378" width="6.342371418592432" height="6.342371418592432" fill="#0702FF" /><rect x="731.7658354400043" y="41.76583544000421" width="6.468329119991585" height="6.468329119991585" fill="#0702FF" /><rect x="762.1679416423476" y="42.16794164234764" width="5.664116715304722" height="5.664116715304722" fill="#0702FF" /><rect x="791.8999504411869" y="41.8999504411869" width="6.200099117626186" height="6.200099117626186" fill="#0702FF" /><rect x="822.1095343060141" y="42.10953430601414" width="5.7809313879717195" height="5.7809313879717195" fill="#0702FF" /><rect x="342.1241316293998" y="72.12413162939981" width="5.7517367412003715" height="5.7517367412003715" fill="#0702FF" /><rect x="371.6208395993687" y="71.6208395993687" width="6.758320801262615" height="6.758320801262615" fill="#0702FF" /><rect x="402.14760614739083" y="72.14760614739083" width="5.7047877052183456" height="5.7047877052183456" fill="#0702FF" /><rect x="432.3154958049567" y="72.31549580495671" width="5.369008390086567" height="5.369008390086567" fill="#0702FF" /><rect x="462.0421027695797" y="72.04210276957969" width="5.915794460840646" height="5.915794460840646" fill="#0702FF" /><rect x="521.9268151791333" y="71.92681517913329" width="6.146369641733415" height="6.146369641733415" fill="#0702FF" /><rect x="551.9492055002393" y="71.94920550023929" width="6.101588999521436" height="6.101588999521436" fill="#0702FF" /><rect x="700.7744050904034" y="70.77440509040346" width="8.451189819193061" height="8.451189819193061" fill="#0702FF" /><rect x="729.570524502063" y="69.57052450206301" width="10.858950995873991" height="10.858950995873991" fill="#0702FF" /><rect x="760.6294068950818" y="70.6294068950819" width="8.741186209836217" height="8.741186209836217" fill="#0702FF" /><rect x="791.8349960824155" y="71.83499608241549" width="6.330007835169026" height="6.330007835169026" fill="#0702FF" /><rect x="822.0678928561359" y="72.06789285613591" width="5.864214287728185" height="5.864214287728185" fill="#0702FF" /><rect x="912.3649666350437" y="72.36496663504377" width="5.270066729912466" height="5.270066729912466" fill="#0702FF" /><rect x="372.344828137919" y="102.34482813791904" width="5.310343724161934" height="5.310343724161934" fill="#0702FF" /><rect x="402.2592455391018" y="102.25924553910183" width="5.481508921796337" height="5.481508921796337" fill="#0702FF" /><rect x="521.6587031563404" y="101.65870315634038" width="6.682593687319235" height="6.682593687319235" fill="#0702FF" /><rect x="550.0124261836451" y="100.01242618364503" width="9.97514763270992" height="9.97514763270992" fill="#0702FF" /><rect x="580.6373846375118" y="100.63738463751179" width="8.725230724976441" height="8.725230724976441" fill="#0702FF" /><rect x="611.647418213811" y="101.64741821381097" width="6.705163572378085" height="6.705163572378085" fill="#0702FF" /><rect x="641.221250550919" y="101.22125055091902" width="7.557498898161965" height="7.557498898161965" fill="#0702FF" /><rect x="671.0633999654716" y="101.0633999654716" width="7.873200069056809" height="7.873200069056809" fill="#0702FF" /><rect x="701.7537088158776" y="101.75370881587764" width="6.492582368244705" height="6.492582368244705" fill="#0702FF" /><rect x="732.0797854475835" y="102.07978544758345" width="5.840429104833095" height="5.840429104833095" fill="#0702FF" /><rect x="821.651521713237" y="101.65152171323697" width="6.696956573526052" height="6.696956573526052" fill="#0702FF" /><rect x="852.1990835172368" y="102.19908351723679" width="5.60183296552642" height="5.60183296552642" fill="#0702FF" /><rect x="881.6047264983978" y="101.60472649839781" width="6.790547003204395" height="6.790547003204395" fill="#0702FF" /><rect x="911.2530635829537" y="101.2530635829537" width="7.493872834092585" height="7.493872834092585" fill="#0702FF" /><rect x="941.3013767687042" y="101.3013767687042" width="7.3972464625915855" height="7.3972464625915855" fill="#0702FF" /><rect x="971.6148305121293" y="101.61483051212934" width="6.770338975741323" height="6.770338975741323" fill="#0702FF" /><rect x="1002.1495364820024" y="102.14953648200242" width="5.700927035995154" height="5.700927035995154" fill="#0702FF" /><rect x="282.458403799389" y="132.45840379938898" width="5.083192401222066" height="5.083192401222066" fill="#0702FF" /><rect x="311.39123366635283" y="131.39123366635283" width="7.217532667294343" height="7.217532667294343" fill="#0702FF" /><rect x="341.65049161090195" y="131.65049161090192" width="6.699016778196134" height="6.699016778196134" fill="#0702FF" /><rect x="372.1457601643996" y="132.14576016439958" width="5.708479671200877" height="5.708479671200877" fill="#0702FF" /><rect x="401.7556030990922" y="131.75560309909218" width="6.4887938018156035" height="6.4887938018156035" fill="#0702FF" /><rect x="431.03590757680365" y="131.03590757680368" width="7.928184846392641" height="7.928184846392641" fill="#0702FF" /><rect x="460.7926753063581" y="130.7926753063581" width="8.414649387283825" height="8.414649387283825" fill="#0702FF" /><rect x="491.32748401270425" y="131.32748401270422" width="7.3450319745915476" height="7.3450319745915476" fill="#0702FF" /><rect x="520.0784144894144" y="130.07841448941437" width="9.843171021171273" height="9.843171021171273" fill="#0702FF" /><rect x="549.5960111273729" y="129.59601112737286" width="10.807977745254291" height="10.807977745254291" fill="#0702FF" /><rect x="581.3914217899786" y="131.3914217899786" width="7.217156420042766" height="7.217156420042766" fill="#0702FF" /><rect x="612.0074781931969" y="132.00747819319693" width="5.985043613606159" height="5.985043613606159" fill="#0702FF" /><rect x="640.3661012871319" y="130.36610128713187" width="9.267797425736283" height="9.267797425736283" fill="#0702FF" /><rect x="669.7417233008774" y="129.74172330087742" width="10.516553398245149" height="10.516553398245149" fill="#0702FF" /><rect x="701.9859237368673" y="131.98592373686736" width="6.028152526265293" height="6.028152526265293" fill="#0702FF" /><rect x="732.4717829628506" y="132.47178296285065" width="5.056434074298714" height="5.056434074298714" fill="#0702FF" /><rect x="760.7075781937284" y="130.70757819372835" width="8.584843612543278" height="8.584843612543278" fill="#0702FF" /><rect x="790.8009040004353" y="130.8009040004352" width="8.398191999129592" height="8.398191999129592" fill="#0702FF" /><rect x="821.5138449929051" y="131.51384499290506" width="6.9723100141898495" height="6.9723100141898495" fill="#0702FF" /><rect x="852.4391330743433" y="132.43913307434337" width="5.121733851313282" height="5.121733851313282" fill="#0702FF" /><rect x="882.4632989616828" y="132.4632989616827" width="5.0734020766345616" height="5.0734020766345616" fill="#0702FF" /><rect x="341.9128248055191" y="161.9128248055191" width="6.174350388961809" height="6.174350388961809" fill="#0702FF" /><rect x="371.33711109459483" y="161.3371110945948" width="7.325777810810385" height="7.325777810810385" fill="#0702FF" /><rect x="401.99468346869054" y="161.99468346869054" width="6.010633062618897" height="6.010633062618897" fill="#0702FF" /><rect x="431.6763171393191" y="161.6763171393191" width="6.647365721361798" height="6.647365721361798" fill="#0702FF" /><rect x="461.43561449226536" y="161.43561449226536" width="7.12877101546928" height="7.12877101546928" fill="#0702FF" /><rect x="491.80752972935556" y="161.8075297293556" width="6.3849405412888345" height="6.3849405412888345" fill="#0702FF" /><rect x="521.4267901337486" y="161.4267901337485" width="7.146419732502952" height="7.146419732502952" fill="#0702FF" /><rect x="550.68840909537" y="160.68840909537008" width="8.623181809259856" height="8.623181809259856" fill="#0702FF" /><rect x="580.3372055678059" y="160.33720556780582" width="9.325588864388326" height="9.325588864388326" fill="#0702FF" /><rect x="609.8523942436532" y="159.85239424365324" width="10.295211512693545" height="10.295211512693545" fill="#0702FF" /><rect x="640.1802711686826" y="160.1802711686826" width="9.639457662634836" height="9.639457662634836" fill="#0702FF" /><rect x="669.871219200442" y="159.87121920044206" width="10.25756159911588" height="10.25756159911588" fill="#0702FF" /><rect x="700.1424083494218" y="160.14240834942174" width="9.715183301156495" height="9.715183301156495" fill="#0702FF" /><rect x="730.5559591400391" y="160.55595914003914" width="8.888081719921699" height="8.888081719921699" fill="#0702FF" /><rect x="760.233269953687" y="160.23326995368697" width="9.53346009262604" height="9.53346009262604" fill="#0702FF" /><rect x="791.5168580522654" y="161.51685805226546" width="6.966283895469084" height="6.966283895469084" fill="#0702FF" /><rect x="821.2931367199448" y="161.29313671994473" width="7.413726560110565" height="7.413726560110565" fill="#0702FF" /><rect x="851.3153133868627" y="161.31531338686275" width="7.369373226274487" height="7.369373226274487" fill="#0702FF" /><rect x="881.5732257536316" y="161.5732257536316" width="6.85354849273684" height="6.85354849273684" fill="#0702FF" /><rect x="911.0042686828727" y="161.00426868287278" width="7.991462634254457" height="7.991462634254457" fill="#0702FF" /><rect x="941.9678585832306" y="161.96785858323068" width="6.064282833538648" height="6.064282833538648" fill="#0702FF" /><rect x="972.476723074851" y="162.476723074851" width="5.046553850298007" height="5.046553850298007" fill="#0702FF" /><rect x="1062.3382280827168" y="162.3382280827169" width="5.323543834566209" height="5.323543834566209" fill="#0702FF" /><rect x="222.29472162178826" y="192.29472162178826" width="5.4105567564234995" height="5.4105567564234995" fill="#0702FF" /><rect x="312.3762430734324" y="192.37624307343242" width="5.247513853135164" height="5.247513853135164" fill="#0702FF" /><rect x="341.8823759987861" y="191.8823759987861" width="6.235248002427804" height="6.235248002427804" fill="#0702FF" /><rect x="371.6033118061582" y="191.60331180615822" width="6.793376387683567" height="6.793376387683567" fill="#0702FF" /><rect x="401.7812113038248" y="191.7812113038248" width="6.437577392350395" height="6.437577392350395" fill="#0702FF" /><rect x="432.389950498858" y="192.38995049885804" width="5.220099002283922" height="5.220099002283922" fill="#0702FF" /><rect x="460.4855885041505" y="190.4855885041505" width="9.028822991698995" height="9.028822991698995" fill="#0702FF" /><rect x="489.0359915944946" y="189.03599159449456" width="11.928016811010862" height="11.928016811010862" fill="#0702FF" /><rect x="521.2085358097609" y="191.20853580976086" width="7.5829283804783" height="7.5829283804783" fill="#0702FF" /><rect x="580.3255407455296" y="190.32554074552957" width="9.348918508940859" height="9.348918508940859" fill="#0702FF" /><rect x="610.5160220750317" y="190.5160220750317" width="8.967955849936573" height="8.967955849936573" fill="#0702FF" /><rect x="640.4244689169543" y="190.4244689169543" width="9.151062166091371" height="9.151062166091371" fill="#0702FF" /><rect x="669.6370873593644" y="189.63708735936433" width="10.725825281271328" height="10.725825281271328" fill="#0702FF" /><rect x="700.5585565684457" y="190.55855656844577" width="8.882886863108489" height="8.882886863108489" fill="#0702FF" /><rect x="730.5184337012115" y="190.51843370121156" width="8.963132597576896" height="8.963132597576896" fill="#0702FF" /><rect x="760.8260048750118" y="190.82600487501173" width="8.34799024997651" height="8.34799024997651" fill="#0702FF" /><rect x="790.7806504787583" y="190.78065047875828" width="8.438699042483478" height="8.438699042483478" fill="#0702FF" /><rect x="821.1387687569841" y="191.1387687569841" width="7.722462486031812" height="7.722462486031812" fill="#0702FF" /><rect x="851.405308839959" y="191.40530883995905" width="7.189382320081894" height="7.189382320081894" fill="#0702FF" /><rect x="881.7081625584606" y="191.70816255846054" width="6.583674883078915" height="6.583674883078915" fill="#0702FF" /><rect x="911.843800948286" y="191.84380094828595" width="6.312398103428084" height="6.312398103428084" fill="#0702FF" /><rect x="971.7461183813873" y="191.74611838138736" width="6.507763237225289" height="6.507763237225289" fill="#0702FF" /><rect x="1002.4042308765977" y="192.40423087659764" width="5.191538246804702" height="5.191538246804702" fill="#0702FF" /><rect x="252.4707173213956" y="222.4707173213956" width="5.058565357208787" height="5.058565357208787" fill="#0702FF" /><rect x="282.2759628833135" y="222.2759628833135" width="5.448074233372983" height="5.448074233372983" fill="#0702FF" /><rect x="311.72720755246064" y="221.72720755246067" width="6.545584895078665" height="6.545584895078665" fill="#0702FF" /><rect x="341.2466002925484" y="221.2466002925484" width="7.506799414903213" height="7.506799414903213" fill="#0702FF" /><rect x="371.56691703939185" y="221.56691703939188" width="6.866165921216259" height="6.866165921216259" fill="#0702FF" /><rect x="400.5395758180909" y="220.5395758180909" width="8.920848363818202" height="8.920848363818202" fill="#0702FF" /><rect x="430.74838791197976" y="220.74838791197973" width="8.503224176040526" height="8.503224176040526" fill="#0702FF" /><rect x="461.5153090989975" y="221.51530909899745" width="6.969381802005088" height="6.969381802005088" fill="#0702FF" /><rect x="489.8499931196991" y="219.8499931196991" width="10.300013760601791" height="10.300013760601791" fill="#0702FF" /><rect x="520.2055923658703" y="220.20559236587027" width="9.588815268259442" height="9.588815268259442" fill="#0702FF" /><rect x="551.3781350411809" y="221.37813504118094" width="7.243729917638113" height="7.243729917638113" fill="#0702FF" /><rect x="579.6240575222204" y="219.62405752222037" width="10.751884955559246" height="10.751884955559246" fill="#0702FF" /><rect x="609.1496175074129" y="219.14961750741293" width="11.700764985174173" height="11.700764985174173" fill="#0702FF" /><rect x="639.6422188930545" y="219.6422188930545" width="10.715562213890994" height="10.715562213890994" fill="#0702FF" /><rect x="668.5819771386269" y="218.5819771386269" width="12.83604572274616" height="12.83604572274616" fill="#0702FF" /><rect x="699.5539890556098" y="219.55398905560975" width="10.892021888780487" height="10.892021888780487" fill="#0702FF" /><rect x="730.9130663471598" y="220.91306634715974" width="8.173867305680496" height="8.173867305680496" fill="#0702FF" /><rect x="759.9269130312002" y="219.9269130312002" width="10.146173937599592" height="10.146173937599592" fill="#0702FF" /><rect x="789.552740863575" y="219.5527408635749" width="10.894518272850167" height="10.894518272850167" fill="#0702FF" /><rect x="820.1483039802077" y="220.14830398020774" width="9.703392039584532" height="9.703392039584532" fill="#0702FF" /><rect x="850.5029819088278" y="220.50298190882776" width="8.994036182344464" height="8.994036182344464" fill="#0702FF" /><rect x="881.1013798274673" y="221.1013798274673" width="7.797240345065402" height="7.797240345065402" fill="#0702FF" /><rect x="912.2598013812794" y="222.25980138127946" width="5.480397237441078" height="5.480397237441078" fill="#0702FF" /><rect x="941.7831350669644" y="221.78313506696438" width="6.433729866071268" height="6.433729866071268" fill="#0702FF" /><rect x="972.3960321863052" y="222.39603218630523" width="5.207935627389556" height="5.207935627389556" fill="#0702FF" /><rect x="1001.7739929734884" y="221.7739929734884" width="6.452014053023234" height="6.452014053023234" fill="#0702FF" /><rect x="252.44480720962545" y="252.44480720962545" width="5.110385580749105" height="5.110385580749105" fill="#0702FF" /><rect x="312.40367585303096" y="252.40367585303093" width="5.19264829393811" height="5.19264829393811" fill="#0702FF" /><rect x="401.51207019856184" y="251.51207019856182" width="6.975859602876346" height="6.975859602876346" fill="#0702FF" /><rect x="430.1718750054602" y="250.1718750054602" width="9.656249989079585" height="9.656249989079585" fill="#0702FF" /><rect x="461.5582602635137" y="251.55826026351372" width="6.8834794729725886" height="6.8834794729725886" fill="#0702FF" /><rect x="490.596439053044" y="250.59643905304398" width="8.807121893912019" height="8.807121893912019" fill="#0702FF" /><rect x="520.8867992329369" y="250.88679923293694" width="8.226401534126138" height="8.226401534126138" fill="#0702FF" /><rect x="551.912128300353" y="251.9121283003529" width="6.175743399294197" height="6.175743399294197" fill="#0702FF" /><rect x="579.8836695486301" y="249.8836695486301" width="10.232660902739806" height="10.232660902739806" fill="#0702FF" /><rect x="609.4517783572537" y="249.45177835725374" width="11.09644328549252" height="11.09644328549252" fill="#0702FF" /><rect x="639.169539457303" y="249.16953945730307" width="11.660921085393873" height="11.660921085393873" fill="#0702FF" /><rect x="668.3603444941959" y="248.360344494196" width="13.279311011608002" height="13.279311011608002" fill="#0702FF" /><rect x="700.8370001671367" y="250.8370001671367" width="8.32599966572659" height="8.32599966572659" fill="#0702FF" /><rect x="731.9975185889494" y="251.99751858894942" width="6.004962822101165" height="6.004962822101165" fill="#0702FF" /><rect x="762.0240288963721" y="252.02402889637213" width="5.9519422072557155" height="5.9519422072557155" fill="#0702FF" /><rect x="792.1425363005468" y="252.14253630054682" width="5.714927398906362" height="5.714927398906362" fill="#0702FF" /><rect x="820.5658966853892" y="250.56589668538925" width="8.8682066292215" height="8.8682066292215" fill="#0702FF" /><rect x="850.9562025266082" y="250.9562025266082" width="8.087594946783597" height="8.087594946783597" fill="#0702FF" /><rect x="880.9853385526563" y="250.98533855265632" width="8.029322894687372" height="8.029322894687372" fill="#0702FF" /><rect x="911.4719672531926" y="251.47196725319256" width="7.0560654936148755" height="7.0560654936148755" fill="#0702FF" /><rect x="942.4752901363762" y="252.4752901363762" width="5.04941972724761" height="5.04941972724761" fill="#0702FF" /><rect x="971.7517061723689" y="251.75170617236898" width="6.4965876552620525" height="6.4965876552620525" fill="#0702FF" /><rect x="192.47274646935668" y="282.47274646935665" width="5.054507061286664" height="5.054507061286664" fill="#0702FF" /><rect x="222.09855782113223" y="282.0985578211322" width="5.802884357735536" height="5.802884357735536" fill="#0702FF" /><rect x="251.52326016266423" y="281.5232601626642" width="6.953479674671556" height="6.953479674671556" fill="#0702FF" /><rect x="281.8518991534522" y="281.8518991534522" width="6.29620169309559" height="6.29620169309559" fill="#0702FF" /><rect x="311.4953052441022" y="281.4953052441022" width="7.009389511795581" height="7.009389511795581" fill="#0702FF" /><rect x="340.92706718189527" y="280.92706718189527" width="8.145865636209438" height="8.145865636209438" fill="#0702FF" /><rect x="371.1690445717126" y="281.1690445717126" width="7.661910856574796" height="7.661910856574796" fill="#0702FF" /><rect x="400.81258226834706" y="280.81258226834706" width="8.374835463305914" height="8.374835463305914" fill="#0702FF" /><rect x="428.92595101201346" y="278.92595101201346" width="12.148097975973034" height="12.148097975973034" fill="#0702FF" /><rect x="459.3677020243699" y="279.3677020243699" width="11.264595951260194" height="11.264595951260194" fill="#0702FF" /><rect x="489.52639673430116" y="279.52639673430116" width="10.947206531397667" height="10.947206531397667" fill="#0702FF" /><rect x="519.4097832380692" y="279.40978323806917" width="11.18043352386165" height="11.18043352386165" fill="#0702FF" /><rect x="549.9792231942816" y="279.9792231942817" width="10.041553611436626" height="10.041553611436626" fill="#0702FF" /><rect x="579.8861424158747" y="279.8861424158747" width="10.227715168250652" height="10.227715168250652" fill="#0702FF" /><rect x="610.3088198138918" y="280.3088198138918" width="9.382360372216489" height="9.382360372216489" fill="#0702FF" /><rect x="640.0279211778945" y="280.0279211778945" width="9.944157644210982" height="9.944157644210982" fill="#0702FF" /><rect x="668.8475547326614" y="278.84755473266137" width="12.304890534677309" height="12.304890534677309" fill="#0702FF" /><rect x="700.1987057722524" y="280.1987057722525" width="9.602588455495063" height="9.602588455495063" fill="#0702FF" /><rect x="730.9337997873959" y="280.9337997873959" width="8.132400425208225" height="8.132400425208225" fill="#0702FF" /><rect x="759.2416239985934" y="279.24162399859335" width="11.516752002813254" height="11.516752002813254" fill="#0702FF" /><rect x="789.6941449758738" y="279.6941449758737" width="10.611710048252531" height="10.611710048252531" fill="#0702FF" /><rect x="820.2417619531917" y="280.24176195319177" width="9.516476093616465" height="9.516476093616465" fill="#0702FF" /><rect x="850.1140791512883" y="280.1140791512882" width="9.771841697423582" height="9.771841697423582" fill="#0702FF" /><rect x="880.3098247422445" y="280.30982474224453" width="9.38035051551097" height="9.38035051551097" fill="#0702FF" /><rect x="911.1242067876732" y="281.12420678767313" width="7.751586424653732" height="7.751586424653732" fill="#0702FF" /><rect x="941.684843456989" y="281.68484345698903" width="6.630313086021907" height="6.630313086021907" fill="#0702FF" /><rect x="970.901994942917" y="280.90199494291704" width="8.196010114165944" height="8.196010114165944" fill="#0702FF" /><rect x="1001.3282717553894" y="281.32827175538944" width="7.343456489221124" height="7.343456489221124" fill="#0702FF" /><rect x="1031.707591015155" y="281.70759101515495" width="6.584817969690125" height="6.584817969690125" fill="#0702FF" /><rect x="341.1248066439312" y="311.1248066439312" width="7.75038671213761" height="7.75038671213761" fill="#0702FF" /><rect x="370.3917792191285" y="310.3917792191285" width="9.21644156174299" height="9.21644156174299" fill="#0702FF" /><rect x="401.6963768051646" y="311.6963768051646" width="6.607246389670813" height="6.607246389670813" fill="#0702FF" /><rect x="431.46228201125643" y="311.46228201125643" width="7.075435977487109" height="7.075435977487109" fill="#0702FF" /><rect x="461.282249351311" y="311.282249351311" width="7.435501297377995" height="7.435501297377995" fill="#0702FF" /><rect x="491.1541570109411" y="311.1541570109411" width="7.6916859781178335" height="7.6916859781178335" fill="#0702FF" /><rect x="520.7311124435382" y="310.7311124435382" width="8.537775112923567" height="8.537775112923567" fill="#0702FF" /><rect x="549.1066307891182" y="309.1066307891182" width="11.786738421763685" height="11.786738421763685" fill="#0702FF" /><rect x="579.3906502133359" y="309.3906502133359" width="11.218699573328136" height="11.218699573328136" fill="#0702FF" /><rect x="610.5746440435073" y="310.5746440435073" width="8.85071191298534" height="8.85071191298534" fill="#0702FF" /><rect x="640.7795010504092" y="310.7795010504092" width="8.440997899181669" height="8.440997899181669" fill="#0702FF" /><rect x="668.7984168932148" y="308.7984168932148" width="12.403166213570405" height="12.403166213570405" fill="#0702FF" /><rect x="698.0485952966737" y="308.04859529667374" width="13.902809406652512" height="13.902809406652512" fill="#0702FF" /><rect x="730.2858527495968" y="310.2858527495968" width="9.428294500806395" height="9.428294500806395" fill="#0702FF" /><rect x="759.9775207649587" y="309.97752076495874" width="10.044958470082527" height="10.044958470082527" fill="#0702FF" /><rect x="790.2369642759571" y="310.23696427595706" width="9.526071448085833" height="9.526071448085833" fill="#0702FF" /><rect x="822.2202048165449" y="312.2202048165449" width="5.559590366910234" height="5.559590366910234" fill="#0702FF" /><rect x="852.036248420529" y="312.0362484205289" width="5.927503158942137" height="5.927503158942137" fill="#0702FF" /><rect x="882.2570371793186" y="312.2570371793185" width="5.485925641362977" height="5.485925641362977" fill="#0702FF" /><rect x="941.7675695157035" y="311.7675695157034" width="6.464860968593118" height="6.464860968593118" fill="#0702FF" /><rect x="971.7052898745748" y="311.70528987457476" width="6.5894202508505355" height="6.5894202508505355" fill="#0702FF" /><rect x="1061.6880230591853" y="311.68802305918535" width="6.623953881629237" height="6.623953881629237" fill="#0702FF" /><rect x="1092.366187198817" y="312.36618719881693" width="5.267625602366124" height="5.267625602366124" fill="#0702FF" /><rect x="221.96420734627486" y="341.96420734627486" width="6.071585307450256" height="6.071585307450256" fill="#0702FF" /><rect x="252.00270557474508" y="342.00270557474505" width="5.994588850509844" height="5.994588850509844" fill="#0702FF" /><rect x="312.27014418822773" y="342.27014418822773" width="5.459711623544578" height="5.459711623544578" fill="#0702FF" /><rect x="341.4852596160376" y="341.4852596160376" width="7.0294807679248485" height="7.0294807679248485" fill="#0702FF" /><rect x="370.3327268603837" y="340.3327268603837" width="9.334546279232603" height="9.334546279232603" fill="#0702FF" /><rect x="400.7402757127886" y="340.7402757127886" width="8.519448574422803" height="8.519448574422803" fill="#0702FF" /><rect x="431.2167627967912" y="341.2167627967912" width="7.566474406417518" height="7.566474406417518" fill="#0702FF" /><rect x="460.68399638515456" y="340.68399638515456" width="8.632007229690927" height="8.632007229690927" fill="#0702FF" /><rect x="489.30760311924587" y="339.30760311924587" width="11.38479376150822" height="11.38479376150822" fill="#0702FF" /><rect x="520.7222508810983" y="340.72225088109826" width="8.555498237803484" height="8.555498237803484" fill="#0702FF" /><rect x="551.0504687447468" y="341.05046874474675" width="7.899062510506482" height="7.899062510506482" fill="#0702FF" /><rect x="580.1301019188325" y="340.13010191883245" width="9.739796162335086" height="9.739796162335086" fill="#0702FF" /><rect x="608.8471831091226" y="338.8471831091226" width="12.305633781754757" height="12.305633781754757" fill="#0702FF" /><rect x="638.2508728697119" y="338.25087286971194" width="13.498254260576147" height="13.498254260576147" fill="#0702FF" /><rect x="668.1319002784699" y="338.13190027846986" width="13.736199443060244" height="13.736199443060244" fill="#0702FF" /><rect x="699.0225910010466" y="339.0225910010467" width="11.954817997906648" height="11.954817997906648" fill="#0702FF" /><rect x="729.916377753384" y="339.9163777533841" width="10.167244493231845" height="10.167244493231845" fill="#0702FF" /><rect x="759.6045764140256" y="339.6045764140256" width="10.790847171948885" height="10.790847171948885" fill="#0702FF" /><rect x="789.8170044433307" y="339.81700444333063" width="10.36599111333869" height="10.36599111333869" fill="#0702FF" /><rect x="819.4875512127642" y="339.4875512127642" width="11.024897574471659" height="11.024897574471659" fill="#0702FF" /><rect x="851.856286053484" y="341.856286053484" width="6.287427893032012" height="6.287427893032012" fill="#0702FF" /><rect x="881.3789365541098" y="341.3789365541098" width="7.242126891780348" height="7.242126891780348" fill="#0702FF" /><rect x="910.077574702445" y="340.07757470244496" width="9.84485059511007" height="9.84485059511007" fill="#0702FF" /><rect x="941.4892275166266" y="341.48922751662656" width="7.021544966746918" height="7.021544966746918" fill="#0702FF" /><rect x="1031.776197445535" y="341.7761974455349" width="6.447605108930199" height="6.447605108930199" fill="#0702FF" /><rect x="252.44974488423435" y="372.44974488423435" width="5.1005102315313255" height="5.1005102315313255" fill="#0702FF" /><rect x="282.1351234187878" y="372.1351234187878" width="5.729753162424334" height="5.729753162424334" fill="#0702FF" /><rect x="311.9090006484331" y="371.9090006484331" width="6.181998703133765" height="6.181998703133765" fill="#0702FF" /><rect x="341.50982166866345" y="371.50982166866345" width="6.980356662673046" height="6.980356662673046" fill="#0702FF" /><rect x="371.4606673363206" y="371.4606673363206" width="7.078665327358715" height="7.078665327358715" fill="#0702FF" /><rect x="400.7691933926368" y="370.7691933926368" width="8.461613214726444" height="8.461613214726444" fill="#0702FF" /><rect x="430.4244140035256" y="370.4244140035256" width="9.151171992948784" height="9.151171992948784" fill="#0702FF" /><rect x="460.4243194992059" y="370.4243194992059" width="9.15136100158812" height="9.15136100158812" fill="#0702FF" /><rect x="489.278103943445" y="369.278103943445" width="11.443792113109968" height="11.443792113109968" fill="#0702FF" /><rect x="520.1920758364023" y="370.1920758364023" width="9.615848327195357" height="9.615848327195357" fill="#0702FF" /><rect x="549.4238019078315" y="369.42380190783155" width="11.152396184336954" height="11.152396184336954" fill="#0702FF" /><rect x="579.4845769627208" y="369.4845769627207" width="11.030846074558518" height="11.030846074558518" fill="#0702FF" /><rect x="609.0074824784753" y="369.00748247847525" width="11.985035043049443" height="11.985035043049443" fill="#0702FF" /><rect x="638.75" y="368.75" width="12.5" height="12.5" fill="#0702FF" /><rect x="670.2518188299214" y="370.2518188299214" width="9.496362340157248" height="9.496362340157248" fill="#0702FF" /><rect x="699.36092994319" y="369.3609299431899" width="11.278140113620209" height="11.278140113620209" fill="#0702FF" /><rect x="729.9896227501099" y="369.9896227501099" width="10.020754499780137" height="10.020754499780137" fill="#0702FF" /><rect x="760.1473798074592" y="370.1473798074592" width="9.705240385081673" height="9.705240385081673" fill="#0702FF" /><rect x="788.4703616346147" y="368.4703616346148" width="13.059276730770435" height="13.059276730770435" fill="#0702FF" /><rect x="819.7043929326364" y="369.7043929326365" width="10.591214134727013" height="10.591214134727013" fill="#0702FF" /><rect x="852.3549228479096" y="372.3549228479096" width="5.290154304180756" height="5.290154304180756" fill="#0702FF" /><rect x="881.7225243710003" y="371.7225243710003" width="6.554951257999427" height="6.554951257999427" fill="#0702FF" /><rect x="910.5891242681583" y="370.58912426815834" width="8.82175146368335" height="8.82175146368335" fill="#0702FF" /><rect x="941.4363069423957" y="371.4363069423958" width="7.127386115208443" height="7.127386115208443" fill="#0702FF" /><rect x="971.7713877180555" y="371.77138771805545" width="6.457224563889078" height="6.457224563889078" fill="#0702FF" /><rect x="1002.1663207133466" y="372.16632071334664" width="5.667358573306755" height="5.667358573306755" fill="#0702FF" /><rect x="1032.2067458714614" y="372.2067458714614" width="5.586508257077163" height="5.586508257077163" fill="#0702FF" /><rect x="1062.016864422829" y="372.016864422829" width="5.966271154342033" height="5.966271154342033" fill="#0702FF" /><rect x="312.07084267195364" y="402.07084267195364" width="5.858314656092665" height="5.858314656092665" fill="#0702FF" /><rect x="371.37393084850885" y="401.37393084850885" width="7.25213830298236" height="7.25213830298236" fill="#0702FF" /><rect x="400.2733052863986" y="400.2733052863986" width="9.453389427202719" height="9.453389427202719" fill="#0702FF" /><rect x="430.00789076871996" y="400.00789076871996" width="9.984218462560028" height="9.984218462560028" fill="#0702FF" /><rect x="459.90841496083203" y="399.90841496083203" width="10.183170078335936" height="10.183170078335936" fill="#0702FF" /><rect x="490.16555539768547" y="400.16555539768547" width="9.66888920462902" height="9.66888920462902" fill="#0702FF" /><rect x="519.8452553323191" y="399.8452553323191" width="10.309489335361826" height="10.309489335361826" fill="#0702FF" /><rect x="549.3889412364888" y="399.38894123648873" width="11.222117527022514" height="11.222117527022514" fill="#0702FF" /><rect x="578.595150108971" y="398.59515010897104" width="12.809699782057923" height="12.809699782057923" fill="#0702FF" /><rect x="608.9036531877706" y="398.9036531877706" width="12.192693624458826" height="12.192693624458826" fill="#0702FF" /><rect x="638.8648236921313" y="398.8648236921313" width="12.270352615737362" height="12.270352615737362" fill="#0702FF" /><rect x="668.9350949573" y="398.93509495729995" width="12.12981008540008" height="12.12981008540008" fill="#0702FF" /><rect x="699.5975047735119" y="399.59750477351184" width="10.804990452976309" height="10.804990452976309" fill="#0702FF" /><rect x="729.1950046987697" y="399.1950046987697" width="11.609990602460556" height="11.609990602460556" fill="#0702FF" /><rect x="759.7146646795758" y="399.7146646795757" width="10.57067064084855" height="10.57067064084855" fill="#0702FF" /><rect x="790.6720192390073" y="400.67201923900734" width="8.655961521985354" height="8.655961521985354" fill="#0702FF" /><rect x="820.8090535665341" y="400.80905356653403" width="8.381892866931919" height="8.381892866931919" fill="#0702FF" /><rect x="850.442570878102" y="400.44257087810195" width="9.114858243796103" height="9.114858243796103" fill="#0702FF" /><rect x="881.4009501659925" y="401.40095016599247" width="7.19809966801502" height="7.19809966801502" fill="#0702FF" /><rect x="912.2308910307212" y="402.23089103072124" width="5.538217938557555" height="5.538217938557555" fill="#0702FF" /><rect x="941.8046616621614" y="401.8046616621614" width="6.390676675677186" height="6.390676675677186" fill="#0702FF" /><rect x="970.5700267261367" y="400.57002672613675" width="8.859946547726555" height="8.859946547726555" fill="#0702FF" /><rect x="1001.1269997160504" y="401.1269997160504" width="7.746000567899182" height="7.746000567899182" fill="#0702FF" /><rect x="1032.434733824319" y="402.4347338243189" width="5.130532351362172" height="5.130532351362172" fill="#0702FF" /><rect x="1062.3961456319382" y="402.3961456319382" width="5.207708736123575" height="5.207708736123575" fill="#0702FF" /><rect x="192.32072476165789" y="432.3207247616579" width="5.358550476684224" height="5.358550476684224" fill="#0702FF" /><rect x="222.1162559243387" y="432.1162559243387" width="5.767488151322592" height="5.767488151322592" fill="#0702FF" /><rect x="252.3907055507132" y="432.39070555071316" width="5.2185888985736195" height="5.2185888985736195" fill="#0702FF" /><rect x="281.35335549564047" y="431.35335549564047" width="7.2932890087190945" height="7.2932890087190945" fill="#0702FF" /><rect x="310.8841063656981" y="430.8841063656981" width="8.231787268603856" height="8.231787268603856" fill="#0702FF" /><rect x="341.4723248866382" y="431.4723248866382" width="7.055350226723537" height="7.055350226723537" fill="#0702FF" /><rect x="371.48884041035166" y="431.48884041035166" width="7.022319179296652" height="7.022319179296652" fill="#0702FF" /><rect x="401.155606097825" y="431.155606097825" width="7.68878780435001" height="7.68878780435001" fill="#0702FF" /><rect x="431.8151039806757" y="431.8151039806757" width="6.369792038648647" height="6.369792038648647" fill="#0702FF" /><rect x="460.62963732380217" y="430.62963732380217" width="8.740725352395684" height="8.740725352395684" fill="#0702FF" /><rect x="490.80428799728645" y="430.80428799728645" width="8.391424005427057" height="8.391424005427057" fill="#0702FF" /><rect x="521.3089510061975" y="431.30895100619756" width="7.3820979876048884" height="7.3820979876048884" fill="#0702FF" /><rect x="551.4816731900048" y="431.48167319000476" width="7.036653619990478" height="7.036653619990478" fill="#0702FF" /><rect x="581.6362478060545" y="431.6362478060545" width="6.7275043878909955" height="6.7275043878909955" fill="#0702FF" /><rect x="610.6086864403508" y="430.60868644035077" width="8.782627119298455" height="8.782627119298455" fill="#0702FF" /><rect x="637.809534180584" y="427.80953418058397" width="14.380931638832042" height="14.380931638832042" fill="#0702FF" /><rect x="665.9735109788355" y="425.9735109788355" width="18.052978042328913" height="18.052978042328913" fill="#0702FF" /><rect x="697.9400073241568" y="427.94000732415685" width="14.11998535168631" height="14.11998535168631" fill="#0702FF" /><rect x="729.80614775017" y="429.80614775017006" width="10.387704499659943" height="10.387704499659943" fill="#0702FF" /><rect x="760.0924150048303" y="430.09241500483034" width="9.815169990339326" height="9.815169990339326" fill="#0702FF" /><rect x="791.2976896680788" y="431.2976896680787" width="7.404620663842572" height="7.404620663842572" fill="#0702FF" /><rect x="821.892696659735" y="431.89269665973495" width="6.214606680530107" height="6.214606680530107" fill="#0702FF" /><rect x="850.3617471375243" y="430.3617471375242" width="9.27650572495152" height="9.27650572495152" fill="#0702FF" /><rect x="880.9359578647894" y="430.93595786478943" width="8.12808427042119" height="8.12808427042119" fill="#0702FF" /><rect x="942.4416824322573" y="432.44168243225727" width="5.116635135485431" height="5.116635135485431" fill="#0702FF" /><rect x="972.2944132233083" y="432.29441322330837" width="5.4111735533833" height="5.4111735533833" fill="#0702FF" /><rect x="1002.1537949260509" y="432.15379492605086" width="5.692410147898213" height="5.692410147898213" fill="#0702FF" /><rect x="1032.194229014301" y="432.19422901430096" width="5.6115419713980845" height="5.6115419713980845" fill="#0702FF" /><rect x="1062.3875161236335" y="432.38751612363353" width="5.224967752732885" height="5.224967752732885" fill="#0702FF" /><rect x="1092.4287315032586" y="432.4287315032586" width="5.1425369934828655" height="5.1425369934828655" fill="#0702FF" /><rect x="311.9653021004268" y="461.9653021004268" width="6.069395799146404" height="6.069395799146404" fill="#0702FF" /><rect x="341.88682588034044" y="461.88682588034044" width="6.226348239319121" height="6.226348239319121" fill="#0702FF" /><rect x="372.47373432366584" y="462.47373432366584" width="5.0525313526683" height="5.0525313526683" fill="#0702FF" /><rect x="460.6003256535996" y="460.6003256535996" width="8.799348692800766" height="8.799348692800766" fill="#0702FF" /><rect x="488.65062960608617" y="458.65062960608617" width="12.698740787827699" height="12.698740787827699" fill="#0702FF" /><rect x="519.3785989054454" y="459.37859890544536" width="11.242802189109275" height="11.242802189109275" fill="#0702FF" /><rect x="550.4674432071306" y="460.4674432071306" width="9.065113585738859" height="9.065113585738859" fill="#0702FF" /><rect x="579.6122145189311" y="459.612214518931" width="10.775570962137968" height="10.775570962137968" fill="#0702FF" /><rect x="609.4313088848082" y="459.43130888480823" width="11.137382230383507" height="11.137382230383507" fill="#0702FF" /><rect x="640.209198800869" y="460.209198800869" width="9.58160239826205" height="9.58160239826205" fill="#0702FF" /><rect x="670.7245746632873" y="460.7245746632873" width="8.550850673425465" height="8.550850673425465" fill="#0702FF" /><rect x="702.263665261094" y="462.26366526109405" width="5.472669477811914" height="5.472669477811914" fill="#0702FF" /><rect x="731.6987414162375" y="461.69874141623745" width="6.602517167525104" height="6.602517167525104" fill="#0702FF" /><rect x="759.9894560242905" y="459.98945602429046" width="10.021087951419062" height="10.021087951419062" fill="#0702FF" /><rect x="790.7463445499396" y="460.7463445499397" width="8.507310900120636" height="8.507310900120636" fill="#0702FF" /><rect x="819.7694154831643" y="459.7694154831643" width="10.461169033671396" height="10.461169033671396" fill="#0702FF" /><rect x="849.2810803706573" y="459.28108037065726" width="11.43783925868549" height="11.43783925868549" fill="#0702FF" /><rect x="879.3897519290961" y="459.389751929096" width="11.220496141807953" height="11.220496141807953" fill="#0702FF" /><rect x="909.7784110152193" y="459.7784110152192" width="10.443177969561585" height="10.443177969561585" fill="#0702FF" /><rect x="940.5475295844765" y="460.5475295844765" width="8.9049408310471" height="8.9049408310471" fill="#0702FF" /><rect x="971.5013012545706" y="461.50130125457065" width="6.997397490858745" height="6.997397490858745" fill="#0702FF" /><rect x="222.4050943312048" y="492.4050943312048" width="5.1898113375904025" height="5.1898113375904025" fill="#0702FF" /><rect x="251.39878157322937" y="491.39878157322937" width="7.202436853541286" height="7.202436853541286" fill="#0702FF" /><rect x="281.6998190094566" y="491.6998190094566" width="6.600361981086866" height="6.600361981086866" fill="#0702FF" /><rect x="312.0559006560301" y="492.0559006560301" width="5.8881986879399015" height="5.8881986879399015" fill="#0702FF" /><rect x="341.55265500753126" y="491.55265500753126" width="6.894689984937498" height="6.894689984937498" fill="#0702FF" /><rect x="370.7458322095148" y="490.7458322095148" width="8.50833558097047" height="8.50833558097047" fill="#0702FF" /><rect x="400.50595133755263" y="490.50595133755263" width="8.988097324894728" height="8.988097324894728" fill="#0702FF" /><rect x="430.9097927579032" y="490.9097927579032" width="8.180414484193674" height="8.180414484193674" fill="#0702FF" /><rect x="459.29440005878473" y="489.29440005878473" width="11.411199882430541" height="11.411199882430541" fill="#0702FF" /><rect x="489.0058884835518" y="489.0058884835518" width="11.988223032896352" height="11.988223032896352" fill="#0702FF" /><rect x="520.8763908202225" y="490.87639082022247" width="8.247218359555097" height="8.247218359555097" fill="#0702FF" /><rect x="551.2009358002156" y="491.2009358002156" width="7.598128399568795" height="7.598128399568795" fill="#0702FF" /><rect x="579.1080612628105" y="489.10806126281045" width="11.78387747437908" height="11.78387747437908" fill="#0702FF" /><rect x="608.4988376685266" y="488.49883766852656" width="13.002324662946837" height="13.002324662946837" fill="#0702FF" /><rect x="641.2592387428055" y="491.2592387428055" width="7.481522514389024" height="7.481522514389024" fill="#0702FF" /><rect x="671.3748096524853" y="491.3748096524853" width="7.250380695029394" height="7.250380695029394" fill="#0702FF" /><rect x="699.2741905948836" y="489.27419059488363" width="11.451618810232722" height="11.451618810232722" fill="#0702FF" /><rect x="729.3945051513758" y="489.3945051513759" width="11.210989697248271" height="11.210989697248271" fill="#0702FF" /><rect x="760.4045629714338" y="490.4045629714338" width="9.190874057132389" height="9.190874057132389" fill="#0702FF" /><rect x="791.5418713192375" y="491.5418713192375" width="6.916257361525021" height="6.916257361525021" fill="#0702FF" /><rect x="821.4517155524156" y="491.4517155524157" width="7.09656889516865" height="7.09656889516865" fill="#0702FF" /><rect x="851.9981569991338" y="491.99815699913376" width="6.003686001732451" height="6.003686001732451" fill="#0702FF" /><rect x="911.4379984479837" y="491.43799844798366" width="7.1240031040327345" height="7.1240031040327345" fill="#0702FF" /><rect x="941.8063490846565" y="491.80634908465646" width="6.387301830687033" height="6.387301830687033" fill="#0702FF" /><rect x="972.2303601872079" y="492.2303601872079" width="5.5392796255842285" height="5.5392796255842285" fill="#0702FF" /><rect x="1001.6522676418343" y="491.6522676418343" width="6.695464716331351" height="6.695464716331351" fill="#0702FF" /><rect x="1032.2022777170157" y="492.20227771701576" width="5.595444565968464" height="5.595444565968464" fill="#0702FF" /><rect x="282.0041384901702" y="522.0041384901701" width="5.991723019659625" height="5.991723019659625" fill="#0702FF" /><rect x="311.66940903616" y="521.66940903616" width="6.661181927679932" height="6.661181927679932" fill="#0702FF" /><rect x="342.1819805057347" y="522.1819805057347" width="5.636038988530572" height="5.636038988530572" fill="#0702FF" /><rect x="371.73183387777647" y="521.7318338777765" width="6.536332244447113" height="6.536332244447113" fill="#0702FF" /><rect x="401.53768812760865" y="521.5376881276087" width="6.924623744782677" height="6.924623744782677" fill="#0702FF" /><rect x="431.82037148935535" y="521.8203714893554" width="6.359257021289279" height="6.359257021289279" fill="#0702FF" /><rect x="461.3128567694208" y="521.3128567694208" width="7.374286461158384" height="7.374286461158384" fill="#0702FF" /><rect x="490.479902614881" y="520.479902614881" width="9.040194770238035" height="9.040194770238035" fill="#0702FF" /><rect x="520.0483362524257" y="520.0483362524257" width="9.903327495148654" height="9.903327495148654" fill="#0702FF" /><rect x="549.4277009741737" y="519.4277009741737" width="11.144598051652551" height="11.144598051652551" fill="#0702FF" /><rect x="579.7430889666426" y="519.7430889666426" width="10.51382206671475" height="10.51382206671475" fill="#0702FF" /><rect x="609.130137346863" y="519.130137346863" width="11.739725306273963" height="11.739725306273963" fill="#0702FF" /><rect x="639.5656307279155" y="519.5656307279155" width="10.868738544168972" height="10.868738544168972" fill="#0702FF" /><rect x="669.6819844192042" y="519.6819844192042" width="10.636031161591491" height="10.636031161591491" fill="#0702FF" /><rect x="699.4712916927526" y="519.4712916927526" width="11.057416614494809" height="11.057416614494809" fill="#0702FF" /><rect x="730.8783166836296" y="520.8783166836296" width="8.243366632740807" height="8.243366632740807" fill="#0702FF" /><rect x="760.4181470546939" y="520.4181470546939" width="9.163705890612242" height="9.163705890612242" fill="#0702FF" /><rect x="790.5484425670273" y="520.5484425670273" width="8.903114865945414" height="8.903114865945414" fill="#0702FF" /><rect x="820.6556863506598" y="520.6556863506598" width="8.688627298680363" height="8.688627298680363" fill="#0702FF" /><rect x="850.019159294836" y="520.019159294836" width="9.961681410328083" height="9.961681410328083" fill="#0702FF" /><rect x="881.2244062839779" y="521.2244062839779" width="7.551187432044133" height="7.551187432044133" fill="#0702FF" /><rect x="911.8729071306817" y="521.8729071306817" width="6.254185738636593" height="6.254185738636593" fill="#0702FF" /><rect x="971.6823384691365" y="521.6823384691365" width="6.6353230617270285" height="6.6353230617270285" fill="#0702FF" /><rect x="1001.478492359592" y="521.478492359592" width="7.0430152808160145" height="7.0430152808160145" fill="#0702FF" /><rect x="282.36579858003364" y="552.3657985800336" width="5.268402839932726" height="5.268402839932726" fill="#0702FF" /><rect x="312.1277023012966" y="552.1277023012966" width="5.744595397406748" height="5.744595397406748" fill="#0702FF" /><rect x="342.3225811850922" y="552.3225811850922" width="5.354837629815664" height="5.354837629815664" fill="#0702FF" /><rect x="400.7434047841519" y="550.743404784152" width="8.513190431696202" height="8.513190431696202" fill="#0702FF" /><rect x="429.76492033034737" y="549.7649203303474" width="10.470159339305251" height="10.470159339305251" fill="#0702FF" /><rect x="461.76277123737117" y="551.7627712373711" width="6.474457525257698" height="6.474457525257698" fill="#0702FF" /><rect x="520.4229878136975" y="550.4229878136975" width="9.154024372604848" height="9.154024372604848" fill="#0702FF" /><rect x="550.8462296341544" y="550.8462296341544" width="8.307540731691164" height="8.307540731691164" fill="#0702FF" /><rect x="580.325759157379" y="550.325759157379" width="9.348481685241971" height="9.348481685241971" fill="#0702FF" /><rect x="609.7421971815379" y="549.7421971815379" width="10.515605636924118" height="10.515605636924118" fill="#0702FF" /><rect x="640.4244689169543" y="550.4244689169543" width="9.151062166091371" height="9.151062166091371" fill="#0702FF" /><rect x="670.3742143713234" y="550.3742143713234" width="9.25157125735304" height="9.25157125735304" fill="#0702FF" /><rect x="700.5511178421151" y="550.5511178421151" width="8.89776431576982" height="8.89776431576982" fill="#0702FF" /><rect x="730.4734125633452" y="550.4734125633452" width="9.05317487330962" height="9.05317487330962" fill="#0702FF" /><rect x="760.782636985195" y="550.782636985195" width="8.434726029609955" height="8.434726029609955" fill="#0702FF" /><rect x="791.058663954496" y="551.058663954496" width="7.882672091008084" height="7.882672091008084" fill="#0702FF" /><rect x="821.2639517204941" y="551.2639517204941" width="7.472096559011868" height="7.472096559011868" fill="#0702FF" /><rect x="851.5062685388908" y="551.5062685388908" width="6.98746292221835" height="6.98746292221835" fill="#0702FF" /><rect x="882.057369558376" y="552.057369558376" width="5.8852608832479625" height="5.8852608832479625" fill="#0702FF" /><rect x="911.1390260018686" y="551.1390260018686" width="7.721947996262875" height="7.721947996262875" fill="#0702FF" /><rect x="941.9714660848581" y="551.9714660848581" width="6.057067830283806" height="6.057067830283806" fill="#0702FF" /><rect x="972.2226293316301" y="552.2226293316301" width="5.554741336739852" height="5.554741336739852" fill="#0702FF" /><rect x="1032.4600910835031" y="552.4600910835032" width="5.07981783299355" height="5.07981783299355" fill="#0702FF" /><rect x="282.1782528246999" y="582.1782528246999" width="5.643494350600196" height="5.643494350600196" fill="#0702FF" /><rect x="312.3282742076068" y="582.3282742076068" width="5.343451584786433" height="5.343451584786433" fill="#0702FF" /><rect x="341.41161308828555" y="581.4116130882855" width="7.176773823428864" height="7.176773823428864" fill="#0702FF" /><rect x="371.7388797759162" y="581.7388797759162" width="6.522240448167583" height="6.522240448167583" fill="#0702FF" /><rect x="402.17348614617106" y="582.1734861461711" width="5.6530277076578805" height="5.6530277076578805" fill="#0702FF" /><rect x="430.69159868749153" y="580.6915986874916" width="8.61680262501691" height="8.61680262501691" fill="#0702FF" /><rect x="461.19987127662415" y="581.1998712766242" width="7.600257446751678" height="7.600257446751678" fill="#0702FF" /><rect x="491.92606310307787" y="581.9260631030778" width="6.1478737938442904" height="6.1478737938442904" fill="#0702FF" /><rect x="520.3345601328135" y="580.3345601328135" width="9.330879734373063" height="9.330879734373063" fill="#0702FF" /><rect x="550.0766367147726" y="580.0766367147726" width="9.846726570454948" height="9.846726570454948" fill="#0702FF" /><rect x="580.2938260698774" y="580.2938260698774" width="9.412347860245237" height="9.412347860245237" fill="#0702FF" /><rect x="609.2479180786667" y="579.2479180786667" width="11.504163842666735" height="11.504163842666735" fill="#0702FF" /><rect x="640.2115856444698" y="580.2115856444698" width="9.576828711060557" height="9.576828711060557" fill="#0702FF" /><rect x="671.2004936132154" y="581.2004936132154" width="7.599012773569211" height="7.599012773569211" fill="#0702FF" /><rect x="700.1286204313358" y="580.1286204313358" width="9.74275913732834" height="9.74275913732834" fill="#0702FF" /><rect x="729.7202440220537" y="579.7202440220537" width="10.55951195589246" height="10.55951195589246" fill="#0702FF" /><rect x="760.2805250072381" y="580.2805250072381" width="9.438949985523882" height="9.438949985523882" fill="#0702FF" /><rect x="790.4679377844894" y="580.4679377844894" width="9.064124431021103" height="9.064124431021103" fill="#0702FF" /><rect x="821.16023885999" y="581.16023885999" width="7.679522280019842" height="7.679522280019842" fill="#0702FF" /><rect x="852.1397964902576" y="582.1397964902576" width="5.720407019484698" height="5.720407019484698" fill="#0702FF" /><rect x="881.618776889088" y="581.618776889088" width="6.762446221823945" height="6.762446221823945" fill="#0702FF" /><rect x="912.1568506987927" y="582.1568506987927" width="5.68629860241459" height="5.68629860241459" fill="#0702FF" /><rect x="941.5080516672523" y="581.5080516672523" width="6.9838966654954895" height="6.9838966654954895" fill="#0702FF" /><rect x="342.34583941418657" y="612.3458394141866" width="5.308321171626904" height="5.308321171626904" fill="#0702FF" /><rect x="371.5964682979312" y="611.5964682979312" width="6.8070634041375495" height="6.8070634041375495" fill="#0702FF" /><rect x="431.6741708108429" y="611.6741708108428" width="6.651658378314217" height="6.651658378314217" fill="#0702FF" /><rect x="462.1105961714962" y="612.1105961714962" width="5.778807657007597" height="5.778807657007597" fill="#0702FF" /><rect x="521.0369554909735" y="611.0369554909735" width="7.926089018053034" height="7.926089018053034" fill="#0702FF" /><rect x="550.8410235246226" y="610.8410235246226" width="8.31795295075473" height="8.31795295075473" fill="#0702FF" /><rect x="580.3869909247799" y="610.3869909247799" width="9.22601815044021" height="9.22601815044021" fill="#0702FF" /><rect x="609.8752264200785" y="609.8752264200785" width="10.249547159842926" height="10.249547159842926" fill="#0702FF" /><rect x="641.8132035844914" y="611.8132035844914" width="6.373592831017307" height="6.373592831017307" fill="#0702FF" /><rect x="732.3822830384731" y="612.3822830384731" width="5.235433923053817" height="5.235433923053817" fill="#0702FF" /><rect x="761.0445518893904" y="611.0445518893904" width="7.910896221219279" height="7.910896221219279" fill="#0702FF" /><rect x="791.3453123283255" y="611.3453123283255" width="7.309375343348959" height="7.309375343348959" fill="#0702FF" /><rect x="821.2729955780205" y="611.2729955780205" width="7.454008843959032" height="7.454008843959032" fill="#0702FF" /><rect x="851.8149507330925" y="611.8149507330925" width="6.370098533815051" height="6.370098533815051" fill="#0702FF" /><rect x="911.7979601832898" y="611.7979601832898" width="6.404079633420407" height="6.404079633420407" fill="#0702FF" /><rect x="282.45758872116295" y="642.457588721163" width="5.084822557674055" height="5.084822557674055" fill="#0702FF" /><rect x="342.1955500834705" y="642.1955500834705" width="5.60889983305902" height="5.60889983305902" fill="#0702FF" /><rect x="370.9282750552851" y="640.9282750552851" width="8.143449889429808" height="8.143449889429808" fill="#0702FF" /><rect x="401.3182730443602" y="641.3182730443602" width="7.3634539112796205" height="7.3634539112796205" fill="#0702FF" /><rect x="431.3208449585103" y="641.3208449585103" width="7.3583100829794255" height="7.3583100829794255" fill="#0702FF" /><rect x="461.30257144667416" y="641.3025714466742" width="7.3948571066516795" height="7.3948571066516795" fill="#0702FF" /><rect x="491.68671524118935" y="641.6867152411894" width="6.626569517621265" height="6.626569517621265" fill="#0702FF" /><rect x="521.5909082752918" y="641.5909082752918" width="6.818183449416436" height="6.818183449416436" fill="#0702FF" /><rect x="551.9053433908094" y="641.9053433908094" width="6.189313218381166" height="6.189313218381166" fill="#0702FF" /><rect x="581.577257940532" y="641.577257940532" width="6.84548411893582" height="6.84548411893582" fill="#0702FF" /><rect x="610.6928823982386" y="640.6928823982386" width="8.614235203522911" height="8.614235203522911" fill="#0702FF" /><rect x="641.7180208333193" y="641.7180208333193" width="6.563958333361427" height="6.563958333361427" fill="#0702FF" /><rect x="671.9014912258168" y="641.9014912258168" width="6.197017548366418" height="6.197017548366418" fill="#0702FF" /><rect x="700.5912249557315" y="640.5912249557315" width="8.817550088537025" height="8.817550088537025" fill="#0702FF" /><rect x="730.8981941540898" y="640.8981941540898" width="8.203611691820473" height="8.203611691820473" fill="#0702FF" /><rect x="761.1665764669084" y="641.1665764669084" width="7.66684706618314" height="7.66684706618314" fill="#0702FF" /><rect x="790.9436546256729" y="640.9436546256729" width="8.112690748654193" height="8.112690748654193" fill="#0702FF" /><rect x="821.0854184708343" y="641.0854184708343" width="7.829163058331368" height="7.829163058331368" fill="#0702FF" /><rect x="851.7939415862548" y="641.7939415862548" width="6.412116827490321" height="6.412116827490321" fill="#0702FF" /><rect x="882.0408652072467" y="642.0408652072467" width="5.918269585506474" height="5.918269585506474" fill="#0702FF" /><rect x="911.3172778442012" y="641.3172778442012" width="7.365444311597578" height="7.365444311597578" fill="#0702FF" /><rect x="941.7506790411485" y="641.7506790411485" width="6.498641917703036" height="6.498641917703036" fill="#0702FF" /><rect x="972.0353399276406" y="642.0353399276406" width="5.929320144718837" height="5.929320144718837" fill="#0702FF" /><rect x="312.42441088509116" y="672.4244108850912" width="5.151178229817635" height="5.151178229817635" fill="#0702FF" /><rect x="462.43759489603156" y="672.4375948960316" width="5.124810207936832" height="5.124810207936832" fill="#0702FF" /><rect x="491.40082004210853" y="671.4008200421085" width="7.198359915782923" height="7.198359915782923" fill="#0702FF" /><rect x="521.7535086522957" y="671.7535086522957" width="6.492982695408502" height="6.492982695408502" fill="#0702FF" /><rect x="552.4531204330776" y="672.4531204330776" width="5.09375913384482" height="5.09375913384482" fill="#0702FF" /><rect x="610.9616089683898" y="670.9616089683898" width="8.07678206322033" height="8.07678206322033" fill="#0702FF" /><rect x="640.6682501831688" y="670.6682501831688" width="8.66349963366242" height="8.66349963366242" fill="#0702FF" /><rect x="671.9909389429354" y="671.9909389429354" width="6.018122114129305" height="6.018122114129305" fill="#0702FF" /><rect x="701.5073723597582" y="671.5073723597582" width="6.985255280483678" height="6.985255280483678" fill="#0702FF" /><rect x="731.7920490632952" y="671.7920490632952" width="6.4159018734097515" height="6.4159018734097515" fill="#0702FF" /><rect x="882.3725315793655" y="672.3725315793655" width="5.254936841268991" height="5.254936841268991" fill="#0702FF" /><rect x="912.4299152776853" y="672.4299152776853" width="5.140169444629349" height="5.140169444629349" fill="#0702FF" /><rect x="1002.2186146976208" y="672.2186146976208" width="5.562770604758461" height="5.562770604758461" fill="#0702FF" /><rect x="431.91394279628804" y="701.9139427962881" width="6.172114407423896" height="6.172114407423896" fill="#0702FF" /><rect x="522.4540909973608" y="702.4540909973608" width="5.091818005278373" height="5.091818005278373" fill="#0702FF" /><rect x="551.6695621001116" y="701.6695621001116" width="6.660875799776596" height="6.660875799776596" fill="#0702FF" /><rect x="581.4727438329105" y="701.4727438329105" width="7.054512334179034" height="7.054512334179034" fill="#0702FF" /><rect x="611.2145526686083" y="701.2145526686083" width="7.570894662783232" height="7.570894662783232" fill="#0702FF" /><rect x="641.7123394780959" y="701.7123394780959" width="6.575321043808092" height="6.575321043808092" fill="#0702FF" /><rect x="671.9450568201886" y="701.9450568201886" width="6.109886359622838" height="6.109886359622838" fill="#0702FF" /><rect x="701.7373010092318" y="701.7373010092318" width="6.525397981536296" height="6.525397981536296" fill="#0702FF" /><rect x="731.5729056940387" y="701.5729056940387" width="6.8541886119226305" height="6.8541886119226305" fill="#0702FF" /><rect x="761.4593092581028" y="701.4593092581028" width="7.081381483794342" height="7.081381483794342" fill="#0702FF" /><rect x="822.3583938413707" y="702.3583938413707" width="5.283212317258577" height="5.283212317258577" fill="#0702FF" /><rect x="851.4678435507718" y="701.4678435507718" width="7.064312898456469" height="7.064312898456469" fill="#0702FF" /><line x1="0" y1="0" x2="1260" y2="0" stroke="#D3D3D3" stroke-width="1" /><line x1="0" y1="30" x2="1260" y2="30" stroke="#D3D3D3" stroke-width="1" /><line x1="0" y1="60" x2="1260" y2="60" stroke="#D3D3D3" stroke-width="1" /><line x1="0" y1="90" x2="1260" y2="90" stroke="#D3D3D3" stroke-width="1" /><line x1="0" y1="120" x2="1260" y2="120" stroke="#D3D3D3" stroke-width="1" /><line x1="0" y1="150" x2="1260" y2="150" stroke="#D3D3D3" stroke-width="1" /><line x1="0" y1="180" x2="1260" y2="180" stroke="#D3D3D3" stroke-width="1" /><line x1="0" y1="210" x2="1260" y2="210" stroke="#D3D3D3" stroke-width="1" /><line x1="0" y1="240" x2="1260" y2="240" stroke="#D3D3D3" stroke-width="1" /><line x1="0" y1="270" x2="1260" y2="270" stroke="#D3D3D3" stroke-width="1" /><line x1="0" y1="300" x2="1260" y2="300" stroke="#D3D3D3" stroke-width="1" /><line x1="0" y1="330" x2="1260" y2="330" stroke="#D3D3D3" stroke-width="1" /><line x1="0" y1="360" x2="1260" y2="360" stroke="#D3D3D3" stroke-width="1" /><line x1="0" y1="390" x2="1260" y2="390" stroke="#D3D3D3" stroke-width="1" /><line x1="0" y1="420" x2="1260" y2="420" stroke="#D3D3D3" stroke-width="1" /><line x1="0" y1="450" x2="1260" y2="450" stroke="#D3D3D3" stroke-width="1" /><line x1="0" y1="480" x2="1260" y2="480" stroke="#D3D3D3" stroke-width="1" /><line x1="0" y1="510" x2="1260" y2="510" stroke="#D3D3D3" stroke-width="1" /><line x1="0" y1="540" x2="1260" y2="540" stroke="#D3D3D3" stroke-width="1" /><line x1="0" y1="570" x2="1260" y2="570" stroke="#D3D3D3" stroke-width="1" /><line x1="0" y1="600" x2="1260" y2="600" stroke="#D3D3D3" stroke-width="1" /><line x1="0" y1="630" x2="1260" y2="630" stroke="#D3D3D3" stroke-width="1" /><line x1="0" y1="660" x2="1260" y2="660" stroke="#D3D3D3" stroke-width="1" /><line x1="0" y1="690" x2="1260" y2="690" stroke="#D3D3D3" stroke-width="1" /><line x1="0" y1="720" x2="1260" y2="720" stroke="#D3D3D3" stroke-width="1" /><line x1="0" y1="0" x2="0" y2="720" stroke="#D3D3D3" stroke-width="1" /><line x1="30" y1="0" x2="30" y2="720" stroke="#D3D3D3" stroke-width="1" /><line x1="60" y1="0" x2="60" y2="720" stroke="#D3D3D3" stroke-width="1" /><line x1="90" y1="0" x2="90" y2="720" stroke="#D3D3D3" stroke-width="1" /><line x1="120" y1="0" x2="120" y2="720" stroke="#D3D3D3" stroke-width="1" /><line x1="150" y1="0" x2="150" y2="720" stroke="#D3D3D3" stroke-width="1" /><line x1="180" y1="0" x2="180" y2="720" stroke="#D3D3D3" stroke-width="1" /><line x1="210" y1="0" x2="210" y2="720" stroke="#D3D3D3" stroke-width="1" /><line x1="240" y1="0" x2="240" y2="720" stroke="#D3D3D3" stroke-width="1" /><line x1="270" y1="0" x2="270" y2="720" stroke="#D3D3D3" stroke-width="1" /><line x1="300" y1="0" x2="300" y2="720" stroke="#D3D3D3" stroke-width="1" /><line x1="330" y1="0" x2="330" y2="720" stroke="#D3D3D3" stroke-width="1" /><line x1="360" y1="0" x2="360" y2="720" stroke="#D3D3D3" stroke-width="1" /><line x1="390" y1="0" x2="390" y2="720" stroke="#D3D3D3" stroke-width="1" /><line x1="420" y1="0" x2="420" y2="720" stroke="#D3D3D3" stroke-width="1" /><line x1="450" y1="0" x2="450" y2="720" stroke="#D3D3D3" stroke-width="1" /><line x1="480" y1="0" x2="480" y2="720" stroke="#D3D3D3" stroke-width="1" /><line x1="510" y1="0" x2="510" y2="720" stroke="#D3D3D3" stroke-width="1" /><line x1="540" y1="0" x2="540" y2="720" stroke="#D3D3D3" stroke-width="1" /><line x1="570" y1="0" x2="570" y2="720" stroke="#D3D3D3" stroke-width="1" /><line x1="600" y1="0" x2="600" y2="720" stroke="#D3D3D3" stroke-width="1" /><line x1="630" y1="0" x2="630" y2="720" stroke="#D3D3D3" stroke-width="1" /><line x1="660" y1="0" x2="660" y2="720" stroke="#D3D3D3" stroke-width="1" /><line x1="690" y1="0" x2="690" y2="720" stroke="#D3D3D3" stroke-width="1" /><line x1="720" y1="0" x2="720" y2="720" stroke="#D3D3D3" stroke-width="1" /><line x1="750" y1="0" x2="750" y2="720" stroke="#D3D3D3" stroke-width="1" /><line x1="780" y1="0" x2="780" y2="720" stroke="#D3D3D3" stroke-width="1" /><line x1="810" y1="0" x2="810" y2="720" stroke="#D3D3D3" stroke-width="1" /><line x1="840" y1="0" x2="840" y2="720" stroke="#D3D3D3" stroke-width="1" /><line x1="870" y1="0" x2="870" y2="720" stroke="#D3D3D3" stroke-width="1" /><line x1="900" y1="0" x2="900" y2="720" stroke="#D3D3D3" stroke-width="1" /><line x1="930" y1="0" x2="930" y2="720" stroke="#D3D3D3" stroke-width="1" /><line x1="960" y1="0" x2="960" y2="720" stroke="#D3D3D3" stroke-width="1" /><line x1="990" y1="0" x2="990" y2="720" stroke="#D3D3D3" stroke-width="1" /><line x1="1020" y1="0" x2="1020" y2="720" stroke="#D3D3D3" stroke-width="1" /><line x1="1050" y1="0" x2="1050" y2="720" stroke="#D3D3D3" stroke-width="1" /><line x1="1080" y1="0" x2="1080" y2="720" stroke="#D3D3D3" stroke-width="1" /><line x1="1110" y1="0" x2="1110" y2="720" stroke="#D3D3D3" stroke-width="1" /><line x1="1140" y1="0" x2="1140" y2="720" stroke="#D3D3D3" stroke-width="1" /><line x1="1170" y1="0" x2="1170" y2="720" stroke="#D3D3D3" stroke-width="1" /><line x1="1200" y1="0" x2="1200" y2="720" stroke="#D3D3D3" stroke-width="1" /><line x1="1230" y1="0" x2="1230" y2="720" stroke="#D3D3D3" stroke-width="1" /><line x1="1260" y1="0" x2="1260" y2="720" stroke="#D3D3D3" stroke-width="1" /></svg>