<svg width="1260" height="720" xmlns="http://www.w3.org/2000/svg"><rect x="490.89850113842107" y="10.89850113842106" width="8.202997723157877" height="8.202997723157877" fill="#0702FF" /><rect x="546.7929787008425" y="6.792978700842459" width="16.41404259831508" height="16.41404259831508" fill="#0702FF" /><rect x="578.5919616219596" y="8.591961621959578" width="12.816076756080843" height="12.816076756080843" fill="#0702FF" /><rect x="696.7714799779046" y="36.771479977904605" width="16.457040044190787" height="16.457040044190787" fill="#0702FF" /><rect x="972.3292070309783" y="42.329207030978324" width="5.341585938043348" height="5.341585938043348" fill="#0702FF" /><rect x="1030.4787061348045" y="40.47870613480453" width="9.042587730390931" height="9.042587730390931" fill="#0702FF" /><rect x="486.44366393534267" y="66.44366393534266" width="17.112672129314692" height="17.112672129314692" fill="#0702FF" /><rect x="545.5813294711837" y="65.58132947118376" width="18.83734105763248" height="18.83734105763248" fill="#0702FF" /><rect x="635.7965083404397" y="65.79650834043969" width="18.406983319120616" height="18.406983319120616" fill="#0702FF" /><rect x="667.7850407608493" y="67.78504076084927" width="14.42991847830146" height="14.42991847830146" fill="#0702FF" /><rect x="696.8531381184722" y="66.85313811847226" width="16.293723763055485" height="16.293723763055485" fill="#0702FF" /><rect x="726.3223895526236" y="66.32238955262358" width="17.355220894752858" height="17.355220894752858" fill="#0702FF" /><rect x="906.8508867715964" y="66.85088677159636" width="16.29822645680728" height="16.29822645680728" fill="#0702FF" /><rect x="72.21416050349912" y="102.21416050349912" width="5.571678993001765" height="5.571678993001765" fill="#0702FF" /><rect x="368.82900595329306" y="98.82900595329306" width="12.341988093413889" height="12.341988093413889" fill="#0702FF" /><rect x="518.3777732803816" y="98.3777732803816" width="13.244453439236793" height="13.244453439236793" fill="#0702FF" /><rect x="634.575909469648" y="94.57590946964798" width="20.848181060704036" height="20.848181060704036" fill="#0702FF" /><rect x="845.7184275097769" y="95.7184275097769" width="18.5631449804462" height="18.5631449804462" fill="#0702FF" /><rect x="1241.787692864704" y="101.78769286470397" width="6.42461427059207" height="6.42461427059207" fill="#0702FF" /><rect x="248.9076663672313" y="128.9076663672313" width="12.184667265537417" height="12.184667265537417" fill="#0702FF" /><rect x="457.8002724738679" y="127.80027247386789" width="14.399455052264202" height="14.399455052264202" fill="#0702FF" /><rect x="577.0968844111926" y="127.09688441119259" width="15.806231177614823" height="15.806231177614823" fill="#0702FF" /><rect x="636.4025316460209" y="126.40253164602083" width="17.194936707958348" height="17.194936707958348" fill="#0702FF" /><rect x="694.3204181990983" y="124.32041819909828" width="21.359163601803424" height="21.359163601803424" fill="#0702FF" /><rect x="725.0112791189647" y="125.01127911896465" width="19.9774417620707" height="19.9774417620707" fill="#0702FF" /><rect x="787.9806051092115" y="127.98060510921157" width="14.038789781576874" height="14.038789781576874" fill="#0702FF" /><rect x="338.86066024599444" y="158.86066024599444" width="12.278679508011123" height="12.278679508011123" fill="#0702FF" /><rect x="455.565737578586" y="155.56573757858595" width="18.86852484282809" height="18.86852484282809" fill="#0702FF" /><rect x="484.16497613703075" y="154.16497613703075" width="21.670047725938517" height="21.670047725938517" fill="#0702FF" /><rect x="638.0212374489303" y="158.02123744893032" width="13.95752510213936" height="13.95752510213936" fill="#0702FF" /><rect x="695.735580523723" y="155.73558052372303" width="18.528838952553944" height="18.528838952553944" fill="#0702FF" /><rect x="845.9711609228607" y="155.97116092286066" width="18.057678154278662" height="18.057678154278662" fill="#0702FF" /><rect x="907.2933553431922" y="157.29335534319216" width="15.413289313615657" height="15.413289313615657" fill="#0702FF" /><rect x="968.062952373777" y="158.06295237377694" width="13.87409525244611" height="13.87409525244611" fill="#0702FF" /><rect x="42.24695012354937" y="192.24695012354937" width="5.506099752901273" height="5.506099752901273" fill="#0702FF" /><rect x="336.51113938642686" y="186.51113938642683" width="16.97772122714631" height="16.97772122714631" fill="#0702FF" /><rect x="366.58816281876557" y="186.58816281876557" width="16.82367436246886" height="16.82367436246886" fill="#0702FF" /><rect x="485.9144647360186" y="185.91446473601857" width="18.171070527962836" height="18.171070527962836" fill="#0702FF" /><rect x="543.8247771436949" y="183.82477714369483" width="22.350445712610316" height="22.350445712610316" fill="#0702FF" /><rect x="603.1218661257102" y="183.12186612571023" width="23.756267748579532" height="23.756267748579532" fill="#0702FF" /><rect x="664.5441607376947" y="184.54416073769474" width="20.911678524610508" height="20.911678524610508" fill="#0702FF" /><rect x="693.4819062360289" y="183.4819062360289" width="23.036187527942232" height="23.036187527942232" fill="#0702FF" /><rect x="937.8020316160893" y="187.8020316160893" width="14.395936767821393" height="14.395936767821393" fill="#0702FF" /><rect x="1120.4421205504011" y="190.44212055040114" width="9.115758899197722" height="9.115758899197722" fill="#0702FF" /><rect x="1151.363159741265" y="191.36315974126492" width="7.273680517470172" height="7.273680517470172" fill="#0702FF" /><rect x="366.773470772656" y="216.77347077265603" width="16.453058454687923" height="16.453058454687923" fill="#0702FF" /><rect x="425.86246153352437" y="215.86246153352434" width="18.275076932951297" height="18.275076932951297" fill="#0702FF" /><rect x="484.35271955534427" y="214.35271955534427" width="21.294560889311477" height="21.294560889311477" fill="#0702FF" /><rect x="547.3049148719954" y="217.3049148719954" width="15.390170256009203" height="15.390170256009203" fill="#0702FF" /><rect x="572.7367598319507" y="212.73675983195074" width="24.526480336098537" height="24.526480336098537" fill="#0702FF" /><rect x="632.3205054703552" y="212.32050547035527" width="25.358989059289478" height="25.358989059289478" fill="#0702FF" /><rect x="663.9888681012943" y="213.98886810129434" width="22.022263797411334" height="22.022263797411334" fill="#0702FF" /><rect x="694.0687028001805" y="214.0687028001805" width="21.862594399639033" height="21.862594399639033" fill="#0702FF" /><rect x="724.7565889080277" y="214.75658890802762" width="20.486822183944742" height="20.486822183944742" fill="#0702FF" /><rect x="784.9337970345326" y="214.93379703453263" width="20.132405930934755" height="20.132405930934755" fill="#0702FF" /><rect x="818.39750238664" y="218.39750238663996" width="13.204995226720062" height="13.204995226720062" fill="#0702FF" /><rect x="844.5113112664785" y="214.5113112664785" width="20.977377467043027" height="20.977377467043027" fill="#0702FF" /><rect x="910.0094381066973" y="220.00943810669736" width="9.981123786605298" height="9.981123786605298" fill="#0702FF" /><rect x="940.8777994891936" y="220.87779948919368" width="8.244401021612624" height="8.244401021612624" fill="#0702FF" /><rect x="219.48075656024776" y="249.48075656024776" width="11.038486879504479" height="11.038486879504479" fill="#0702FF" /><rect x="306.73469956313903" y="246.73469956313906" width="16.530600873721887" height="16.530600873721887" fill="#0702FF" /><rect x="365.8863053057636" y="245.88630530576359" width="18.227389388472826" height="18.227389388472826" fill="#0702FF" /><rect x="426.4118802161989" y="246.41188021619888" width="17.176239567602263" height="17.176239567602263" fill="#0702FF" /><rect x="483.48243484451035" y="243.48243484451035" width="23.03513031097927" height="23.03513031097927" fill="#0702FF" /><rect x="606.2765233521255" y="246.27652335212548" width="17.446953295749022" height="17.446953295749022" fill="#0702FF" /><rect x="636.0571539504631" y="246.05715395046315" width="17.88569209907373" height="17.88569209907373" fill="#0702FF" /><rect x="787.9191125874313" y="247.91911258743133" width="14.16177482513736" height="14.16177482513736" fill="#0702FF" /><rect x="816.9269749837949" y="246.92697498379493" width="16.14605003241013" height="16.14605003241013" fill="#0702FF" /><rect x="904.822635703605" y="244.822635703605" width="20.35472859279004" height="20.35472859279004" fill="#0702FF" /><rect x="11.58550234309254" y="281.5855023430925" width="6.828995313814923" height="6.828995313814923" fill="#0702FF" /><rect x="277.25032855177153" y="277.25032855177153" width="15.499342896456959" height="15.499342896456959" fill="#0702FF" /><rect x="307.10065006634665" y="277.10065006634665" width="15.79869986730667" height="15.79869986730667" fill="#0702FF" /><rect x="428.808060835018" y="278.808060835018" width="12.383878329964002" height="12.383878329964002" fill="#0702FF" /><rect x="573.2711036766144" y="273.2711036766145" width="23.457792646771058" height="23.457792646771058" fill="#0702FF" /><rect x="632.0" y="272.0" width="26.0" height="26.0" fill="#0702FF" /><rect x="662.0" y="272.0" width="26.0" height="26.0" fill="#0702FF" /><rect x="722.0" y="272.0" width="26.0" height="26.0" fill="#0702FF" /><rect x="754.6821400066693" y="274.68214000666933" width="20.635719986661375" height="20.635719986661375" fill="#0702FF" /><rect x="784.5565847639872" y="274.5565847639872" width="20.886830472025633" height="20.886830472025633" fill="#0702FF" /><rect x="844.4800136690343" y="274.4800136690343" width="21.039972661931387" height="21.039972661931387" fill="#0702FF" /><rect x="905.2317685998736" y="275.2317685998736" width="19.536462800252846" height="19.536462800252846" fill="#0702FF" /><rect x="969.3745329787856" y="279.37453297878557" width="11.250934042428817" height="11.250934042428817" fill="#0702FF" /><rect x="1058.3801268026514" y="278.3801268026515" width="13.239746394697026" height="13.239746394697026" fill="#0702FF" /><rect x="218.24495216618163" y="308.24495216618163" width="13.510095667636723" height="13.510095667636723" fill="#0702FF" /><rect x="249.69501261348876" y="309.69501261348876" width="10.60997477302248" height="10.60997477302248" fill="#0702FF" /><rect x="335.1592717922041" y="305.1592717922041" width="19.68145641559184" height="19.68145641559184" fill="#0702FF" /><rect x="396.29048918245917" y="306.29048918245917" width="17.419021635081712" height="17.419021635081712" fill="#0702FF" /><rect x="423.47333277437093" y="303.47333277437093" width="23.053334451258085" height="23.053334451258085" fill="#0702FF" /><rect x="454.6122895811547" y="304.6122895811547" width="20.775420837690582" height="20.775420837690582" fill="#0702FF" /><rect x="512.0277739308499" y="302.02777393084983" width="25.944452138300335" height="25.944452138300335" fill="#0702FF" /><rect x="543.486160394836" y="303.4861603948361" width="23.0276792103279" height="23.0276792103279" fill="#0702FF" /><rect x="573.8101868661664" y="303.8101868661664" width="22.37962626766721" height="22.37962626766721" fill="#0702FF" /><rect x="605.2514679718154" y="305.2514679718154" width="19.49706405636924" height="19.49706405636924" fill="#0702FF" /><rect x="635.0892718714424" y="305.0892718714424" width="19.821456257115152" height="19.821456257115152" fill="#0702FF" /><rect x="662.1676225645389" y="302.16762256453893" width="25.664754870922156" height="25.664754870922156" fill="#0702FF" /><rect x="692.1310610092594" y="302.1310610092594" width="25.737877981481205" height="25.737877981481205" fill="#0702FF" /><rect x="722.0" y="302.0" width="26.0" height="26.0" fill="#0702FF" /><rect x="752.6701320803343" y="302.6701320803343" width="24.659735839331347" height="24.659735839331347" fill="#0702FF" /><rect x="782.5537528031912" y="302.55375280319123" width="24.892494393617557" height="24.892494393617557" fill="#0702FF" /><rect x="843.8097987340901" y="303.8097987340902" width="22.380402531819662" height="22.380402531819662" fill="#0702FF" /><rect x="876.9272630099919" y="306.9272630099919" width="16.145473980016188" height="16.145473980016188" fill="#0702FF" /><rect x="906.6424606807057" y="306.64246068070565" width="16.715078638588707" height="16.715078638588707" fill="#0702FF" /><rect x="937.8789148962549" y="307.87891489625486" width="14.242170207490286" height="14.242170207490286" fill="#0702FF" /><rect x="997.8856368168688" y="307.8856368168687" width="14.228726366262507" height="14.228726366262507" fill="#0702FF" /><rect x="1123.32192001824" y="313.32192001824006" width="3.356159963519895" height="3.356159963519895" fill="#0702FF" /><rect x="365.016442973462" y="335.016442973462" width="19.96711405307594" height="19.96711405307594" fill="#0702FF" /><rect x="482.92017915895684" y="332.92017915895684" width="24.15964168208628" height="24.15964168208628" fill="#0702FF" /><rect x="542.0" y="332.0" width="26.0" height="26.0" fill="#0702FF" /><rect x="572.0" y="332.0" width="26.0" height="26.0" fill="#0702FF" /><rect x="602.5828515686197" y="332.5828515686197" width="24.834296862760624" height="24.834296862760624" fill="#0702FF" /><rect x="662.0" y="332.0" width="26.0" height="26.0" fill="#0702FF" /><rect x="694.2042672624075" y="334.20426726240754" width="21.591465475184943" height="21.591465475184943" fill="#0702FF" /><rect x="754.8788524346533" y="334.87885243465325" width="20.24229513069347" height="20.24229513069347" fill="#0702FF" /><rect x="783.9351013770532" y="333.93510137705323" width="22.129797245893545" height="22.129797245893545" fill="#0702FF" /><rect x="814.6024477810364" y="334.60244778103646" width="20.7951044379271" height="20.7951044379271" fill="#0702FF" /><rect x="875.3456835316243" y="335.3456835316243" width="19.308632936751398" height="19.308632936751398" fill="#0702FF" /><rect x="966.6465331668865" y="336.64653316688646" width="16.706933666227112" height="16.706933666227112" fill="#0702FF" /><rect x="998.4184187386364" y="338.4184187386364" width="13.163162522727209" height="13.163162522727209" fill="#0702FF" /><rect x="1183.4883534658936" y="343.48835346589357" width="3.023293068212885" height="3.023293068212885" fill="#0702FF" /><rect x="305.8678400039538" y="365.8678400039538" width="18.26431999209242" height="18.26431999209242" fill="#0702FF" /><rect x="335.3010799122241" y="365.3010799122241" width="19.397840175551785" height="19.397840175551785" fill="#0702FF" /><rect x="394.9053517443126" y="364.9053517443126" width="20.189296511374742" height="20.189296511374742" fill="#0702FF" /><rect x="512.5376339700161" y="362.5376339700161" width="24.9247320599678" height="24.9247320599678" fill="#0702FF" /><rect x="574.3883038890644" y="364.3883038890644" width="21.22339222187121" height="21.22339222187121" fill="#0702FF" /><rect x="603.9125259061735" y="363.91252590617347" width="22.174948187653012" height="22.174948187653012" fill="#0702FF" /><rect x="633.0225603810396" y="363.0225603810396" width="23.95487923792073" height="23.95487923792073" fill="#0702FF" /><rect x="662.0" y="362.0" width="26.0" height="26.0" fill="#0702FF" /><rect x="695.7187213318293" y="365.7187213318293" width="18.562557336341424" height="18.562557336341424" fill="#0702FF" /><rect x="754.1378902899879" y="364.13789028998787" width="21.724219420024255" height="21.724219420024255" fill="#0702FF" /><rect x="786.1119432644474" y="366.1119432644474" width="17.776113471105134" height="17.776113471105134" fill="#0702FF" /><rect x="815.1954999565875" y="365.19549995658747" width="19.60900008682508" height="19.60900008682508" fill="#0702FF" /><rect x="847.256903300518" y="367.25690330051805" width="15.486193398963934" height="15.486193398963934" fill="#0702FF" /><rect x="874.6694682527607" y="364.6694682527607" width="20.661063494478658" height="20.661063494478658" fill="#0702FF" /><rect x="998.695308715238" y="368.6953087152379" width="12.609382569524197" height="12.609382569524197" fill="#0702FF" /><rect x="1026.9079364703628" y="366.9079364703628" width="16.184127059274353" height="16.184127059274353" fill="#0702FF" /><rect x="41.23502843339392" y="401.23502843339395" width="7.529943133212157" height="7.529943133212157" fill="#0702FF" /><rect x="278.89484347680576" y="398.89484347680576" width="12.210313046388471" height="12.210313046388471" fill="#0702FF" /><rect x="486.0692914018379" y="396.0692914018379" width="17.86141719632414" height="17.86141719632414" fill="#0702FF" /><rect x="513.400011733701" y="393.40001173370104" width="23.199976532597958" height="23.199976532597958" fill="#0702FF" /><rect x="542.9144836702709" y="392.9144836702709" width="24.171032659458213" height="24.171032659458213" fill="#0702FF" /><rect x="572.0" y="392.0" width="26.0" height="26.0" fill="#0702FF" /><rect x="602.2867586798391" y="392.28675867983907" width="25.426482640321836" height="25.426482640321836" fill="#0702FF" /><rect x="695.4290529262582" y="395.4290529262582" width="19.14189414748362" height="19.14189414748362" fill="#0702FF" /><rect x="722.0" y="392.0" width="26.0" height="26.0" fill="#0702FF" /><rect x="815.9679616032115" y="395.9679616032115" width="18.06407679357698" height="18.06407679357698" fill="#0702FF" /><rect x="1090.3068704825948" y="400.30687048259495" width="9.386259034810152" height="9.386259034810152" fill="#0702FF" /><rect x="187.99879467085907" y="427.99879467085907" width="14.002410658281889" height="14.002410658281889" fill="#0702FF" /><rect x="310.4259319479041" y="430.4259319479041" width="9.148136104191813" height="9.148136104191813" fill="#0702FF" /><rect x="338.8145506338605" y="428.8145506338605" width="12.370898732278974" height="12.370898732278974" fill="#0702FF" /><rect x="397.7751386956145" y="427.7751386956145" width="14.449722608771012" height="14.449722608771012" fill="#0702FF" /><rect x="423.938929005778" y="423.938929005778" width="22.122141988444046" height="22.122141988444046" fill="#0702FF" /><rect x="455.41054202877126" y="425.41054202877126" width="19.178915942457447" height="19.178915942457447" fill="#0702FF" /><rect x="515.3560241702708" y="425.3560241702707" width="19.287951659458585" height="19.287951659458585" fill="#0702FF" /><rect x="543.6408608423845" y="423.64086084238454" width="22.71827831523086" height="22.71827831523086" fill="#0702FF" /><rect x="572.0" y="422.0" width="26.0" height="26.0" fill="#0702FF" /><rect x="632.0" y="422.0" width="26.0" height="26.0" fill="#0702FF" /><rect x="693.7854472723994" y="423.7854472723995" width="22.429105455201054" height="22.429105455201054" fill="#0702FF" /><rect x="726.0174088253938" y="426.0174088253938" width="17.96518234921249" height="17.96518234921249" fill="#0702FF" /><rect x="783.9706521151375" y="423.97065211513745" width="22.05869576972514" height="22.05869576972514" fill="#0702FF" /><rect x="816.8337045537943" y="426.83370455379435" width="16.332590892411343" height="16.332590892411343" fill="#0702FF" /><rect x="843.7242574627368" y="423.7242574627368" width="22.551485074526465" height="22.551485074526465" fill="#0702FF" /><rect x="878.1251522822623" y="428.1251522822623" width="13.749695435475406" height="13.749695435475406" fill="#0702FF" /><rect x="905.9286980937236" y="425.92869809372365" width="18.142603812552732" height="18.142603812552732" fill="#0702FF" /><rect x="219.47303292320015" y="459.47303292320015" width="11.053934153599672" height="11.053934153599672" fill="#0702FF" /><rect x="397.5247223224985" y="457.5247223224985" width="14.950555355003015" height="14.950555355003015" fill="#0702FF" /><rect x="428.7905273116467" y="458.7905273116467" width="12.418945376706525" height="12.418945376706525" fill="#0702FF" /><rect x="485.6143697179168" y="455.6143697179168" width="18.771260564166354" height="18.771260564166354" fill="#0702FF" /><rect x="572.6267128367114" y="452.6267128367113" width="24.746574326577374" height="24.746574326577374" fill="#0702FF" /><rect x="605.2412304526583" y="455.2412304526583" width="19.517539094683457" height="19.517539094683457" fill="#0702FF" /><rect x="663.4679114028531" y="453.46791140285313" width="23.064177194293784" height="23.064177194293784" fill="#0702FF" /><rect x="692.0998318005693" y="452.0998318005693" width="25.800336398861397" height="25.800336398861397" fill="#0702FF" /><rect x="722.9511653046607" y="452.95116530466066" width="24.097669390678675" height="24.097669390678675" fill="#0702FF" /><rect x="784.9829799060042" y="454.9829799060042" width="20.034040187991604" height="20.034040187991604" fill="#0702FF" /><rect x="813.5570493202666" y="453.55704932026663" width="22.88590135946675" height="22.88590135946675" fill="#0702FF" /><rect x="844.5120799300712" y="454.51207993007125" width="20.97584013985753" height="20.97584013985753" fill="#0702FF" /><rect x="874.0877459737878" y="454.08774597378783" width="21.82450805242439" height="21.82450805242439" fill="#0702FF" /><rect x="159.79439735169018" y="489.7943973516902" width="10.41120529661967" height="10.41120529661967" fill="#0702FF" /><rect x="218.9902889271645" y="488.9902889271645" width="12.019422145670973" height="12.019422145670973" fill="#0702FF" /><rect x="307.71513693868775" y="487.71513693868775" width="14.569726122624466" height="14.569726122624466" fill="#0702FF" /><rect x="365.96994546122346" y="485.96994546122346" width="18.060109077553037" height="18.060109077553037" fill="#0702FF" /><rect x="457.9753009884636" y="487.9753009884636" width="14.04939802307284" height="14.04939802307284" fill="#0702FF" /><rect x="484.5249124719584" y="484.5249124719584" width="20.950175056083243" height="20.950175056083243" fill="#0702FF" /><rect x="515.4179044981421" y="485.41790449814204" width="19.16419100371588" height="19.16419100371588" fill="#0702FF" /><rect x="573.9056700452792" y="483.9056700452792" width="22.188659909441697" height="22.188659909441697" fill="#0702FF" /><rect x="604.2858810596938" y="484.28588105969374" width="21.428237880612514" height="21.428237880612514" fill="#0702FF" /><rect x="662.8426573588717" y="482.84265735887175" width="24.314685282256526" height="24.314685282256526" fill="#0702FF" /><rect x="727.2010813155122" y="487.20108131551217" width="15.597837368975615" height="15.597837368975615" fill="#0702FF" /><rect x="752.9580906067223" y="482.95809060672224" width="24.083818786555494" height="24.083818786555494" fill="#0702FF" /><rect x="784.1437896662571" y="484.1437896662572" width="21.71242066748565" height="21.71242066748565" fill="#0702FF" /><rect x="814.3455726316159" y="484.3455726316159" width="21.308854736768236" height="21.308854736768236" fill="#0702FF" /><rect x="845.858181270575" y="485.8581812705749" width="18.28363745885015" height="18.28363745885015" fill="#0702FF" /><rect x="877.1261160893049" y="487.1261160893049" width="15.74776782139018" height="15.74776782139018" fill="#0702FF" /><rect x="968.2727170577497" y="488.2727170577497" width="13.454565884500699" height="13.454565884500699" fill="#0702FF" /><rect x="998.9327521838394" y="488.93275218383934" width="12.134495632321297" height="12.134495632321297" fill="#0702FF" /><rect x="1119.3828572407422" y="489.38285724074206" width="11.234285518515865" height="11.234285518515865" fill="#0702FF" /><rect x="277.1284451763891" y="517.1284451763892" width="15.743109647221761" height="15.743109647221761" fill="#0702FF" /><rect x="306.44958096579177" y="516.4495809657917" width="17.1008380684165" height="17.1008380684165" fill="#0702FF" /><rect x="336.9439640190745" y="516.9439640190744" width="16.112071961851036" height="16.112071961851036" fill="#0702FF" /><rect x="395.4943876322075" y="515.4943876322076" width="19.011224735584925" height="19.011224735584925" fill="#0702FF" /><rect x="456.37537504753385" y="516.3753750475338" width="17.249249904932334" height="17.249249904932334" fill="#0702FF" /><rect x="485.17464198896636" y="515.1746419889664" width="19.650716022067268" height="19.650716022067268" fill="#0702FF" /><rect x="544.450914298789" y="514.450914298789" width="21.098171402422018" height="21.098171402422018" fill="#0702FF" /><rect x="576.3085281090723" y="516.3085281090723" width="17.382943781855356" height="17.382943781855356" fill="#0702FF" /><rect x="696.7054097517741" y="516.7054097517741" width="16.589180496451824" height="16.589180496451824" fill="#0702FF" /><rect x="726.2841270122855" y="516.2841270122855" width="17.431745975429063" height="17.431745975429063" fill="#0702FF" /><rect x="754.9640554785885" y="514.9640554785885" width="20.07188904282295" height="20.07188904282295" fill="#0702FF" /><rect x="938.872241565257" y="518.872241565257" width="12.255516869485977" height="12.255516869485977" fill="#0702FF" /><rect x="967.7520471160992" y="517.7520471160992" width="14.495905767801556" height="14.495905767801556" fill="#0702FF" /><rect x="996.6437491501524" y="516.6437491501524" width="16.712501699695135" height="16.712501699695135" fill="#0702FF" /><rect x="1057.9401581236245" y="517.9401581236244" width="14.11968375275108" height="14.11968375275108" fill="#0702FF" /><rect x="1149.235546709612" y="519.235546709612" width="11.528906580776026" height="11.528906580776026" fill="#0702FF" /><rect x="366.54617626610036" y="546.5461762661004" width="16.907647467799297" height="16.907647467799297" fill="#0702FF" /><rect x="395.3266907872261" y="545.3266907872261" width="19.34661842554787" height="19.34661842554787" fill="#0702FF" /><rect x="425.8128865143207" y="545.8128865143208" width="18.37422697135853" height="18.37422697135853" fill="#0702FF" /><rect x="485.964561387413" y="545.964561387413" width="18.070877225173906" height="18.070877225173906" fill="#0702FF" /><rect x="513.6857494555595" y="543.6857494555595" width="22.628501088880945" height="22.628501088880945" fill="#0702FF" /><rect x="545.1281044701609" y="545.1281044701609" width="19.743791059678287" height="19.743791059678287" fill="#0702FF" /><rect x="573.5054693341564" y="543.5054693341564" width="22.98906133168725" height="22.98906133168725" fill="#0702FF" /><rect x="607.4595088163303" y="547.4595088163303" width="15.08098236733937" height="15.08098236733937" fill="#0702FF" /><rect x="695.8959846906774" y="545.8959846906774" width="18.208030618645118" height="18.208030618645118" fill="#0702FF" /><rect x="786.9142310591533" y="546.9142310591533" width="16.171537881693425" height="16.171537881693425" fill="#0702FF" /><rect x="817.9850646689208" y="547.9850646689208" width="14.029870662158448" height="14.029870662158448" fill="#0702FF" /><rect x="847.7047785513475" y="547.7047785513475" width="14.590442897304932" height="14.590442897304932" fill="#0702FF" /><rect x="875.2333195730041" y="545.2333195730041" width="19.533360853991752" height="19.533360853991752" fill="#0702FF" /><rect x="939.6227884583365" y="549.6227884583365" width="10.754423083327113" height="10.754423083327113" fill="#0702FF" /><rect x="968.0275908850197" y="548.0275908850197" width="13.944818229960713" height="13.944818229960713" fill="#0702FF" /><rect x="395.73862298135407" y="575.7386229813541" width="18.5227540372919" height="18.5227540372919" fill="#0702FF" /><rect x="458.54120128916384" y="578.5412012891638" width="12.917597421672319" height="12.917597421672319" fill="#0702FF" /><rect x="488.0057934988907" y="578.0057934988907" width="13.988413002218593" height="13.988413002218593" fill="#0702FF" /><rect x="518.7059933506335" y="578.7059933506335" width="12.588013298732854" height="12.588013298732854" fill="#0702FF" /><rect x="545.7777665187361" y="575.7777665187361" width="18.44446696252774" height="18.44446696252774" fill="#0702FF" /><rect x="663.4990324221536" y="573.4990324221536" width="23.001935155692674" height="23.001935155692674" fill="#0702FF" /><rect x="754.0562398258772" y="574.0562398258772" width="21.887520348245523" height="21.887520348245523" fill="#0702FF" /><rect x="906.3413973816614" y="576.3413973816614" width="17.317205236677182" height="17.317205236677182" fill="#0702FF" /><rect x="937.5201746216109" y="577.5201746216109" width="14.959650756778185" height="14.959650756778185" fill="#0702FF" /><rect x="1002.2194428880313" y="582.2194428880313" width="5.5611142239373805" height="5.5611142239373805" fill="#0702FF" /><rect x="1149.6136511691993" y="579.6136511691992" width="10.77269766160154" height="10.77269766160154" fill="#0702FF" /><rect x="73.17006608928833" y="613.1700660892883" width="3.659867821423358" height="3.659867821423358" fill="#0702FF" /><rect x="220.919682756718" y="610.919682756718" width="8.160634486563994" height="8.160634486563994" fill="#0702FF" /><rect x="367.26372610659735" y="607.2637261065973" width="15.472547786805357" height="15.472547786805357" fill="#0702FF" /><rect x="486.52975940907515" y="606.5297594090752" width="16.940481181849655" height="16.940481181849655" fill="#0702FF" /><rect x="516.283657855311" y="606.283657855311" width="17.432684289378013" height="17.432684289378013" fill="#0702FF" /><rect x="606.6315361661278" y="606.6315361661278" width="16.7369276677444" height="16.7369276677444" fill="#0702FF" /><rect x="633.9417364908996" y="603.9417364908996" width="22.11652701820073" height="22.11652701820073" fill="#0702FF" /><rect x="695.3773035745294" y="605.3773035745294" width="19.24539285094126" height="19.24539285094126" fill="#0702FF" /><rect x="727.1314678784754" y="607.1314678784754" width="15.737064243049186" height="15.737064243049186" fill="#0702FF" /><rect x="755.1538111516085" y="605.1538111516085" width="19.692377696783144" height="19.692377696783144" fill="#0702FF" /><rect x="878.9681450837487" y="608.9681450837487" width="12.063709832502589" height="12.063709832502589" fill="#0702FF" /><rect x="1062.3904441325965" y="612.3904441325966" width="5.219111734806807" height="5.219111734806807" fill="#0702FF" /><rect x="279.92881209357654" y="639.9288120935765" width="10.142375812846957" height="10.142375812846957" fill="#0702FF" /><rect x="459.20248193988357" y="639.2024819398836" width="11.59503612023282" height="11.59503612023282" fill="#0702FF" /><rect x="727.6145632724246" y="637.6145632724246" width="14.77087345515088" height="14.77087345515088" fill="#0702FF" /><rect x="755.4556070518292" y="635.4556070518292" width="19.08878589634143" height="19.08878589634143" fill="#0702FF" /><rect x="816.3177964124494" y="636.3177964124494" width="17.364407175101146" height="17.364407175101146" fill="#0702FF" /><rect x="906.7153099601849" y="636.7153099601849" width="16.5693800796302" height="16.5693800796302" fill="#0702FF" /><rect x="44.451280925824236" y="674.4512809258242" width="1.097438148351527" height="1.097438148351527" fill="#0702FF" /><rect x="398.9030161863328" y="668.9030161863328" width="12.193967627334416" height="12.193967627334416" fill="#0702FF" /><rect x="429.7799233051969" y="669.7799233051969" width="10.440153389606115" height="10.440153389606115" fill="#0702FF" /><rect x="515.9642221990741" y="665.9642221990741" width="18.07155560185176" height="18.07155560185176" fill="#0702FF" /><rect x="580.0690883346597" y="670.0690883346597" width="9.861823330680705" height="9.861823330680705" fill="#0702FF" /><rect x="637.1551877969927" y="667.1551877969927" width="15.689624406014591" height="15.689624406014591" fill="#0702FF" /><rect x="667.2058482416753" y="667.2058482416753" width="15.588303516649436" height="15.588303516649436" fill="#0702FF" /><rect x="910.9951657999965" y="670.9951657999965" width="8.009668400006992" height="8.009668400006992" fill="#0702FF" /><rect x="937.62132996095" y="667.62132996095" width="14.757340078100047" height="14.757340078100047" fill="#0702FF" /><rect x="605.9512512622082" y="695.9512512622082" width="18.097497475583598" height="18.097497475583598" fill="#0702FF" /><rect x="699.2243936590525" y="699.2243936590525" width="11.551212681894985" height="11.551212681894985" fill="#0702FF" /><rect x="909.3435612567672" y="699.3435612567672" width="11.312877486465501" height="11.312877486465501" fill="#0702FF" /><line x1="0" y1="0" x2="1260" y2="0" stroke="#D3D3D3" stroke-width="1" /><line x1="0" y1="30" x2="1260" y2="30" stroke="#D3D3D3" stroke-width="1" /><line x1="0" y1="60" x2="1260" y2="60" stroke="#D3D3D3" stroke-width="1" /><line x1="0" y1="90" x2="1260" y2="90" stroke="#D3D3D3" stroke-width="1" /><line x1="0" y1="120" x2="1260" y2="120" stroke="#D3D3D3" stroke-width="1" /><line x1="0" y1="150" x2="1260" y2="150" stroke="#D3D3D3" stroke-width="1" /><line x1="0" y1="180" x2="1260" y2="180" stroke="#D3D3D3" stroke-width="1" /><line x1="0" y1="210" x2="1260" y2="210" stroke="#D3D3D3" stroke-width="1" /><line x1="0" y1="240" x2="1260" y2="240" stroke="#D3D3D3" stroke-width="1" /><line x1="0" y1="270" x2="1260" y2="270" stroke="#D3D3D3" stroke-width="1" /><line x1="0" y1="300" x2="1260" y2="300" stroke="#D3D3D3" stroke-width="1" /><line x1="0" y1="330" x2="1260" y2="330" stroke="#D3D3D3" stroke-width="1" /><line x1="0" y1="360" x2="1260" y2="360" stroke="#D3D3D3" stroke-width="1" /><line x1="0" y1="390" x2="1260" y2="390" stroke="#D3D3D3" stroke-width="1" /><line x1="0" y1="420" x2="1260" y2="420" stroke="#D3D3D3" stroke-width="1" /><line x1="0" y1="450" x2="1260" y2="450" stroke="#D3D3D3" stroke-width="1" /><line x1="0" y1="480" x2="1260" y2="480" stroke="#D3D3D3" stroke-width="1" /><line x1="0" y1="510" x2="1260" y2="510" stroke="#D3D3D3" stroke-width="1" /><line x1="0" y1="540" x2="1260" y2="540" stroke="#D3D3D3" stroke-width="1" /><line x1="0" y1="570" x2="1260" y2="570" stroke="#D3D3D3" stroke-width="1" /><line x1="0" y1="600" x2="1260" y2="600" stroke="#D3D3D3" stroke-width="1" /><line x1="0" y1="630" x2="1260" y2="630" stroke="#D3D3D3" stroke-width="1" /><line x1="0" y1="660" x2="1260" y2="660" stroke="#D3D3D3" stroke-width="1" /><line x1="0" y1="690" x2="1260" y2="690" stroke="#D3D3D3" stroke-width="1" /><line x1="0" y1="720" x2="1260" y2="720" stroke="#D3D3D3" stroke-width="1" /><line x1="0" y1="0" x2="0" y2="720" stroke="#D3D3D3" stroke-width="1" /><line x1="30" y1="0" x2="30" y2="720" stroke="#D3D3D3" stroke-width="1" /><line x1="60" y1="0" x2="60" y2="720" stroke="#D3D3D3" stroke-width="1" /><line x1="90" y1="0" x2="90" y2="720" stroke="#D3D3D3" stroke-width="1" /><line x1="120" y1="0" x2="120" y2="720" stroke="#D3D3D3" stroke-width="1" /><line x1="150" y1="0" x2="150" y2="720" stroke="#D3D3D3" stroke-width="1" /><line x1="180" y1="0" x2="180" y2="720" stroke="#D3D3D3" stroke-width="1" /><line x1="210" y1="0" x2="210" y2="720" stroke="#D3D3D3" stroke-width="1" /><line x1="240" y1="0" x2="240" y2="720" stroke="#D3D3D3" stroke-width="1" /><line x1="270" y1="0" x2="270" y2="720" stroke="#D3D3D3" stroke-width="1" /><line x1="300" y1="0" x2="300" y2="720" stroke="#D3D3D3" stroke-width="1" /><line x1="330" y1="0" x2="330" y2="720" stroke="#D3D3D3" stroke-width="1" /><line x1="360" y1="0" x2="360" y2="720" stroke="#D3D3D3" stroke-width="1" /><line x1="390" y1="0" x2="390" y2="720" stroke="#D3D3D3" stroke-width="1" /><line x1="420" y1="0" x2="420" y2="720" stroke="#D3D3D3" stroke-width="1" /><line x1="450" y1="0" x2="450" y2="720" stroke="#D3D3D3" stroke-width="1" /><line x1="480" y1="0" x2="480" y2="720" stroke="#D3D3D3" stroke-width="1" /><line x1="510" y1="0" x2="510" y2="720" stroke="#D3D3D3" stroke-width="1" /><line x1="540" y1="0" x2="540" y2="720" stroke="#D3D3D3" stroke-width="1" /><line x1="570" y1="0" x2="570" y2="720" stroke="#D3D3D3" stroke-width="1" /><line x1="600" y1="0" x2="600" y2="720" stroke="#D3D3D3" stroke-width="1" /><line x1="630" y1="0" x2="630" y2="720" stroke="#D3D3D3" stroke-width="1" /><line x1="660" y1="0" x2="660" y2="720" stroke="#D3D3D3" stroke-width="1" /><line x1="690" y1="0" x2="690" y2="720" stroke="#D3D3D3" stroke-width="1" /><line x1="720" y1="0" x2="720" y2="720" stroke="#D3D3D3" stroke-width="1" /><line x1="750" y1="0" x2="750" y2="720" stroke="#D3D3D3" stroke-width="1" /><line x1="780" y1="0" x2="780" y2="720" stroke="#D3D3D3" stroke-width="1" /><line x1="810" y1="0" x2="810" y2="720" stroke="#D3D3D3" stroke-width="1" /><line x1="840" y1="0" x2="840" y2="720" stroke="#D3D3D3" stroke-width="1" /><line x1="870" y1="0" x2="870" y2="720" stroke="#D3D3D3" stroke-width="1" /><line x1="900" y1="0" x2="900" y2="720" stroke="#D3D3D3" stroke-width="1" /><line x1="930" y1="0" x2="930" y2="720" stroke="#D3D3D3" stroke-width="1" /><line x1="960" y1="0" x2="960" y2="720" stroke="#D3D3D3" stroke-width="1" /><line x1="990" y1="0" x2="990" y2="720" stroke="#D3D3D3" stroke-width="1" /><line x1="1020" y1="0" x2="1020" y2="720" stroke="#D3D3D3" stroke-width="1" /><line x1="1050" y1="0" x2="1050" y2="720" stroke="#D3D3D3" stroke-width="1" /><line x1="1080" y1="0" x2="1080" y2="720" stroke="#D3D3D3" stroke-width="1" /><line x1="1110" y1="0" x2="1110" y2="720" stroke="#D3D3D3" stroke-width="1" /><line x1="1140" y1="0" x2="1140" y2="720" stroke="#D3D3D3" stroke-width="1" /><line x1="1170" y1="0" x2="1170" y2="720" stroke="#D3D3D3" stroke-width="1" /><line x1="1200" y1="0" x2="1200" y2="720" stroke="#D3D3D3" stroke-width="1" /><line x1="1230" y1="0" x2="1230" y2="720" stroke="#D3D3D3" stroke-width="1" /><line x1="1260" y1="0" x2="1260" y2="720" stroke="#D3D3D3" stroke-width="1" /></svg>