<svg width="1260" height="720" xmlns="http://www.w3.org/2000/svg"><rect x="463.25" y="13.25" width="3.5" height="3.5" fill="#0702FF" /><rect x="493.25" y="13.25" width="3.5" height="3.5" fill="#0702FF" /><rect x="523.25" y="13.25" width="3.5" height="3.5" fill="#0702FF" /><rect x="553.25" y="13.25" width="3.5" height="3.5" fill="#0702FF" /><rect x="583.25" y="13.25" width="3.5" height="3.5" fill="#0702FF" /><rect x="613.25" y="13.25" width="3.5" height="3.5" fill="#0702FF" /><rect x="643.25" y="13.25" width="3.5" height="3.5" fill="#0702FF" /><rect x="673.25" y="13.25" width="3.5" height="3.5" fill="#0702FF" /><rect x="703.25" y="13.25" width="3.5" height="3.5" fill="#0702FF" /><rect x="763.25" y="13.25" width="3.5" height="3.5" fill="#0702FF" /><rect x="853.25" y="13.25" width="3.5" height="3.5" fill="#0702FF" /><rect x="883.25" y="13.25" width="3.5" height="3.5" fill="#0702FF" /><rect x="463.25" y="43.25" width="3.5" height="3.5" fill="#0702FF" /><rect x="491.0" y="41.0" width="8.0" height="8.0" fill="#0702FF" /><rect x="521.0" y="41.0" width="8.0" height="8.0" fill="#0702FF" /><rect x="553.25" y="43.25" width="3.5" height="3.5" fill="#0702FF" /><rect x="583.25" y="43.25" width="3.5" height="3.5" fill="#0702FF" /><rect x="613.25" y="43.25" width="3.5" height="3.5" fill="#0702FF" /><rect x="641.0" y="41.0" width="8.0" height="8.0" fill="#0702FF" /><rect x="671.0" y="41.0" width="8.0" height="8.0" fill="#0702FF" /><rect x="703.25" y="43.25" width="3.5" height="3.5" fill="#0702FF" /><rect x="733.25" y="43.25" width="3.5" height="3.5" fill="#0702FF" /><rect x="763.25" y="43.25" width="3.5" height="3.5" fill="#0702FF" /><rect x="793.25" y="43.25" width="3.5" height="3.5" fill="#0702FF" /><rect x="823.25" y="43.25" width="3.5" height="3.5" fill="#0702FF" /><rect x="343.25" y="73.25" width="3.5" height="3.5" fill="#0702FF" /><rect x="371.0" y="71.0" width="8.0" height="8.0" fill="#0702FF" /><rect x="403.25" y="73.25" width="3.5" height="3.5" fill="#0702FF" /><rect x="433.25" y="73.25" width="3.5" height="3.5" fill="#0702FF" /><rect x="463.25" y="73.25" width="3.5" height="3.5" fill="#0702FF" /><rect x="523.25" y="73.25" width="3.5" height="3.5" fill="#0702FF" /><rect x="553.25" y="73.25" width="3.5" height="3.5" fill="#0702FF" /><rect x="701.0" y="71.0" width="8.0" height="8.0" fill="#0702FF" /><rect x="728.75" y="68.75" width="12.5" height="12.5" fill="#0702FF" /><rect x="761.0" y="71.0" width="8.0" height="8.0" fill="#0702FF" /><rect x="793.25" y="73.25" width="3.5" height="3.5" fill="#0702FF" /><rect x="823.25" y="73.25" width="3.5" height="3.5" fill="#0702FF" /><rect x="913.25" y="73.25" width="3.5" height="3.5" fill="#0702FF" /><rect x="373.25" y="103.25" width="3.5" height="3.5" fill="#0702FF" /><rect x="403.25" y="103.25" width="3.5" height="3.5" fill="#0702FF" /><rect x="523.25" y="103.25" width="3.5" height="3.5" fill="#0702FF" /><rect x="551.0" y="101.0" width="8.0" height="8.0" fill="#0702FF" /><rect x="581.0" y="101.0" width="8.0" height="8.0" fill="#0702FF" /><rect x="613.25" y="103.25" width="3.5" height="3.5" fill="#0702FF" /><rect x="641.0" y="101.0" width="8.0" height="8.0" fill="#0702FF" /><rect x="671.0" y="101.0" width="8.0" height="8.0" fill="#0702FF" /><rect x="703.25" y="103.25" width="3.5" height="3.5" fill="#0702FF" /><rect x="733.25" y="103.25" width="3.5" height="3.5" fill="#0702FF" /><rect x="823.25" y="103.25" width="3.5" height="3.5" fill="#0702FF" /><rect x="853.25" y="103.25" width="3.5" height="3.5" fill="#0702FF" /><rect x="881.0" y="101.0" width="8.0" height="8.0" fill="#0702FF" /><rect x="911.0" y="101.0" width="8.0" height="8.0" fill="#0702FF" /><rect x="941.0" y="101.0" width="8.0" height="8.0" fill="#0702FF" /><rect x="971.0" y="101.0" width="8.0" height="8.0" fill="#0702FF" /><rect x="1003.25" y="103.25" width="3.5" height="3.5" fill="#0702FF" /><rect x="283.25" y="133.25" width="3.5" height="3.5" fill="#0702FF" /><rect x="311.0" y="131.0" width="8.0" height="8.0" fill="#0702FF" /><rect x="343.25" y="133.25" width="3.5" height="3.5" fill="#0702FF" /><rect x="373.25" y="133.25" width="3.5" height="3.5" fill="#0702FF" /><rect x="403.25" y="133.25" width="3.5" height="3.5" fill="#0702FF" /><rect x="431.0" y="131.0" width="8.0" height="8.0" fill="#0702FF" /><rect x="461.0" y="131.0" width="8.0" height="8.0" fill="#0702FF" /><rect x="491.0" y="131.0" width="8.0" height="8.0" fill="#0702FF" /><rect x="521.0" y="131.0" width="8.0" height="8.0" fill="#0702FF" /><rect x="548.75" y="128.75" width="12.5" height="12.5" fill="#0702FF" /><rect x="581.0" y="131.0" width="8.0" height="8.0" fill="#0702FF" /><rect x="613.25" y="133.25" width="3.5" height="3.5" fill="#0702FF" /><rect x="641.0" y="131.0" width="8.0" height="8.0" fill="#0702FF" /><rect x="671.0" y="131.0" width="8.0" height="8.0" fill="#0702FF" /><rect x="703.25" y="133.25" width="3.5" height="3.5" fill="#0702FF" /><rect x="733.25" y="133.25" width="3.5" height="3.5" fill="#0702FF" /><rect x="761.0" y="131.0" width="8.0" height="8.0" fill="#0702FF" /><rect x="791.0" y="131.0" width="8.0" height="8.0" fill="#0702FF" /><rect x="821.0" y="131.0" width="8.0" height="8.0" fill="#0702FF" /><rect x="853.25" y="133.25" width="3.5" height="3.5" fill="#0702FF" /><rect x="883.25" y="133.25" width="3.5" height="3.5" fill="#0702FF" /><rect x="343.25" y="163.25" width="3.5" height="3.5" fill="#0702FF" /><rect x="371.0" y="161.0" width="8.0" height="8.0" fill="#0702FF" /><rect x="403.25" y="163.25" width="3.5" height="3.5" fill="#0702FF" /><rect x="433.25" y="163.25" width="3.5" height="3.5" fill="#0702FF" /><rect x="461.0" y="161.0" width="8.0" height="8.0" fill="#0702FF" /><rect x="493.25" y="163.25" width="3.5" height="3.5" fill="#0702FF" /><rect x="521.0" y="161.0" width="8.0" height="8.0" fill="#0702FF" /><rect x="551.0" y="161.0" width="8.0" height="8.0" fill="#0702FF" /><rect x="581.0" y="161.0" width="8.0" height="8.0" fill="#0702FF" /><rect x="611.0" y="161.0" width="8.0" height="8.0" fill="#0702FF" /><rect x="641.0" y="161.0" width="8.0" height="8.0" fill="#0702FF" /><rect x="671.0" y="161.0" width="8.0" height="8.0" fill="#0702FF" /><rect x="701.0" y="161.0" width="8.0" height="8.0" fill="#0702FF" /><rect x="731.0" y="161.0" width="8.0" height="8.0" fill="#0702FF" /><rect x="761.0" y="161.0" width="8.0" height="8.0" fill="#0702FF" /><rect x="791.0" y="161.0" width="8.0" height="8.0" fill="#0702FF" /><rect x="821.0" y="161.0" width="8.0" height="8.0" fill="#0702FF" /><rect x="851.0" y="161.0" width="8.0" height="8.0" fill="#0702FF" /><rect x="881.0" y="161.0" width="8.0" height="8.0" fill="#0702FF" /><rect x="911.0" y="161.0" width="8.0" height="8.0" fill="#0702FF" /><rect x="943.25" y="163.25" width="3.5" height="3.5" fill="#0702FF" /><rect x="973.25" y="163.25" width="3.5" height="3.5" fill="#0702FF" /><rect x="1063.25" y="163.25" width="3.5" height="3.5" fill="#0702FF" /><rect x="223.25" y="193.25" width="3.5" height="3.5" fill="#0702FF" /><rect x="313.25" y="193.25" width="3.5" height="3.5" fill="#0702FF" /><rect x="343.25" y="193.25" width="3.5" height="3.5" fill="#0702FF" /><rect x="371.0" y="191.0" width="8.0" height="8.0" fill="#0702FF" /><rect x="403.25" y="193.25" width="3.5" height="3.5" fill="#0702FF" /><rect x="433.25" y="193.25" width="3.5" height="3.5" fill="#0702FF" /><rect x="461.0" y="191.0" width="8.0" height="8.0" fill="#0702FF" /><rect x="488.75" y="188.75" width="12.5" height="12.5" fill="#0702FF" /><rect x="521.0" y="191.0" width="8.0" height="8.0" fill="#0702FF" /><rect x="581.0" y="191.0" width="8.0" height="8.0" fill="#0702FF" /><rect x="611.0" y="191.0" width="8.0" height="8.0" fill="#0702FF" /><rect x="641.0" y="191.0" width="8.0" height="8.0" fill="#0702FF" /><rect x="668.75" y="188.75" width="12.5" height="12.5" fill="#0702FF" /><rect x="701.0" y="191.0" width="8.0" height="8.0" fill="#0702FF" /><rect x="731.0" y="191.0" width="8.0" height="8.0" fill="#0702FF" /><rect x="761.0" y="191.0" width="8.0" height="8.0" fill="#0702FF" /><rect x="791.0" y="191.0" width="8.0" height="8.0" fill="#0702FF" /><rect x="821.0" y="191.0" width="8.0" height="8.0" fill="#0702FF" /><rect x="851.0" y="191.0" width="8.0" height="8.0" fill="#0702FF" /><rect x="883.25" y="193.25" width="3.5" height="3.5" fill="#0702FF" /><rect x="913.25" y="193.25" width="3.5" height="3.5" fill="#0702FF" /><rect x="973.25" y="193.25" width="3.5" height="3.5" fill="#0702FF" /><rect x="1003.25" y="193.25" width="3.5" height="3.5" fill="#0702FF" /><rect x="253.25" y="223.25" width="3.5" height="3.5" fill="#0702FF" /><rect x="283.25" y="223.25" width="3.5" height="3.5" fill="#0702FF" /><rect x="313.25" y="223.25" width="3.5" height="3.5" fill="#0702FF" /><rect x="341.0" y="221.0" width="8.0" height="8.0" fill="#0702FF" /><rect x="371.0" y="221.0" width="8.0" height="8.0" fill="#0702FF" /><rect x="401.0" y="221.0" width="8.0" height="8.0" fill="#0702FF" /><rect x="431.0" y="221.0" width="8.0" height="8.0" fill="#0702FF" /><rect x="461.0" y="221.0" width="8.0" height="8.0" fill="#0702FF" /><rect x="491.0" y="221.0" width="8.0" height="8.0" fill="#0702FF" /><rect x="521.0" y="221.0" width="8.0" height="8.0" fill="#0702FF" /><rect x="551.0" y="221.0" width="8.0" height="8.0" fill="#0702FF" /><rect x="578.75" y="218.75" width="12.5" height="12.5" fill="#0702FF" /><rect x="608.75" y="218.75" width="12.5" height="12.5" fill="#0702FF" /><rect x="638.75" y="218.75" width="12.5" height="12.5" fill="#0702FF" /><rect x="668.75" y="218.75" width="12.5" height="12.5" fill="#0702FF" /><rect x="698.75" y="218.75" width="12.5" height="12.5" fill="#0702FF" /><rect x="731.0" y="221.0" width="8.0" height="8.0" fill="#0702FF" /><rect x="761.0" y="221.0" width="8.0" height="8.0" fill="#0702FF" /><rect x="788.75" y="218.75" width="12.5" height="12.5" fill="#0702FF" /><rect x="821.0" y="221.0" width="8.0" height="8.0" fill="#0702FF" /><rect x="851.0" y="221.0" width="8.0" height="8.0" fill="#0702FF" /><rect x="881.0" y="221.0" width="8.0" height="8.0" fill="#0702FF" /><rect x="913.25" y="223.25" width="3.5" height="3.5" fill="#0702FF" /><rect x="943.25" y="223.25" width="3.5" height="3.5" fill="#0702FF" /><rect x="973.25" y="223.25" width="3.5" height="3.5" fill="#0702FF" /><rect x="1003.25" y="223.25" width="3.5" height="3.5" fill="#0702FF" /><rect x="253.25" y="253.25" width="3.5" height="3.5" fill="#0702FF" /><rect x="313.25" y="253.25" width="3.5" height="3.5" fill="#0702FF" /><rect x="401.0" y="251.0" width="8.0" height="8.0" fill="#0702FF" /><rect x="431.0" y="251.0" width="8.0" height="8.0" fill="#0702FF" /><rect x="461.0" y="251.0" width="8.0" height="8.0" fill="#0702FF" /><rect x="491.0" y="251.0" width="8.0" height="8.0" fill="#0702FF" /><rect x="521.0" y="251.0" width="8.0" height="8.0" fill="#0702FF" /><rect x="553.25" y="253.25" width="3.5" height="3.5" fill="#0702FF" /><rect x="581.0" y="251.0" width="8.0" height="8.0" fill="#0702FF" /><rect x="608.75" y="248.75" width="12.5" height="12.5" fill="#0702FF" /><rect x="638.75" y="248.75" width="12.5" height="12.5" fill="#0702FF" /><rect x="668.75" y="248.75" width="12.5" height="12.5" fill="#0702FF" /><rect x="701.0" y="251.0" width="8.0" height="8.0" fill="#0702FF" /><rect x="733.25" y="253.25" width="3.5" height="3.5" fill="#0702FF" /><rect x="763.25" y="253.25" width="3.5" height="3.5" fill="#0702FF" /><rect x="793.25" y="253.25" width="3.5" height="3.5" fill="#0702FF" /><rect x="821.0" y="251.0" width="8.0" height="8.0" fill="#0702FF" /><rect x="851.0" y="251.0" width="8.0" height="8.0" fill="#0702FF" /><rect x="881.0" y="251.0" width="8.0" height="8.0" fill="#0702FF" /><rect x="911.0" y="251.0" width="8.0" height="8.0" fill="#0702FF" /><rect x="943.25" y="253.25" width="3.5" height="3.5" fill="#0702FF" /><rect x="973.25" y="253.25" width="3.5" height="3.5" fill="#0702FF" /><rect x="193.25" y="283.25" width="3.5" height="3.5" fill="#0702FF" /><rect x="223.25" y="283.25" width="3.5" height="3.5" fill="#0702FF" /><rect x="251.0" y="281.0" width="8.0" height="8.0" fill="#0702FF" /><rect x="283.25" y="283.25" width="3.5" height="3.5" fill="#0702FF" /><rect x="311.0" y="281.0" width="8.0" height="8.0" fill="#0702FF" /><rect x="341.0" y="281.0" width="8.0" height="8.0" fill="#0702FF" /><rect x="371.0" y="281.0" width="8.0" height="8.0" fill="#0702FF" /><rect x="401.0" y="281.0" width="8.0" height="8.0" fill="#0702FF" /><rect x="428.75" y="278.75" width="12.5" height="12.5" fill="#0702FF" /><rect x="458.75" y="278.75" width="12.5" height="12.5" fill="#0702FF" /><rect x="488.75" y="278.75" width="12.5" height="12.5" fill="#0702FF" /><rect x="518.75" y="278.75" width="12.5" height="12.5" fill="#0702FF" /><rect x="551.0" y="281.0" width="8.0" height="8.0" fill="#0702FF" /><rect x="581.0" y="281.0" width="8.0" height="8.0" fill="#0702FF" /><rect x="611.0" y="281.0" width="8.0" height="8.0" fill="#0702FF" /><rect x="641.0" y="281.0" width="8.0" height="8.0" fill="#0702FF" /><rect x="668.75" y="278.75" width="12.5" height="12.5" fill="#0702FF" /><rect x="701.0" y="281.0" width="8.0" height="8.0" fill="#0702FF" /><rect x="731.0" y="281.0" width="8.0" height="8.0" fill="#0702FF" /><rect x="758.75" y="278.75" width="12.5" height="12.5" fill="#0702FF" /><rect x="788.75" y="278.75" width="12.5" height="12.5" fill="#0702FF" /><rect x="821.0" y="281.0" width="8.0" height="8.0" fill="#0702FF" /><rect x="851.0" y="281.0" width="8.0" height="8.0" fill="#0702FF" /><rect x="881.0" y="281.0" width="8.0" height="8.0" fill="#0702FF" /><rect x="911.0" y="281.0" width="8.0" height="8.0" fill="#0702FF" /><rect x="943.25" y="283.25" width="3.5" height="3.5" fill="#0702FF" /><rect x="971.0" y="281.0" width="8.0" height="8.0" fill="#0702FF" /><rect x="1001.0" y="281.0" width="8.0" height="8.0" fill="#0702FF" /><rect x="1033.25" y="283.25" width="3.5" height="3.5" fill="#0702FF" /><rect x="341.0" y="311.0" width="8.0" height="8.0" fill="#0702FF" /><rect x="371.0" y="311.0" width="8.0" height="8.0" fill="#0702FF" /><rect x="403.25" y="313.25" width="3.5" height="3.5" fill="#0702FF" /><rect x="431.0" y="311.0" width="8.0" height="8.0" fill="#0702FF" /><rect x="461.0" y="311.0" width="8.0" height="8.0" fill="#0702FF" /><rect x="491.0" y="311.0" width="8.0" height="8.0" fill="#0702FF" /><rect x="521.0" y="311.0" width="8.0" height="8.0" fill="#0702FF" /><rect x="548.75" y="308.75" width="12.5" height="12.5" fill="#0702FF" /><rect x="578.75" y="308.75" width="12.5" height="12.5" fill="#0702FF" /><rect x="611.0" y="311.0" width="8.0" height="8.0" fill="#0702FF" /><rect x="641.0" y="311.0" width="8.0" height="8.0" fill="#0702FF" /><rect x="668.75" y="308.75" width="12.5" height="12.5" fill="#0702FF" /><rect x="698.75" y="308.75" width="12.5" height="12.5" fill="#0702FF" /><rect x="731.0" y="311.0" width="8.0" height="8.0" fill="#0702FF" /><rect x="761.0" y="311.0" width="8.0" height="8.0" fill="#0702FF" /><rect x="791.0" y="311.0" width="8.0" height="8.0" fill="#0702FF" /><rect x="823.25" y="313.25" width="3.5" height="3.5" fill="#0702FF" /><rect x="853.25" y="313.25" width="3.5" height="3.5" fill="#0702FF" /><rect x="883.25" y="313.25" width="3.5" height="3.5" fill="#0702FF" /><rect x="943.25" y="313.25" width="3.5" height="3.5" fill="#0702FF" /><rect x="973.25" y="313.25" width="3.5" height="3.5" fill="#0702FF" /><rect x="1063.25" y="313.25" width="3.5" height="3.5" fill="#0702FF" /><rect x="1093.25" y="313.25" width="3.5" height="3.5" fill="#0702FF" /><rect x="223.25" y="343.25" width="3.5" height="3.5" fill="#0702FF" /><rect x="253.25" y="343.25" width="3.5" height="3.5" fill="#0702FF" /><rect x="313.25" y="343.25" width="3.5" height="3.5" fill="#0702FF" /><rect x="341.0" y="341.0" width="8.0" height="8.0" fill="#0702FF" /><rect x="371.0" y="341.0" width="8.0" height="8.0" fill="#0702FF" /><rect x="401.0" y="341.0" width="8.0" height="8.0" fill="#0702FF" /><rect x="431.0" y="341.0" width="8.0" height="8.0" fill="#0702FF" /><rect x="461.0" y="341.0" width="8.0" height="8.0" fill="#0702FF" /><rect x="488.75" y="338.75" width="12.5" height="12.5" fill="#0702FF" /><rect x="521.0" y="341.0" width="8.0" height="8.0" fill="#0702FF" /><rect x="551.0" y="341.0" width="8.0" height="8.0" fill="#0702FF" /><rect x="581.0" y="341.0" width="8.0" height="8.0" fill="#0702FF" /><rect x="608.75" y="338.75" width="12.5" height="12.5" fill="#0702FF" /><rect x="638.75" y="338.75" width="12.5" height="12.5" fill="#0702FF" /><rect x="668.75" y="338.75" width="12.5" height="12.5" fill="#0702FF" /><rect x="698.75" y="338.75" width="12.5" height="12.5" fill="#0702FF" /><rect x="731.0" y="341.0" width="8.0" height="8.0" fill="#0702FF" /><rect x="758.75" y="338.75" width="12.5" height="12.5" fill="#0702FF" /><rect x="791.0" y="341.0" width="8.0" height="8.0" fill="#0702FF" /><rect x="818.75" y="338.75" width="12.5" height="12.5" fill="#0702FF" /><rect x="853.25" y="343.25" width="3.5" height="3.5" fill="#0702FF" /><rect x="881.0" y="341.0" width="8.0" height="8.0" fill="#0702FF" /><rect x="911.0" y="341.0" width="8.0" height="8.0" fill="#0702FF" /><rect x="941.0" y="341.0" width="8.0" height="8.0" fill="#0702FF" /><rect x="1033.25" y="343.25" width="3.5" height="3.5" fill="#0702FF" /><rect x="253.25" y="373.25" width="3.5" height="3.5" fill="#0702FF" /><rect x="283.25" y="373.25" width="3.5" height="3.5" fill="#0702FF" /><rect x="313.25" y="373.25" width="3.5" height="3.5" fill="#0702FF" /><rect x="341.0" y="371.0" width="8.0" height="8.0" fill="#0702FF" /><rect x="371.0" y="371.0" width="8.0" height="8.0" fill="#0702FF" /><rect x="401.0" y="371.0" width="8.0" height="8.0" fill="#0702FF" /><rect x="431.0" y="371.0" width="8.0" height="8.0" fill="#0702FF" /><rect x="461.0" y="371.0" width="8.0" height="8.0" fill="#0702FF" /><rect x="488.75" y="368.75" width="12.5" height="12.5" fill="#0702FF" /><rect x="521.0" y="371.0" width="8.0" height="8.0" fill="#0702FF" /><rect x="548.75" y="368.75" width="12.5" height="12.5" fill="#0702FF" /><rect x="578.75" y="368.75" width="12.5" height="12.5" fill="#0702FF" /><rect x="608.75" y="368.75" width="12.5" height="12.5" fill="#0702FF" /><rect x="638.75" y="368.75" width="12.5" height="12.5" fill="#0702FF" /><rect x="671.0" y="371.0" width="8.0" height="8.0" fill="#0702FF" /><rect x="698.75" y="368.75" width="12.5" height="12.5" fill="#0702FF" /><rect x="731.0" y="371.0" width="8.0" height="8.0" fill="#0702FF" /><rect x="761.0" y="371.0" width="8.0" height="8.0" fill="#0702FF" /><rect x="788.75" y="368.75" width="12.5" height="12.5" fill="#0702FF" /><rect x="818.75" y="368.75" width="12.5" height="12.5" fill="#0702FF" /><rect x="853.25" y="373.25" width="3.5" height="3.5" fill="#0702FF" /><rect x="883.25" y="373.25" width="3.5" height="3.5" fill="#0702FF" /><rect x="911.0" y="371.0" width="8.0" height="8.0" fill="#0702FF" /><rect x="941.0" y="371.0" width="8.0" height="8.0" fill="#0702FF" /><rect x="973.25" y="373.25" width="3.5" height="3.5" fill="#0702FF" /><rect x="1003.25" y="373.25" width="3.5" height="3.5" fill="#0702FF" /><rect x="1033.25" y="373.25" width="3.5" height="3.5" fill="#0702FF" /><rect x="1063.25" y="373.25" width="3.5" height="3.5" fill="#0702FF" /><rect x="313.25" y="403.25" width="3.5" height="3.5" fill="#0702FF" /><rect x="371.0" y="401.0" width="8.0" height="8.0" fill="#0702FF" /><rect x="401.0" y="401.0" width="8.0" height="8.0" fill="#0702FF" /><rect x="431.0" y="401.0" width="8.0" height="8.0" fill="#0702FF" /><rect x="461.0" y="401.0" width="8.0" height="8.0" fill="#0702FF" /><rect x="491.0" y="401.0" width="8.0" height="8.0" fill="#0702FF" /><rect x="521.0" y="401.0" width="8.0" height="8.0" fill="#0702FF" /><rect x="548.75" y="398.75" width="12.5" height="12.5" fill="#0702FF" /><rect x="578.75" y="398.75" width="12.5" height="12.5" fill="#0702FF" /><rect x="608.75" y="398.75" width="12.5" height="12.5" fill="#0702FF" /><rect x="638.75" y="398.75" width="12.5" height="12.5" fill="#0702FF" /><rect x="668.75" y="398.75" width="12.5" height="12.5" fill="#0702FF" /><rect x="698.75" y="398.75" width="12.5" height="12.5" fill="#0702FF" /><rect x="728.75" y="398.75" width="12.5" height="12.5" fill="#0702FF" /><rect x="761.0" y="401.0" width="8.0" height="8.0" fill="#0702FF" /><rect x="791.0" y="401.0" width="8.0" height="8.0" fill="#0702FF" /><rect x="821.0" y="401.0" width="8.0" height="8.0" fill="#0702FF" /><rect x="851.0" y="401.0" width="8.0" height="8.0" fill="#0702FF" /><rect x="881.0" y="401.0" width="8.0" height="8.0" fill="#0702FF" /><rect x="913.25" y="403.25" width="3.5" height="3.5" fill="#0702FF" /><rect x="943.25" y="403.25" width="3.5" height="3.5" fill="#0702FF" /><rect x="971.0" y="401.0" width="8.0" height="8.0" fill="#0702FF" /><rect x="1001.0" y="401.0" width="8.0" height="8.0" fill="#0702FF" /><rect x="1033.25" y="403.25" width="3.5" height="3.5" fill="#0702FF" /><rect x="1063.25" y="403.25" width="3.5" height="3.5" fill="#0702FF" /><rect x="193.25" y="433.25" width="3.5" height="3.5" fill="#0702FF" /><rect x="223.25" y="433.25" width="3.5" height="3.5" fill="#0702FF" /><rect x="253.25" y="433.25" width="3.5" height="3.5" fill="#0702FF" /><rect x="281.0" y="431.0" width="8.0" height="8.0" fill="#0702FF" /><rect x="311.0" y="431.0" width="8.0" height="8.0" fill="#0702FF" /><rect x="341.0" y="431.0" width="8.0" height="8.0" fill="#0702FF" /><rect x="371.0" y="431.0" width="8.0" height="8.0" fill="#0702FF" /><rect x="401.0" y="431.0" width="8.0" height="8.0" fill="#0702FF" /><rect x="433.25" y="433.25" width="3.5" height="3.5" fill="#0702FF" /><rect x="461.0" y="431.0" width="8.0" height="8.0" fill="#0702FF" /><rect x="491.0" y="431.0" width="8.0" height="8.0" fill="#0702FF" /><rect x="521.0" y="431.0" width="8.0" height="8.0" fill="#0702FF" /><rect x="551.0" y="431.0" width="8.0" height="8.0" fill="#0702FF" /><rect x="581.0" y="431.0" width="8.0" height="8.0" fill="#0702FF" /><rect x="611.0" y="431.0" width="8.0" height="8.0" fill="#0702FF" /><rect x="638.75" y="428.75" width="12.5" height="12.5" fill="#0702FF" /><rect x="666.5" y="426.5" width="17.0" height="17.0" fill="#0702FF" /><rect x="698.75" y="428.75" width="12.5" height="12.5" fill="#0702FF" /><rect x="731.0" y="431.0" width="8.0" height="8.0" fill="#0702FF" /><rect x="761.0" y="431.0" width="8.0" height="8.0" fill="#0702FF" /><rect x="791.0" y="431.0" width="8.0" height="8.0" fill="#0702FF" /><rect x="823.25" y="433.25" width="3.5" height="3.5" fill="#0702FF" /><rect x="851.0" y="431.0" width="8.0" height="8.0" fill="#0702FF" /><rect x="881.0" y="431.0" width="8.0" height="8.0" fill="#0702FF" /><rect x="943.25" y="433.25" width="3.5" height="3.5" fill="#0702FF" /><rect x="973.25" y="433.25" width="3.5" height="3.5" fill="#0702FF" /><rect x="1003.25" y="433.25" width="3.5" height="3.5" fill="#0702FF" /><rect x="1033.25" y="433.25" width="3.5" height="3.5" fill="#0702FF" /><rect x="1063.25" y="433.25" width="3.5" height="3.5" fill="#0702FF" /><rect x="1093.25" y="433.25" width="3.5" height="3.5" fill="#0702FF" /><rect x="313.25" y="463.25" width="3.5" height="3.5" fill="#0702FF" /><rect x="343.25" y="463.25" width="3.5" height="3.5" fill="#0702FF" /><rect x="373.25" y="463.25" width="3.5" height="3.5" fill="#0702FF" /><rect x="461.0" y="461.0" width="8.0" height="8.0" fill="#0702FF" /><rect x="488.75" y="458.75" width="12.5" height="12.5" fill="#0702FF" /><rect x="518.75" y="458.75" width="12.5" height="12.5" fill="#0702FF" /><rect x="551.0" y="461.0" width="8.0" height="8.0" fill="#0702FF" /><rect x="578.75" y="458.75" width="12.5" height="12.5" fill="#0702FF" /><rect x="608.75" y="458.75" width="12.5" height="12.5" fill="#0702FF" /><rect x="641.0" y="461.0" width="8.0" height="8.0" fill="#0702FF" /><rect x="671.0" y="461.0" width="8.0" height="8.0" fill="#0702FF" /><rect x="703.25" y="463.25" width="3.5" height="3.5" fill="#0702FF" /><rect x="733.25" y="463.25" width="3.5" height="3.5" fill="#0702FF" /><rect x="761.0" y="461.0" width="8.0" height="8.0" fill="#0702FF" /><rect x="791.0" y="461.0" width="8.0" height="8.0" fill="#0702FF" /><rect x="821.0" y="461.0" width="8.0" height="8.0" fill="#0702FF" /><rect x="848.75" y="458.75" width="12.5" height="12.5" fill="#0702FF" /><rect x="878.75" y="458.75" width="12.5" height="12.5" fill="#0702FF" /><rect x="911.0" y="461.0" width="8.0" height="8.0" fill="#0702FF" /><rect x="941.0" y="461.0" width="8.0" height="8.0" fill="#0702FF" /><rect x="971.0" y="461.0" width="8.0" height="8.0" fill="#0702FF" /><rect x="223.25" y="493.25" width="3.5" height="3.5" fill="#0702FF" /><rect x="251.0" y="491.0" width="8.0" height="8.0" fill="#0702FF" /><rect x="283.25" y="493.25" width="3.5" height="3.5" fill="#0702FF" /><rect x="313.25" y="493.25" width="3.5" height="3.5" fill="#0702FF" /><rect x="341.0" y="491.0" width="8.0" height="8.0" fill="#0702FF" /><rect x="371.0" y="491.0" width="8.0" height="8.0" fill="#0702FF" /><rect x="401.0" y="491.0" width="8.0" height="8.0" fill="#0702FF" /><rect x="431.0" y="491.0" width="8.0" height="8.0" fill="#0702FF" /><rect x="458.75" y="488.75" width="12.5" height="12.5" fill="#0702FF" /><rect x="488.75" y="488.75" width="12.5" height="12.5" fill="#0702FF" /><rect x="521.0" y="491.0" width="8.0" height="8.0" fill="#0702FF" /><rect x="551.0" y="491.0" width="8.0" height="8.0" fill="#0702FF" /><rect x="578.75" y="488.75" width="12.5" height="12.5" fill="#0702FF" /><rect x="608.75" y="488.75" width="12.5" height="12.5" fill="#0702FF" /><rect x="641.0" y="491.0" width="8.0" height="8.0" fill="#0702FF" /><rect x="671.0" y="491.0" width="8.0" height="8.0" fill="#0702FF" /><rect x="698.75" y="488.75" width="12.5" height="12.5" fill="#0702FF" /><rect x="728.75" y="488.75" width="12.5" height="12.5" fill="#0702FF" /><rect x="761.0" y="491.0" width="8.0" height="8.0" fill="#0702FF" /><rect x="791.0" y="491.0" width="8.0" height="8.0" fill="#0702FF" /><rect x="821.0" y="491.0" width="8.0" height="8.0" fill="#0702FF" /><rect x="853.25" y="493.25" width="3.5" height="3.5" fill="#0702FF" /><rect x="911.0" y="491.0" width="8.0" height="8.0" fill="#0702FF" /><rect x="943.25" y="493.25" width="3.5" height="3.5" fill="#0702FF" /><rect x="973.25" y="493.25" width="3.5" height="3.5" fill="#0702FF" /><rect x="1003.25" y="493.25" width="3.5" height="3.5" fill="#0702FF" /><rect x="1033.25" y="493.25" width="3.5" height="3.5" fill="#0702FF" /><rect x="283.25" y="523.25" width="3.5" height="3.5" fill="#0702FF" /><rect x="313.25" y="523.25" width="3.5" height="3.5" fill="#0702FF" /><rect x="343.25" y="523.25" width="3.5" height="3.5" fill="#0702FF" /><rect x="373.25" y="523.25" width="3.5" height="3.5" fill="#0702FF" /><rect x="401.0" y="521.0" width="8.0" height="8.0" fill="#0702FF" /><rect x="433.25" y="523.25" width="3.5" height="3.5" fill="#0702FF" /><rect x="461.0" y="521.0" width="8.0" height="8.0" fill="#0702FF" /><rect x="491.0" y="521.0" width="8.0" height="8.0" fill="#0702FF" /><rect x="521.0" y="521.0" width="8.0" height="8.0" fill="#0702FF" /><rect x="548.75" y="518.75" width="12.5" height="12.5" fill="#0702FF" /><rect x="581.0" y="521.0" width="8.0" height="8.0" fill="#0702FF" /><rect x="608.75" y="518.75" width="12.5" height="12.5" fill="#0702FF" /><rect x="638.75" y="518.75" width="12.5" height="12.5" fill="#0702FF" /><rect x="668.75" y="518.75" width="12.5" height="12.5" fill="#0702FF" /><rect x="698.75" y="518.75" width="12.5" height="12.5" fill="#0702FF" /><rect x="731.0" y="521.0" width="8.0" height="8.0" fill="#0702FF" /><rect x="761.0" y="521.0" width="8.0" height="8.0" fill="#0702FF" /><rect x="791.0" y="521.0" width="8.0" height="8.0" fill="#0702FF" /><rect x="821.0" y="521.0" width="8.0" height="8.0" fill="#0702FF" /><rect x="851.0" y="521.0" width="8.0" height="8.0" fill="#0702FF" /><rect x="881.0" y="521.0" width="8.0" height="8.0" fill="#0702FF" /><rect x="913.25" y="523.25" width="3.5" height="3.5" fill="#0702FF" /><rect x="973.25" y="523.25" width="3.5" height="3.5" fill="#0702FF" /><rect x="1001.0" y="521.0" width="8.0" height="8.0" fill="#0702FF" /><rect x="283.25" y="553.25" width="3.5" height="3.5" fill="#0702FF" /><rect x="313.25" y="553.25" width="3.5" height="3.5" fill="#0702FF" /><rect x="343.25" y="553.25" width="3.5" height="3.5" fill="#0702FF" /><rect x="401.0" y="551.0" width="8.0" height="8.0" fill="#0702FF" /><rect x="431.0" y="551.0" width="8.0" height="8.0" fill="#0702FF" /><rect x="463.25" y="553.25" width="3.5" height="3.5" fill="#0702FF" /><rect x="521.0" y="551.0" width="8.0" height="8.0" fill="#0702FF" /><rect x="551.0" y="551.0" width="8.0" height="8.0" fill="#0702FF" /><rect x="581.0" y="551.0" width="8.0" height="8.0" fill="#0702FF" /><rect x="611.0" y="551.0" width="8.0" height="8.0" fill="#0702FF" /><rect x="641.0" y="551.0" width="8.0" height="8.0" fill="#0702FF" /><rect x="671.0" y="551.0" width="8.0" height="8.0" fill="#0702FF" /><rect x="701.0" y="551.0" width="8.0" height="8.0" fill="#0702FF" /><rect x="731.0" y="551.0" width="8.0" height="8.0" fill="#0702FF" /><rect x="761.0" y="551.0" width="8.0" height="8.0" fill="#0702FF" /><rect x="791.0" y="551.0" width="8.0" height="8.0" fill="#0702FF" /><rect x="821.0" y="551.0" width="8.0" height="8.0" fill="#0702FF" /><rect x="851.0" y="551.0" width="8.0" height="8.0" fill="#0702FF" /><rect x="883.25" y="553.25" width="3.5" height="3.5" fill="#0702FF" /><rect x="911.0" y="551.0" width="8.0" height="8.0" fill="#0702FF" /><rect x="943.25" y="553.25" width="3.5" height="3.5" fill="#0702FF" /><rect x="973.25" y="553.25" width="3.5" height="3.5" fill="#0702FF" /><rect x="1033.25" y="553.25" width="3.5" height="3.5" fill="#0702FF" /><rect x="283.25" y="583.25" width="3.5" height="3.5" fill="#0702FF" /><rect x="313.25" y="583.25" width="3.5" height="3.5" fill="#0702FF" /><rect x="341.0" y="581.0" width="8.0" height="8.0" fill="#0702FF" /><rect x="373.25" y="583.25" width="3.5" height="3.5" fill="#0702FF" /><rect x="403.25" y="583.25" width="3.5" height="3.5" fill="#0702FF" /><rect x="431.0" y="581.0" width="8.0" height="8.0" fill="#0702FF" /><rect x="461.0" y="581.0" width="8.0" height="8.0" fill="#0702FF" /><rect x="493.25" y="583.25" width="3.5" height="3.5" fill="#0702FF" /><rect x="521.0" y="581.0" width="8.0" height="8.0" fill="#0702FF" /><rect x="551.0" y="581.0" width="8.0" height="8.0" fill="#0702FF" /><rect x="581.0" y="581.0" width="8.0" height="8.0" fill="#0702FF" /><rect x="608.75" y="578.75" width="12.5" height="12.5" fill="#0702FF" /><rect x="641.0" y="581.0" width="8.0" height="8.0" fill="#0702FF" /><rect x="671.0" y="581.0" width="8.0" height="8.0" fill="#0702FF" /><rect x="701.0" y="581.0" width="8.0" height="8.0" fill="#0702FF" /><rect x="731.0" y="581.0" width="8.0" height="8.0" fill="#0702FF" /><rect x="761.0" y="581.0" width="8.0" height="8.0" fill="#0702FF" /><rect x="791.0" y="581.0" width="8.0" height="8.0" fill="#0702FF" /><rect x="821.0" y="581.0" width="8.0" height="8.0" fill="#0702FF" /><rect x="853.25" y="583.25" width="3.5" height="3.5" fill="#0702FF" /><rect x="881.0" y="581.0" width="8.0" height="8.0" fill="#0702FF" /><rect x="913.25" y="583.25" width="3.5" height="3.5" fill="#0702FF" /><rect x="941.0" y="581.0" width="8.0" height="8.0" fill="#0702FF" /><rect x="343.25" y="613.25" width="3.5" height="3.5" fill="#0702FF" /><rect x="371.0" y="611.0" width="8.0" height="8.0" fill="#0702FF" /><rect x="433.25" y="613.25" width="3.5" height="3.5" fill="#0702FF" /><rect x="463.25" y="613.25" width="3.5" height="3.5" fill="#0702FF" /><rect x="521.0" y="611.0" width="8.0" height="8.0" fill="#0702FF" /><rect x="551.0" y="611.0" width="8.0" height="8.0" fill="#0702FF" /><rect x="581.0" y="611.0" width="8.0" height="8.0" fill="#0702FF" /><rect x="611.0" y="611.0" width="8.0" height="8.0" fill="#0702FF" /><rect x="643.25" y="613.25" width="3.5" height="3.5" fill="#0702FF" /><rect x="733.25" y="613.25" width="3.5" height="3.5" fill="#0702FF" /><rect x="761.0" y="611.0" width="8.0" height="8.0" fill="#0702FF" /><rect x="791.0" y="611.0" width="8.0" height="8.0" fill="#0702FF" /><rect x="821.0" y="611.0" width="8.0" height="8.0" fill="#0702FF" /><rect x="853.25" y="613.25" width="3.5" height="3.5" fill="#0702FF" /><rect x="913.25" y="613.25" width="3.5" height="3.5" fill="#0702FF" /><rect x="283.25" y="643.25" width="3.5" height="3.5" fill="#0702FF" /><rect x="343.25" y="643.25" width="3.5" height="3.5" fill="#0702FF" /><rect x="371.0" y="641.0" width="8.0" height="8.0" fill="#0702FF" /><rect x="401.0" y="641.0" width="8.0" height="8.0" fill="#0702FF" /><rect x="431.0" y="641.0" width="8.0" height="8.0" fill="#0702FF" /><rect x="461.0" y="641.0" width="8.0" height="8.0" fill="#0702FF" /><rect x="493.25" y="643.25" width="3.5" height="3.5" fill="#0702FF" /><rect x="521.0" y="641.0" width="8.0" height="8.0" fill="#0702FF" /><rect x="553.25" y="643.25" width="3.5" height="3.5" fill="#0702FF" /><rect x="581.0" y="641.0" width="8.0" height="8.0" fill="#0702FF" /><rect x="611.0" y="641.0" width="8.0" height="8.0" fill="#0702FF" /><rect x="643.25" y="643.25" width="3.5" height="3.5" fill="#0702FF" /><rect x="673.25" y="643.25" width="3.5" height="3.5" fill="#0702FF" /><rect x="701.0" y="641.0" width="8.0" height="8.0" fill="#0702FF" /><rect x="731.0" y="641.0" width="8.0" height="8.0" fill="#0702FF" /><rect x="761.0" y="641.0" width="8.0" height="8.0" fill="#0702FF" /><rect x="791.0" y="641.0" width="8.0" height="8.0" fill="#0702FF" /><rect x="821.0" y="641.0" width="8.0" height="8.0" fill="#0702FF" /><rect x="853.25" y="643.25" width="3.5" height="3.5" fill="#0702FF" /><rect x="883.25" y="643.25" width="3.5" height="3.5" fill="#0702FF" /><rect x="911.0" y="641.0" width="8.0" height="8.0" fill="#0702FF" /><rect x="943.25" y="643.25" width="3.5" height="3.5" fill="#0702FF" /><rect x="973.25" y="643.25" width="3.5" height="3.5" fill="#0702FF" /><rect x="313.25" y="673.25" width="3.5" height="3.5" fill="#0702FF" /><rect x="463.25" y="673.25" width="3.5" height="3.5" fill="#0702FF" /><rect x="491.0" y="671.0" width="8.0" height="8.0" fill="#0702FF" /><rect x="523.25" y="673.25" width="3.5" height="3.5" fill="#0702FF" /><rect x="553.25" y="673.25" width="3.5" height="3.5" fill="#0702FF" /><rect x="611.0" y="671.0" width="8.0" height="8.0" fill="#0702FF" /><rect x="641.0" y="671.0" width="8.0" height="8.0" fill="#0702FF" /><rect x="673.25" y="673.25" width="3.5" height="3.5" fill="#0702FF" /><rect x="701.0" y="671.0" width="8.0" height="8.0" fill="#0702FF" /><rect x="733.25" y="673.25" width="3.5" height="3.5" fill="#0702FF" /><rect x="883.25" y="673.25" width="3.5" height="3.5" fill="#0702FF" /><rect x="913.25" y="673.25" width="3.5" height="3.5" fill="#0702FF" /><rect x="1003.25" y="673.25" width="3.5" height="3.5" fill="#0702FF" /><rect x="433.25" y="703.25" width="3.5" height="3.5" fill="#0702FF" /><rect x="523.25" y="703.25" width="3.5" height="3.5" fill="#0702FF" /><rect x="553.25" y="703.25" width="3.5" height="3.5" fill="#0702FF" /><rect x="581.0" y="701.0" width="8.0" height="8.0" fill="#0702FF" /><rect x="611.0" y="701.0" width="8.0" height="8.0" fill="#0702FF" /><rect x="643.25" y="703.25" width="3.5" height="3.5" fill="#0702FF" /><rect x="673.25" y="703.25" width="3.5" height="3.5" fill="#0702FF" /><rect x="703.25" y="703.25" width="3.5" height="3.5" fill="#0702FF" /><rect x="731.0" y="701.0" width="8.0" height="8.0" fill="#0702FF" /><rect x="761.0" y="701.0" width="8.0" height="8.0" fill="#0702FF" /><rect x="823.25" y="703.25" width="3.5" height="3.5" fill="#0702FF" /><rect x="851.0" y="701.0" width="8.0" height="8.0" fill="#0702FF" /></svg>