<svg width="2579" height="200" xmlns="http://www.w3.org/2000/svg"><rect x="0.0" y="199.94165619020424" width="6.4475" height="0.05834380979575504" fill="#0702FF" /><rect x="6.4475" y="200" width="6.4475" height="0" fill="#0702FF" /><rect x="12.895" y="198.61069668366167" width="6.4475" height="1.3893033163383248" fill="#0702FF" /><rect x="19.3425" y="200" width="6.4475" height="0" fill="#0702FF" /><rect x="25.79" y="195.2477439554124" width="6.4475" height="4.752256044587593" fill="#0702FF" /><rect x="32.2375" y="199.71721833528758" width="6.4475" height="0.28278166471241917" fill="#0702FF" /><rect x="38.685" y="200" width="6.4475" height="0" fill="#0702FF" /><rect x="45.1325" y="200" width="6.4475" height="0" fill="#0702FF" /><rect x="51.58" y="190.56730776695642" width="6.4475" height="9.432692233043594" fill="#0702FF" /><rect x="58.027499999999996" y="200" width="6.4475" height="0" fill="#0702FF" /><rect x="64.475" y="198.78862977840558" width="6.4475" height="1.2113702215944169" fill="#0702FF" /><rect x="70.9225" y="200" width="6.4475" height="0" fill="#0702FF" /><rect x="77.37" y="193.632838514926" width="6.4475" height="6.367161485074019" fill="#0702FF" /><rect x="83.8175" y="200" width="6.4475" height="0" fill="#0702FF" /><rect x="90.265" y="200" width="6.4475" height="0" fill="#0702FF" /><rect x="96.71249999999999" y="200" width="6.4475" height="0" fill="#0702FF" /><rect x="103.16" y="196.67200780412654" width="6.4475" height="3.3279921958734637" fill="#0702FF" /><rect x="109.6075" y="192.93464659417157" width="6.4475" height="7.065353405828431" fill="#0702FF" /><rect x="116.05499999999999" y="200" width="6.4475" height="0" fill="#0702FF" /><rect x="122.5025" y="193.25361359625106" width="6.4475" height="6.746386403748948" fill="#0702FF" /><rect x="128.95" y="191.558023447155" width="6.4475" height="8.441976552845007" fill="#0702FF" /><rect x="135.3975" y="197.50580055698643" width="6.4475" height="2.494199443013562" fill="#0702FF" /><rect x="141.845" y="200" width="6.4475" height="0" fill="#0702FF" /><rect x="148.2925" y="200" width="6.4475" height="0" fill="#0702FF" /><rect x="154.74" y="199.30999642253673" width="6.4475" height="0.6900035774632763" fill="#0702FF" /><rect x="161.1875" y="200" width="6.4475" height="0" fill="#0702FF" /><rect x="167.635" y="200" width="6.4475" height="0" fill="#0702FF" /><rect x="174.08249999999998" y="194.7805355945924" width="6.4475" height="5.21946440540758" fill="#0702FF" /><rect x="180.53" y="197.38873835638412" width="6.4475" height="2.611261643615871" fill="#0702FF" /><rect x="186.9775" y="190.46864560896327" width="6.4475" height="9.531354391036734" fill="#0702FF" /><rect x="193.42499999999998" y="200" width="6.4475" height="0" fill="#0702FF" /><rect x="199.8725" y="197.1778903785343" width="6.4475" height="2.822109621465686" fill="#0702FF" /><rect x="206.32" y="200" width="6.4475" height="0" fill="#0702FF" /><rect x="212.76749999999998" y="196.9100407292709" width="6.4475" height="3.0899592707291084" fill="#0702FF" /><rect x="219.215" y="200" width="6.4475" height="0" fill="#0702FF" /><rect x="225.6625" y="193.2819267986165" width="6.4475" height="6.718073201383494" fill="#0702FF" /><rect x="232.10999999999999" y="200" width="6.4475" height="0" fill="#0702FF" /><rect x="238.5575" y="192.26424691071585" width="6.4475" height="7.735753089284157" fill="#0702FF" /><rect x="245.005" y="200" width="6.4475" height="0" fill="#0702FF" /><rect x="251.4525" y="195.84235673940685" width="6.4475" height="4.15764326059316" fill="#0702FF" /><rect x="257.9" y="191.0809943382504" width="6.4475" height="8.919005661749582" fill="#0702FF" /><rect x="264.34749999999997" y="200" width="6.4475" height="0" fill="#0702FF" /><rect x="270.795" y="196.21837681793016" width="6.4475" height="3.781623182069829" fill="#0702FF" /><rect x="277.2425" y="189.26577971898837" width="6.4475" height="10.734220281011618" fill="#0702FF" /><rect x="283.69" y="191.01299331812257" width="6.4475" height="8.987006681877425" fill="#0702FF" /><rect x="290.1375" y="200" width="6.4475" height="0" fill="#0702FF" /><rect x="296.585" y="193.55312453653636" width="6.4475" height="6.44687546346365" fill="#0702FF" /><rect x="303.03249999999997" y="200" width="6.4475" height="0" fill="#0702FF" /><rect x="309.48" y="200" width="6.4475" height="0" fill="#0702FF" /><rect x="315.9275" y="197.53416282510355" width="6.4475" height="2.4658371748964436" fill="#0702FF" /><rect x="322.375" y="192.4323020261547" width="6.4475" height="7.567697973845311" fill="#0702FF" /><rect x="328.8225" y="190.87586125176102" width="6.4475" height="9.124138748238963" fill="#0702FF" /><rect x="335.27" y="198.48458256460088" width="6.4475" height="1.5154174353991012" fill="#0702FF" /><rect x="341.7175" y="198.29495324495173" width="6.4475" height="1.7050467550482655" fill="#0702FF" /><rect x="348.16499999999996" y="200" width="6.4475" height="0" fill="#0702FF" /><rect x="354.6125" y="200" width="6.4475" height="0" fill="#0702FF" /><rect x="361.06" y="188.52807594697825" width="6.4475" height="11.471924053021764" fill="#0702FF" /><rect x="367.5075" y="192.73882142585364" width="6.4475" height="7.261178574146353" fill="#0702FF" /><rect x="373.955" y="199.1934592749822" width="6.4475" height="0.8065407250178069" fill="#0702FF" /><rect x="380.4025" y="200" width="6.4475" height="0" fill="#0702FF" /><rect x="386.84999999999997" y="199.43217485086342" width="6.4475" height="0.5678251491365912" fill="#0702FF" /><rect x="393.2975" y="195.2917513683559" width="6.4475" height="4.7082486316441" fill="#0702FF" /><rect x="399.745" y="190.62374136603822" width="6.4475" height="9.37625863396177" fill="#0702FF" /><rect x="406.1925" y="198.59707454467224" width="6.4475" height="1.4029254553277581" fill="#0702FF" /><rect x="412.64" y="200" width="6.4475" height="0" fill="#0702FF" /><rect x="419.0875" y="200" width="6.4475" height="0" fill="#0702FF" /><rect x="425.53499999999997" y="196.90062249530712" width="6.4475" height="3.0993775046928866" fill="#0702FF" /><rect x="431.98249999999996" y="197.9665876462285" width="6.4475" height="2.0334123537714923" fill="#0702FF" /><rect x="438.43" y="200" width="6.4475" height="0" fill="#0702FF" /><rect x="444.8775" y="191.59536402069392" width="6.4475" height="8.404635979306093" fill="#0702FF" /><rect x="451.325" y="200" width="6.4475" height="0" fill="#0702FF" /><rect x="457.7725" y="186.5480321753677" width="6.4475" height="13.4519678246323" fill="#0702FF" /><rect x="464.21999999999997" y="196.44428053580043" width="6.4475" height="3.5557194641995777" fill="#0702FF" /><rect x="470.66749999999996" y="200" width="6.4475" height="0" fill="#0702FF" /><rect x="477.115" y="200" width="6.4475" height="0" fill="#0702FF" /><rect x="483.5625" y="190.20356568760116" width="6.4475" height="9.79643431239884" fill="#0702FF" /><rect x="490.01" y="185.86600233041315" width="6.4475" height="14.13399766958686" fill="#0702FF" /><rect x="496.4575" y="193.7038918903218" width="6.4475" height="6.296108109678192" fill="#0702FF" /><rect x="502.905" y="200" width="6.4475" height="0" fill="#0702FF" /><rect x="509.35249999999996" y="195.93323897897844" width="6.4475" height="4.066761021021558" fill="#0702FF" /><rect x="515.8" y="191.80684169549045" width="6.4475" height="8.193158304509566" fill="#0702FF" /><rect x="522.2475" y="200" width="6.4475" height="0" fill="#0702FF" /><rect x="528.6949999999999" y="196.1704078030833" width="6.4475" height="3.829592196916719" fill="#0702FF" /><rect x="535.1424999999999" y="200" width="6.4475" height="0" fill="#0702FF" /><rect x="541.59" y="197.45942986288463" width="6.4475" height="2.5405701371153775" fill="#0702FF" /><rect x="548.0375" y="188.45235253661784" width="6.4475" height="11.547647463382152" fill="#0702FF" /><rect x="554.485" y="193.63012717914927" width="6.4475" height="6.369872820850741" fill="#0702FF" /><rect x="560.9325" y="200" width="6.4475" height="0" fill="#0702FF" /><rect x="567.38" y="198.89013263359723" width="6.4475" height="1.1098673664027607" fill="#0702FF" /><rect x="573.8275" y="198.5080054136571" width="6.4475" height="1.4919945863429027" fill="#0702FF" /><rect x="580.275" y="198.63522329051557" width="6.4475" height="1.3647767094844208" fill="#0702FF" /><rect x="586.7225" y="184.19512707772927" width="6.4475" height="15.804872922270738" fill="#0702FF" /><rect x="593.17" y="195.67546106196602" width="6.4475" height="4.32453893803398" fill="#0702FF" /><rect x="599.6175" y="185.7939394729266" width="6.4475" height="14.206060527073387" fill="#0702FF" /><rect x="606.0649999999999" y="188.4536080565386" width="6.4475" height="11.546391943461396" fill="#0702FF" /><rect x="612.5124999999999" y="198.16909999767606" width="6.4475" height="1.8309000023239417" fill="#0702FF" /><rect x="618.96" y="195.0829394712744" width="6.4475" height="4.917060528725606" fill="#0702FF" /><rect x="625.4075" y="194.4014933352165" width="6.4475" height="5.598506664783501" fill="#0702FF" /><rect x="631.855" y="190.96873855764608" width="6.4475" height="9.031261442353914" fill="#0702FF" /><rect x="638.3025" y="188.4789175231116" width="6.4475" height="11.521082476888413" fill="#0702FF" /><rect x="644.75" y="200" width="6.4475" height="0" fill="#0702FF" /><rect x="651.1975" y="188.11056708182605" width="6.4475" height="11.889432918173954" fill="#0702FF" /><rect x="657.645" y="187.91512868937662" width="6.4475" height="12.084871310623388" fill="#0702FF" /><rect x="664.0925" y="185.06248137508737" width="6.4475" height="14.937518624912617" fill="#0702FF" /><rect x="670.54" y="185.68571115947287" width="6.4475" height="14.314288840527118" fill="#0702FF" /><rect x="676.9875" y="184.19327576853294" width="6.4475" height="15.806724231467056" fill="#0702FF" /><rect x="683.435" y="194.16171415866378" width="6.4475" height="5.83828584133621" fill="#0702FF" /><rect x="689.8824999999999" y="186.23449699342254" width="6.4475" height="13.765503006577468" fill="#0702FF" /><rect x="696.3299999999999" y="197.5918194653846" width="6.4475" height="2.40818053461542" fill="#0702FF" /><rect x="702.7775" y="182.94105260329994" width="6.4475" height="17.05894739670006" fill="#0702FF" /><rect x="709.225" y="199.99928608168787" width="6.4475" height="0.0007139183121424031" fill="#0702FF" /><rect x="715.6725" y="197.25249006461158" width="6.4475" height="2.7475099353884147" fill="#0702FF" /><rect x="722.12" y="188.16102894697994" width="6.4475" height="11.838971053020057" fill="#0702FF" /><rect x="728.5675" y="194.95899519353856" width="6.4475" height="5.041004806461443" fill="#0702FF" /><rect x="735.015" y="188.8118400917209" width="6.4475" height="11.188159908279104" fill="#0702FF" /><rect x="741.4625" y="187.21416535382517" width="6.4475" height="12.785834646174834" fill="#0702FF" /><rect x="747.91" y="192.1769662837628" width="6.4475" height="7.82303371623721" fill="#0702FF" /><rect x="754.3575" y="192.49137791655815" width="6.4475" height="7.508622083441837" fill="#0702FF" /><rect x="760.805" y="188.8384673182625" width="6.4475" height="11.161532681737508" fill="#0702FF" /><rect x="767.2524999999999" y="187.36960113987385" width="6.4475" height="12.630398860126157" fill="#0702FF" /><rect x="773.6999999999999" y="186.37843524749556" width="6.4475" height="13.621564752504451" fill="#0702FF" /><rect x="780.1474999999999" y="188.06779098081861" width="6.4475" height="11.932209019181393" fill="#0702FF" /><rect x="786.595" y="188.34441197222625" width="6.4475" height="11.655588027773739" fill="#0702FF" /><rect x="793.0425" y="179.2334701684405" width="6.4475" height="20.7665298315595" fill="#0702FF" /><rect x="799.49" y="188.2203917942284" width="6.4475" height="11.779608205771616" fill="#0702FF" /><rect x="805.9375" y="193.48598104647098" width="6.4475" height="6.514018953529016" fill="#0702FF" /><rect x="812.385" y="189.69087710148045" width="6.4475" height="10.309122898519538" fill="#0702FF" /><rect x="818.8325" y="178.48753138164923" width="6.4475" height="21.512468618350773" fill="#0702FF" /><rect x="825.28" y="193.49108914776463" width="6.4475" height="6.508910852235383" fill="#0702FF" /><rect x="831.7275" y="177.335643492395" width="6.4475" height="22.66435650760499" fill="#0702FF" /><rect x="838.175" y="190.4398827195808" width="6.4475" height="9.560117280419215" fill="#0702FF" /><rect x="844.6225" y="179.75799879966195" width="6.4475" height="20.242001200338063" fill="#0702FF" /><rect x="851.0699999999999" y="191.24843563789292" width="6.4475" height="8.75156436210708" fill="#0702FF" /><rect x="857.5174999999999" y="182.25685393630957" width="6.4475" height="17.743146063690432" fill="#0702FF" /><rect x="863.9649999999999" y="185.7674262949503" width="6.4475" height="14.232573705049706" fill="#0702FF" /><rect x="870.4125" y="178.34527951089444" width="6.4475" height="21.654720489105557" fill="#0702FF" /><rect x="876.86" y="175.84050707256833" width="6.4475" height="24.159492927431675" fill="#0702FF" /><rect x="883.3075" y="180.92053765481242" width="6.4475" height="19.07946234518757" fill="#0702FF" /><rect x="889.755" y="190.12427352110763" width="6.4475" height="9.875726478892377" fill="#0702FF" /><rect x="896.2025" y="187.70208317700283" width="6.4475" height="12.29791682299716" fill="#0702FF" /><rect x="902.65" y="186.53433427378815" width="6.4475" height="13.465665726211862" fill="#0702FF" /><rect x="909.0975" y="175.5756322382096" width="6.4475" height="24.424367761790386" fill="#0702FF" /><rect x="915.545" y="193.75712234040125" width="6.4475" height="6.242877659598742" fill="#0702FF" /><rect x="921.9925" y="190.82701057016578" width="6.4475" height="9.17298942983421" fill="#0702FF" /><rect x="928.4399999999999" y="191.32842359202309" width="6.4475" height="8.671576407976922" fill="#0702FF" /><rect x="934.8874999999999" y="176.82273260086984" width="6.4475" height="23.17726739913015" fill="#0702FF" /><rect x="941.3349999999999" y="175.65793966677847" width="6.4475" height="24.34206033322154" fill="#0702FF" /><rect x="947.7824999999999" y="184.77717790671812" width="6.4475" height="15.222822093281868" fill="#0702FF" /><rect x="954.23" y="184.57974994962942" width="6.4475" height="15.420250050370576" fill="#0702FF" /><rect x="960.6775" y="183.58855811749308" width="6.4475" height="16.41144188250692" fill="#0702FF" /><rect x="967.125" y="173.86192078433797" width="6.4475" height="26.138079215662042" fill="#0702FF" /><rect x="973.5725" y="190.07329758544478" width="6.4475" height="9.926702414555237" fill="#0702FF" /><rect x="980.02" y="178.38541876714112" width="6.4475" height="21.61458123285889" fill="#0702FF" /><rect x="986.4675" y="187.57483350921086" width="6.4475" height="12.425166490789133" fill="#0702FF" /><rect x="992.915" y="188.60649053946992" width="6.4475" height="11.393509460530069" fill="#0702FF" /><rect x="999.3625" y="177.9713699002078" width="6.4475" height="22.028630099792206" fill="#0702FF" /><rect x="1005.81" y="177.83184307130304" width="6.4475" height="22.168156928696963" fill="#0702FF" /><rect x="1012.2574999999999" y="178.1820089991248" width="6.4475" height="21.817991000875196" fill="#0702FF" /><rect x="1018.7049999999999" y="185.80789927561835" width="6.4475" height="14.192100724381659" fill="#0702FF" /><rect x="1025.1525" y="186.65388643789737" width="6.4475" height="13.34611356210263" fill="#0702FF" /><rect x="1031.6" y="184.2835173563287" width="6.4475" height="15.716482643671291" fill="#0702FF" /><rect x="1038.0475" y="170.8115092156323" width="6.4475" height="29.188490784367694" fill="#0702FF" /><rect x="1044.495" y="177.5962626057817" width="6.4475" height="22.403737394218297" fill="#0702FF" /><rect x="1050.9424999999999" y="185.1888879831515" width="6.4475" height="14.811112016848515" fill="#0702FF" /><rect x="1057.3899999999999" y="186.1389761219004" width="6.4475" height="13.861023878099576" fill="#0702FF" /><rect x="1063.8374999999999" y="186.97978812834862" width="6.4475" height="13.02021187165137" fill="#0702FF" /><rect x="1070.2849999999999" y="188.44748296814868" width="6.4475" height="11.552517031851325" fill="#0702FF" /><rect x="1076.7325" y="169.48612668329292" width="6.4475" height="30.51387331670708" fill="#0702FF" /><rect x="1083.18" y="181.5799563032566" width="6.4475" height="18.420043696743395" fill="#0702FF" /><rect x="1089.6275" y="180.58998310184296" width="6.4475" height="19.41001689815703" fill="#0702FF" /><rect x="1096.075" y="183.83646508485174" width="6.4475" height="16.163534915148265" fill="#0702FF" /><rect x="1102.5225" y="184.14448837667487" width="6.4475" height="15.855511623325125" fill="#0702FF" /><rect x="1108.97" y="180.91428328461777" width="6.4475" height="19.085716715382233" fill="#0702FF" /><rect x="1115.4175" y="172.06633326381146" width="6.4475" height="27.933666736188545" fill="#0702FF" /><rect x="1121.865" y="185.13383984418317" width="6.4475" height="14.866160155816837" fill="#0702FF" /><rect x="1128.3125" y="179.40933650558523" width="6.4475" height="20.590663494414763" fill="#0702FF" /><rect x="1134.76" y="167.30449490642695" width="6.4475" height="32.695505093573054" fill="#0702FF" /><rect x="1141.2075" y="179.59900189752108" width="6.4475" height="20.40099810247893" fill="#0702FF" /><rect x="1147.655" y="185.1931027158159" width="6.4475" height="14.806897284184087" fill="#0702FF" /><rect x="1154.1025" y="176.18869984006568" width="6.4475" height="23.81130015993432" fill="#0702FF" /><rect x="1160.55" y="172.52380653946557" width="6.4475" height="27.476193460534425" fill="#0702FF" /><rect x="1166.9975" y="171.27570376532535" width="6.4475" height="28.72429623467465" fill="#0702FF" /><rect x="1173.445" y="171.8157753146213" width="6.4475" height="28.184224685378684" fill="#0702FF" /><rect x="1179.8925" y="166.3947169313642" width="6.4475" height="33.605283068635785" fill="#0702FF" /><rect x="1186.34" y="172.32716720795318" width="6.4475" height="27.67283279204683" fill="#0702FF" /><rect x="1192.7875" y="171.74390558002443" width="6.4475" height="28.256094419975554" fill="#0702FF" /><rect x="1199.235" y="178.4325718716143" width="6.4475" height="21.567428128385686" fill="#0702FF" /><rect x="1205.6825" y="170.1664017262221" width="6.4475" height="29.833598273777916" fill="#0702FF" /><rect x="1212.1299999999999" y="178.84560775220052" width="6.4475" height="21.15439224779948" fill="#0702FF" /><rect x="1218.5774999999999" y="166.24650824266266" width="6.4475" height="33.753491757337336" fill="#0702FF" /><rect x="1225.0249999999999" y="172.4988226772613" width="6.4475" height="27.501177322738705" fill="#0702FF" /><rect x="1231.4724999999999" y="166.77958001719225" width="6.4475" height="33.22041998280775" fill="#0702FF" /><rect x="1237.92" y="163.21649645219873" width="6.4475" height="36.783503547801274" fill="#0702FF" /><rect x="1244.3675" y="178.30575890197503" width="6.4475" height="21.694241098024985" fill="#0702FF" /><rect x="1250.815" y="174.49826616505973" width="6.4475" height="25.501733834940264" fill="#0702FF" /><rect x="1257.2625" y="172.97336859220698" width="6.4475" height="27.026631407793023" fill="#0702FF" /><rect x="1263.71" y="168.23601899328958" width="6.4475" height="31.763981006710413" fill="#0702FF" /><rect x="1270.1575" y="166.02915512094893" width="6.4475" height="33.97084487905108" fill="#0702FF" /><rect x="1276.605" y="169.25270909630433" width="6.4475" height="30.747290903695657" fill="#0702FF" /><rect x="1283.0525" y="173.71748951947689" width="6.4475" height="26.282510480523126" fill="#0702FF" /><rect x="1289.5" y="179.12212436797648" width="6.4475" height="20.877875632023507" fill="#0702FF" /><rect x="1295.9475" y="163.83466542769537" width="6.4475" height="36.165334572304616" fill="#0702FF" /><rect x="1302.395" y="165.42679882713333" width="6.4475" height="34.57320117286666" fill="#0702FF" /><rect x="1308.8425" y="160.41339664024628" width="6.4475" height="39.586603359753724" fill="#0702FF" /><rect x="1315.29" y="173.09828380660983" width="6.4475" height="26.90171619339016" fill="#0702FF" /><rect x="1321.7375" y="170.53151797640206" width="6.4475" height="29.468482023597954" fill="#0702FF" /><rect x="1328.185" y="173.79740576170693" width="6.4475" height="26.202594238293063" fill="#0702FF" /><rect x="1334.6325" y="160.1362008761077" width="6.4475" height="39.863799123892306" fill="#0702FF" /><rect x="1341.08" y="167.63293355565727" width="6.4475" height="32.367066444342726" fill="#0702FF" /><rect x="1347.5275" y="166.1764970595902" width="6.4475" height="33.823502940409796" fill="#0702FF" /><rect x="1353.975" y="170.86762271742685" width="6.4475" height="29.13237728257314" fill="#0702FF" /><rect x="1360.4225" y="166.16372807748525" width="6.4475" height="33.83627192251474" fill="#0702FF" /><rect x="1366.87" y="160.71839747236453" width="6.4475" height="39.28160252763547" fill="#0702FF" /><rect x="1373.3174999999999" y="167.3779653351518" width="6.4475" height="32.6220346648482" fill="#0702FF" /><rect x="1379.7649999999999" y="158.34484315441534" width="6.4475" height="41.65515684558466" fill="#0702FF" /><rect x="1386.2124999999999" y="169.7849279887887" width="6.4475" height="30.215072011211312" fill="#0702FF" /><rect x="1392.6599999999999" y="165.41138641705373" width="6.4475" height="34.58861358294625" fill="#0702FF" /><rect x="1399.1074999999998" y="171.91714970426872" width="6.4475" height="28.082850295731287" fill="#0702FF" /><rect x="1405.555" y="165.2791116109162" width="6.4475" height="34.720888389083804" fill="#0702FF" /><rect x="1412.0025" y="155.77816371933483" width="6.4475" height="44.22183628066519" fill="#0702FF" /><rect x="1418.45" y="163.9394421371947" width="6.4475" height="36.06055786280531" fill="#0702FF" /><rect x="1424.8975" y="161.72414070155756" width="6.4475" height="38.27585929844245" fill="#0702FF" /><rect x="1431.345" y="170.89049456132935" width="6.4475" height="29.109505438670663" fill="#0702FF" /><rect x="1437.7925" y="152.85094629627972" width="6.4475" height="47.14905370372028" fill="#0702FF" /><rect x="1444.24" y="157.9727491364763" width="6.4475" height="42.02725086352372" fill="#0702FF" /><rect x="1450.6875" y="155.50880214389832" width="6.4475" height="44.49119785610169" fill="#0702FF" /><rect x="1457.135" y="165.3582896629837" width="6.4475" height="34.6417103370163" fill="#0702FF" /><rect x="1463.5825" y="158.51756193712436" width="6.4475" height="41.48243806287565" fill="#0702FF" /><rect x="1470.03" y="165.59366370783343" width="6.4475" height="34.406336292166564" fill="#0702FF" /><rect x="1476.4775" y="159.16037666120766" width="6.4475" height="40.83962333879233" fill="#0702FF" /><rect x="1482.925" y="161.46215052376635" width="6.4475" height="38.53784947623366" fill="#0702FF" /><rect x="1489.3725" y="168.55436090820902" width="6.4475" height="31.445639091790976" fill="#0702FF" /><rect x="1495.82" y="153.7581852777668" width="6.4475" height="46.24181472223317" fill="#0702FF" /><rect x="1502.2675" y="158.70526267331914" width="6.4475" height="41.29473732668086" fill="#0702FF" /><rect x="1508.715" y="160.45406837181793" width="6.4475" height="39.54593162818208" fill="#0702FF" /><rect x="1515.1625" y="148.5382299916267" width="6.4475" height="51.461770008373286" fill="#0702FF" /><rect x="1521.61" y="165.40421606422234" width="6.4475" height="34.595783935777675" fill="#0702FF" /><rect x="1528.0575" y="162.57294516399188" width="6.4475" height="37.427054836008125" fill="#0702FF" /><rect x="1534.5049999999999" y="151.87992557365817" width="6.4475" height="48.12007442634184" fill="#0702FF" /><rect x="1540.9524999999999" y="149.23180047205358" width="6.4475" height="50.76819952794642" fill="#0702FF" /><rect x="1547.3999999999999" y="159.06673802735577" width="6.4475" height="40.93326197264424" fill="#0702FF" /><rect x="1553.8474999999999" y="150.42265884925212" width="6.4475" height="49.57734115074788" fill="#0702FF" /><rect x="1560.2949999999998" y="154.81171650702854" width="6.4475" height="45.18828349297146" fill="#0702FF" /><rect x="1566.7424999999998" y="144.76047840047977" width="6.4475" height="55.239521599520245" fill="#0702FF" /><rect x="1573.19" y="147.55502027793005" width="6.4475" height="52.44497972206994" fill="#0702FF" /><rect x="1579.6375" y="145.73726482019134" width="6.4475" height="54.262735179808644" fill="#0702FF" /><rect x="1586.085" y="157.8331016270992" width="6.4475" height="42.16689837290079" fill="#0702FF" /><rect x="1592.5325" y="158.3210119851799" width="6.4475" height="41.6789880148201" fill="#0702FF" /><rect x="1598.98" y="158.80681501468257" width="6.4475" height="41.19318498531742" fill="#0702FF" /><rect x="1605.4275" y="150.77170789764867" width="6.4475" height="49.228292102351325" fill="#0702FF" /><rect x="1611.875" y="148.07959641593268" width="6.4475" height="51.92040358406731" fill="#0702FF" /><rect x="1618.3225" y="154.68000125770146" width="6.4475" height="45.319998742298544" fill="#0702FF" /><rect x="1624.77" y="146.8853742403526" width="6.4475" height="53.1146257596474" fill="#0702FF" /><rect x="1631.2175" y="141.37019936537294" width="6.4475" height="58.62980063462706" fill="#0702FF" /><rect x="1637.665" y="156.0686064032748" width="6.4475" height="43.9313935967252" fill="#0702FF" /><rect x="1644.1125" y="141.49873949179548" width="6.4475" height="58.501260508204524" fill="#0702FF" /><rect x="1650.56" y="145.47883602744605" width="6.4475" height="54.52116397255394" fill="#0702FF" /><rect x="1657.0075" y="144.56506316291174" width="6.4475" height="55.43493683708826" fill="#0702FF" /><rect x="1663.455" y="143.21446983671456" width="6.4475" height="56.78553016328546" fill="#0702FF" /><rect x="1669.9025" y="154.3736540832123" width="6.4475" height="45.626345916787706" fill="#0702FF" /><rect x="1676.35" y="152.00114570760394" width="6.4475" height="47.99885429239605" fill="#0702FF" /><rect x="1682.7975" y="154.142016807701" width="6.4475" height="45.857983192299" fill="#0702FF" /><rect x="1689.245" y="147.81489784556112" width="6.4475" height="52.18510215443888" fill="#0702FF" /><rect x="1695.6924999999999" y="150.04144675181809" width="6.4475" height="49.958553248181914" fill="#0702FF" /><rect x="1702.1399999999999" y="153.01144650020268" width="6.4475" height="46.988553499797305" fill="#0702FF" /><rect x="1708.5874999999999" y="144.60542809970553" width="6.4475" height="55.39457190029447" fill="#0702FF" /><rect x="1715.0349999999999" y="145.52298546761892" width="6.4475" height="54.477014532381084" fill="#0702FF" /><rect x="1721.4824999999998" y="138.41359649983278" width="6.4475" height="61.58640350016723" fill="#0702FF" /><rect x="1727.9299999999998" y="136.70575434091657" width="6.4475" height="63.29424565908342" fill="#0702FF" /><rect x="1734.3775" y="149.89721188557945" width="6.4475" height="50.10278811442056" fill="#0702FF" /><rect x="1740.825" y="147.96249288998564" width="6.4475" height="52.037507110014346" fill="#0702FF" /><rect x="1747.2725" y="146.3582086922729" width="6.4475" height="53.641791307727104" fill="#0702FF" /><rect x="1753.72" y="142.6357546883946" width="6.4475" height="57.3642453116054" fill="#0702FF" /><rect x="1760.1675" y="148.54550400987793" width="6.4475" height="51.454495990122076" fill="#0702FF" /><rect x="1766.615" y="150.33145313577614" width="6.4475" height="49.66854686422387" fill="#0702FF" /><rect x="1773.0625" y="143.32196690084277" width="6.4475" height="56.67803309915723" fill="#0702FF" /><rect x="1779.51" y="139.32071482963798" width="6.4475" height="60.67928517036202" fill="#0702FF" /><rect x="1785.9575" y="131.29090398864417" width="6.4475" height="68.70909601135583" fill="#0702FF" /><rect x="1792.405" y="131.2130647996165" width="6.4475" height="68.78693520038351" fill="#0702FF" /><rect x="1798.8525" y="130.938561170296" width="6.4475" height="69.06143882970402" fill="#0702FF" /><rect x="1805.3" y="83.45754292737773" width="6.4475" height="116.54245707262227" fill="#0702FF" /><rect x="1811.7475" y="41.84856793157533" width="6.4475" height="158.15143206842467" fill="#0702FF" /><rect x="1818.195" y="60.32612151370685" width="6.4475" height="139.67387848629315" fill="#0702FF" /><rect x="1824.6425" y="95.79844607300441" width="6.4475" height="104.20155392699559" fill="#0702FF" /><rect x="1831.09" y="85.26296254356711" width="6.4475" height="114.73703745643289" fill="#0702FF" /><rect x="1837.5375" y="99.85011588864745" width="6.4475" height="100.14988411135255" fill="#0702FF" /><rect x="1843.985" y="40.259096925240186" width="6.4475" height="159.7409030747598" fill="#0702FF" /><rect x="1850.4325" y="94.98820752741099" width="6.4475" height="105.01179247258901" fill="#0702FF" /><rect x="1856.8799999999999" y="44.97728286221505" width="6.4475" height="155.02271713778495" fill="#0702FF" /><rect x="1863.3274999999999" y="70.38348191862201" width="6.4475" height="129.616518081378" fill="#0702FF" /><rect x="1869.7749999999999" y="52.786483029336324" width="6.4475" height="147.21351697066368" fill="#0702FF" /><rect x="1876.2224999999999" y="80.92619049915699" width="6.4475" height="119.07380950084301" fill="#0702FF" /><rect x="1882.6699999999998" y="72.6548751592794" width="6.4475" height="127.3451248407206" fill="#0702FF" /><rect x="1889.1174999999998" y="78.16319063136183" width="6.4475" height="121.83680936863817" fill="#0702FF" /><rect x="1895.5649999999998" y="90.01919883205586" width="6.4475" height="109.98080116794414" fill="#0702FF" /><rect x="1902.0125" y="54.553555941786215" width="6.4475" height="145.44644405821379" fill="#0702FF" /><rect x="1908.46" y="87.2113589259115" width="6.4475" height="112.7886410740885" fill="#0702FF" /><rect x="1914.9075" y="87.88078826820231" width="6.4475" height="112.11921173179769" fill="#0702FF" /><rect x="1921.355" y="61.23614498571041" width="6.4475" height="138.7638550142896" fill="#0702FF" /><rect x="1927.8025" y="58.89629292187823" width="6.4475" height="141.10370707812177" fill="#0702FF" /><rect x="1934.25" y="74.13211939424068" width="6.4475" height="125.86788060575932" fill="#0702FF" /><rect x="1940.6975" y="92.90638071452982" width="6.4475" height="107.09361928547018" fill="#0702FF" /><rect x="1947.145" y="58.3245340362019" width="6.4475" height="141.6754659637981" fill="#0702FF" /><rect x="1953.5925" y="93.0283871649952" width="6.4475" height="106.9716128350048" fill="#0702FF" /><rect x="1960.04" y="96.64917154940763" width="6.4475" height="103.35082845059237" fill="#0702FF" /><rect x="1966.4875" y="81.41223293210136" width="6.4475" height="118.58776706789864" fill="#0702FF" /><rect x="1972.935" y="80.51816827841517" width="6.4475" height="119.48183172158483" fill="#0702FF" /><rect x="1979.3825" y="54.44798054385649" width="6.4475" height="145.5520194561435" fill="#0702FF" /><rect x="1985.83" y="81.79511549312193" width="6.4475" height="118.20488450687807" fill="#0702FF" /><rect x="1992.2775" y="63.73647899063948" width="6.4475" height="136.26352100936052" fill="#0702FF" /><rect x="1998.725" y="66.18821696807672" width="6.4475" height="133.81178303192328" fill="#0702FF" /><rect x="2005.1725" y="44.04025538149176" width="6.4475" height="155.95974461850824" fill="#0702FF" /><rect x="2011.62" y="68.2570162799062" width="6.4475" height="131.7429837200938" fill="#0702FF" /><rect x="2018.0674999999999" y="56.69314210003705" width="6.4475" height="143.30685789996295" fill="#0702FF" /><rect x="2024.5149999999999" y="75.08095347862368" width="6.4475" height="124.91904652137632" fill="#0702FF" /><rect x="2030.9624999999999" y="43.291429670594084" width="6.4475" height="156.70857032940592" fill="#0702FF" /><rect x="2037.4099999999999" y="92.4997151599749" width="6.4475" height="107.5002848400251" fill="#0702FF" /><rect x="2043.8574999999998" y="41.77347961106159" width="6.4475" height="158.2265203889384" fill="#0702FF" /><rect x="2050.305" y="89.24314203570614" width="6.4475" height="110.75685796429386" fill="#0702FF" /><rect x="2056.7525" y="40.622294912182696" width="6.4475" height="159.3777050878173" fill="#0702FF" /><rect x="2063.2" y="79.79940502365825" width="6.4475" height="120.20059497634175" fill="#0702FF" /><rect x="2069.6475" y="42.01939756855796" width="6.4475" height="157.98060243144204" fill="#0702FF" /><rect x="2076.095" y="71.57201545749899" width="6.4475" height="128.427984542501" fill="#0702FF" /><rect x="2082.5425" y="52.42546605429703" width="6.4475" height="147.57453394570297" fill="#0702FF" /><rect x="2088.99" y="77.40104411787823" width="6.4475" height="122.59895588212177" fill="#0702FF" /><rect x="2095.4375" y="48.940568016027584" width="6.4475" height="151.05943198397242" fill="#0702FF" /><rect x="2101.8849999999998" y="44.961661764519874" width="6.4475" height="155.03833823548013" fill="#0702FF" /><rect x="2108.3325" y="47.70010807862894" width="6.4475" height="152.29989192137106" fill="#0702FF" /><rect x="2114.7799999999997" y="89.82658509576336" width="6.4475" height="110.17341490423664" fill="#0702FF" /><rect x="2121.2275" y="76.24198990281302" width="6.4475" height="123.75801009718698" fill="#0702FF" /><rect x="2127.6749999999997" y="90.42668436490482" width="6.4475" height="109.57331563509518" fill="#0702FF" /><rect x="2134.1225" y="63.61353454470171" width="6.4475" height="136.3864654552983" fill="#0702FF" /><rect x="2140.5699999999997" y="58.54264246969586" width="6.4475" height="141.45735753030414" fill="#0702FF" /><rect x="2147.0175" y="81.76431281595833" width="6.4475" height="118.23568718404167" fill="#0702FF" /><rect x="2153.465" y="96.14144524982522" width="6.4475" height="103.85855475017478" fill="#0702FF" /><rect x="2159.9125" y="56.806303367146285" width="6.4475" height="143.19369663285372" fill="#0702FF" /><rect x="2166.36" y="58.24730977866844" width="6.4475" height="141.75269022133156" fill="#0702FF" /><rect x="2172.8075" y="77.98548265625058" width="6.4475" height="122.01451734374942" fill="#0702FF" /><rect x="2179.255" y="85.02326152718129" width="6.4475" height="114.97673847281871" fill="#0702FF" /><rect x="2185.7025" y="92.23288487276047" width="6.4475" height="107.76711512723953" fill="#0702FF" /><rect x="2192.15" y="82.1300446690412" width="6.4475" height="117.8699553309588" fill="#0702FF" /><rect x="2198.5975" y="91.41115344524124" width="6.4475" height="108.58884655475876" fill="#0702FF" /><rect x="2205.045" y="94.9230136031955" width="6.4475" height="105.0769863968045" fill="#0702FF" /><rect x="2211.4925" y="89.76027650723472" width="6.4475" height="110.23972349276528" fill="#0702FF" /><rect x="2217.94" y="50.29527500370358" width="6.4475" height="149.70472499629642" fill="#0702FF" /><rect x="2224.3875" y="44.7684957047652" width="6.4475" height="155.2315042952348" fill="#0702FF" /><rect x="2230.835" y="57.39137531819617" width="6.4475" height="142.60862468180383" fill="#0702FF" /><rect x="2237.2825" y="55.410847016452834" width="6.4475" height="144.58915298354717" fill="#0702FF" /><rect x="2243.73" y="99.68133426344426" width="6.4475" height="100.31866573655574" fill="#0702FF" /><rect x="2250.1775" y="54.90978053215184" width="6.4475" height="145.09021946784816" fill="#0702FF" /><rect x="2256.625" y="51.347092961924375" width="6.4475" height="148.65290703807563" fill="#0702FF" /><rect x="2263.0724999999998" y="66.78164701140716" width="6.4475" height="133.21835298859284" fill="#0702FF" /><rect x="2269.52" y="72.66474842103854" width="6.4475" height="127.33525157896146" fill="#0702FF" /><rect x="2275.9674999999997" y="46.86365145172658" width="6.4475" height="153.13634854827342" fill="#0702FF" /><rect x="2282.415" y="96.37001540476946" width="6.4475" height="103.62998459523054" fill="#0702FF" /><rect x="2288.8624999999997" y="48.262119648463994" width="6.4475" height="151.737880351536" fill="#0702FF" /><rect x="2295.31" y="64.8612475763239" width="6.4475" height="135.1387524236761" fill="#0702FF" /><rect x="2301.7574999999997" y="40.30683236472075" width="6.4475" height="159.69316763527925" fill="#0702FF" /><rect x="2308.205" y="59.38702890649233" width="6.4475" height="140.61297109350767" fill="#0702FF" /><rect x="2314.6525" y="82.58420172236009" width="6.4475" height="117.41579827763991" fill="#0702FF" /><rect x="2321.1" y="78.4026298435833" width="6.4475" height="121.5973701564167" fill="#0702FF" /><rect x="2327.5475" y="80.44425762215972" width="6.4475" height="119.55574237784028" fill="#0702FF" /><rect x="2333.995" y="80.51581281997349" width="6.4475" height="119.48418718002651" fill="#0702FF" /><rect x="2340.4425" y="99.72401929029951" width="6.4475" height="100.27598070970049" fill="#0702FF" /><rect x="2346.89" y="54.591410015105424" width="6.4475" height="145.40858998489458" fill="#0702FF" /><rect x="2353.3375" y="56.93061385416763" width="6.4475" height="143.06938614583237" fill="#0702FF" /><rect x="2359.785" y="47.84989500195786" width="6.4475" height="152.15010499804214" fill="#0702FF" /><rect x="2366.2325" y="90.43569001607297" width="6.4475" height="109.56430998392703" fill="#0702FF" /><rect x="2372.68" y="78.31904377837988" width="6.4475" height="121.68095622162012" fill="#0702FF" /><rect x="2379.1275" y="69.94301319321812" width="6.4475" height="130.05698680678188" fill="#0702FF" /><rect x="2385.575" y="61.358533626787505" width="6.4475" height="138.6414663732125" fill="#0702FF" /><rect x="2392.0225" y="42.557983441807096" width="6.4475" height="157.4420165581929" fill="#0702FF" /><rect x="2398.47" y="82.07800763518951" width="6.4475" height="117.92199236481049" fill="#0702FF" /><rect x="2404.9175" y="48.46691186611963" width="6.4475" height="151.53308813388037" fill="#0702FF" /><rect x="2411.365" y="46.28524647428813" width="6.4475" height="153.71475352571187" fill="#0702FF" /><rect x="2417.8125" y="87.64862710082915" width="6.4475" height="112.35137289917085" fill="#0702FF" /><rect x="2424.2599999999998" y="52.44201358307498" width="6.4475" height="147.55798641692502" fill="#0702FF" /><rect x="2430.7075" y="44.85701933635116" width="6.4475" height="155.14298066364884" fill="#0702FF" /><rect x="2437.1549999999997" y="54.873308998901734" width="6.4475" height="145.12669100109827" fill="#0702FF" /><rect x="2443.6025" y="54.73327687031633" width="6.4475" height="145.26672312968367" fill="#0702FF" /><rect x="2450.0499999999997" y="93.69267193127074" width="6.4475" height="106.30732806872926" fill="#0702FF" /><rect x="2456.4975" y="59.82402161361148" width="6.4475" height="140.17597838638852" fill="#0702FF" /><rect x="2462.9449999999997" y="87.367900388856" width="6.4475" height="112.632099611144" fill="#0702FF" /><rect x="2469.3925" y="53.74533182014733" width="6.4475" height="146.25466817985267" fill="#0702FF" /><rect x="2475.84" y="75.50525923284779" width="6.4475" height="124.49474076715221" fill="#0702FF" /><rect x="2482.2875" y="59.270089305189714" width="6.4475" height="140.7299106948103" fill="#0702FF" /><rect x="2488.735" y="67.42417013050695" width="6.4475" height="132.57582986949305" fill="#0702FF" /><rect x="2495.1825" y="57.63560932681716" width="6.4475" height="142.36439067318284" fill="#0702FF" /><rect x="2501.63" y="59.26813538003398" width="6.4475" height="140.73186461996602" fill="#0702FF" /><rect x="2508.0775" y="47.140414270813835" width="6.4475" height="152.85958572918616" fill="#0702FF" /><rect x="2514.525" y="64.46419406128385" width="6.4475" height="135.53580593871615" fill="#0702FF" /><rect x="2520.9725" y="54.068667994105994" width="6.4475" height="145.931332005894" fill="#0702FF" /><rect x="2527.42" y="63.48618376354426" width="6.4475" height="136.51381623645574" fill="#0702FF" /><rect x="2533.8675" y="69.8192899941617" width="6.4475" height="130.1807100058383" fill="#0702FF" /><rect x="2540.315" y="89.61512320979732" width="6.4475" height="110.38487679020268" fill="#0702FF" /><rect x="2546.7625" y="98.87437858942867" width="6.4475" height="101.12562141057133" fill="#0702FF" /><rect x="2553.21" y="42.97375449241915" width="6.4475" height="157.02624550758085" fill="#0702FF" /><rect x="2559.6575" y="81.84627438255293" width="6.4475" height="118.15372561744707" fill="#0702FF" /><rect x="2566.105" y="98.43369555156096" width="6.4475" height="101.56630444843904" fill="#0702FF" /><rect x="2572.5525" y="73.40353233915226" width="6.4475" height="126.59646766084774" fill="#0702FF" /></svg>