<svg width="1260" height="720" xmlns="http://www.w3.org/2000/svg"><rect x="270" y="0" width="30" height="30" fill="#0702FF37" /><rect x="540" y="0" width="30" height="30" fill="#0702FF88" /><rect x="660" y="0" width="30" height="30" fill="#0702FF6e" /><rect x="720" y="0" width="30" height="30" fill="#0702FF5e" /><rect x="900" y="0" width="30" height="30" fill="#0702FF73" /><rect x="90" y="30" width="30" height="30" fill="#0702FF64" /><rect x="390" y="30" width="30" height="30" fill="#0702FF60" /><rect x="450" y="30" width="30" height="30" fill="#0702FF8b" /><rect x="480" y="30" width="30" height="30" fill="#0702FF6c" /><rect x="540" y="30" width="30" height="30" fill="#0702FF78" /><rect x="720" y="30" width="30" height="30" fill="#0702FF60" /><rect x="750" y="30" width="30" height="30" fill="#0702FF8b" /><rect x="780" y="30" width="30" height="30" fill="#0702FF72" /><rect x="810" y="30" width="30" height="30" fill="#0702FF60" /><rect x="180" y="60" width="30" height="30" fill="#0702FF46" /><rect x="330" y="60" width="30" height="30" fill="#0702FF7f" /><rect x="570" y="60" width="30" height="30" fill="#0702FF8c" /><rect x="600" y="60" width="30" height="30" fill="#0702FF80" /><rect x="630" y="60" width="30" height="30" fill="#0702FF8c" /><rect x="660" y="60" width="30" height="30" fill="#0702FF85" /><rect x="780" y="60" width="30" height="30" fill="#0702FF78" /><rect x="870" y="60" width="30" height="30" fill="#0702FF70" /><rect x="960" y="60" width="30" height="30" fill="#0702FF5a" /><rect x="990" y="60" width="30" height="30" fill="#0702FF77" /><rect x="150" y="90" width="30" height="30" fill="#0702FF53" /><rect x="300" y="90" width="30" height="30" fill="#0702FF58" /><rect x="510" y="90" width="30" height="30" fill="#0702FF6b" /><rect x="600" y="90" width="30" height="30" fill="#0702FF8c" /><rect x="690" y="90" width="30" height="30" fill="#0702FF8c" /><rect x="780" y="90" width="30" height="30" fill="#0702FF66" /><rect x="840" y="90" width="30" height="30" fill="#0702FF74" /><rect x="900" y="90" width="30" height="30" fill="#0702FF66" /><rect x="240" y="120" width="30" height="30" fill="#0702FF60" /><rect x="270" y="120" width="30" height="30" fill="#0702FF6c" /><rect x="300" y="120" width="30" height="30" fill="#0702FF73" /><rect x="330" y="120" width="30" height="30" fill="#0702FF73" /><rect x="450" y="120" width="30" height="30" fill="#0702FF8c" /><rect x="510" y="120" width="30" height="30" fill="#0702FF8c" /><rect x="690" y="120" width="30" height="30" fill="#0702FF83" /><rect x="750" y="120" width="30" height="30" fill="#0702FF66" /><rect x="780" y="120" width="30" height="30" fill="#0702FF8c" /><rect x="840" y="120" width="30" height="30" fill="#0702FF63" /><rect x="420" y="150" width="30" height="30" fill="#0702FF8c" /><rect x="540" y="150" width="30" height="30" fill="#0702FF8c" /><rect x="600" y="150" width="30" height="30" fill="#0702FF83" /><rect x="690" y="150" width="30" height="30" fill="#0702FF8c" /><rect x="720" y="150" width="30" height="30" fill="#0702FF8c" /><rect x="810" y="150" width="30" height="30" fill="#0702FF85" /><rect x="930" y="150" width="30" height="30" fill="#0702FF8c" /><rect x="120" y="180" width="30" height="30" fill="#0702FF47" /><rect x="270" y="180" width="30" height="30" fill="#0702FF67" /><rect x="300" y="180" width="30" height="30" fill="#0702FF69" /><rect x="480" y="180" width="30" height="30" fill="#0702FF86" /><rect x="510" y="180" width="30" height="30" fill="#0702FF8c" /><rect x="600" y="180" width="30" height="30" fill="#0702FF89" /><rect x="630" y="180" width="30" height="30" fill="#0702FF8c" /><rect x="660" y="180" width="30" height="30" fill="#0702FF8c" /><rect x="720" y="180" width="30" height="30" fill="#0702FF8c" /><rect x="750" y="180" width="30" height="30" fill="#0702FF8c" /><rect x="780" y="180" width="30" height="30" fill="#0702FF8c" /><rect x="840" y="180" width="30" height="30" fill="#0702FF8c" /><rect x="900" y="180" width="30" height="30" fill="#0702FF69" /><rect x="960" y="180" width="30" height="30" fill="#0702FF51" /><rect x="1020" y="180" width="30" height="30" fill="#0702FF4d" /><rect x="180" y="210" width="30" height="30" fill="#0702FF3f" /><rect x="360" y="210" width="30" height="30" fill="#0702FF82" /><rect x="420" y="210" width="30" height="30" fill="#0702FF78" /><rect x="450" y="210" width="30" height="30" fill="#0702FF79" /><rect x="540" y="210" width="30" height="30" fill="#0702FF8c" /><rect x="570" y="210" width="30" height="30" fill="#0702FF69" /><rect x="600" y="210" width="30" height="30" fill="#0702FF72" /><rect x="630" y="210" width="30" height="30" fill="#0702FF8c" /><rect x="660" y="210" width="30" height="30" fill="#0702FF8c" /><rect x="690" y="210" width="30" height="30" fill="#0702FF8c" /><rect x="720" y="210" width="30" height="30" fill="#0702FF86" /><rect x="780" y="210" width="30" height="30" fill="#0702FF8c" /><rect x="330" y="240" width="30" height="30" fill="#0702FF64" /><rect x="360" y="240" width="30" height="30" fill="#0702FF8c" /><rect x="420" y="240" width="30" height="30" fill="#0702FF66" /><rect x="480" y="240" width="30" height="30" fill="#0702FF8c" /><rect x="570" y="240" width="30" height="30" fill="#0702FF8c" /><rect x="660" y="240" width="30" height="30" fill="#0702FF8c" /><rect x="690" y="240" width="30" height="30" fill="#0702FF7f" /><rect x="720" y="240" width="30" height="30" fill="#0702FF7a" /><rect x="750" y="240" width="30" height="30" fill="#0702FF8c" /><rect x="840" y="240" width="30" height="30" fill="#0702FF6d" /><rect x="900" y="240" width="30" height="30" fill="#0702FF5a" /><rect x="1020" y="240" width="30" height="30" fill="#0702FF45" /><rect x="300" y="270" width="30" height="30" fill="#0702FF80" /><rect x="330" y="270" width="30" height="30" fill="#0702FF82" /><rect x="360" y="270" width="30" height="30" fill="#0702FF8c" /><rect x="480" y="270" width="30" height="30" fill="#0702FF84" /><rect x="540" y="270" width="30" height="30" fill="#0702FF8c" /><rect x="570" y="270" width="30" height="30" fill="#0702FF8c" /><rect x="630" y="270" width="30" height="30" fill="#0702FF8c" /><rect x="690" y="270" width="30" height="30" fill="#0702FF8c" /><rect x="720" y="270" width="30" height="30" fill="#0702FF8c" /><rect x="750" y="270" width="30" height="30" fill="#0702FF8c" /><rect x="990" y="270" width="30" height="30" fill="#0702FF55" /><rect x="1050" y="270" width="30" height="30" fill="#0702FF65" /><rect x="1110" y="270" width="30" height="30" fill="#0702FF4c" /><rect x="420" y="300" width="30" height="30" fill="#0702FF8c" /><rect x="480" y="300" width="30" height="30" fill="#0702FF82" /><rect x="510" y="300" width="30" height="30" fill="#0702FF8c" /><rect x="570" y="300" width="30" height="30" fill="#0702FF84" /><rect x="600" y="300" width="30" height="30" fill="#0702FF8c" /><rect x="630" y="300" width="30" height="30" fill="#0702FF8c" /><rect x="660" y="300" width="30" height="30" fill="#0702FF8c" /><rect x="720" y="300" width="30" height="30" fill="#0702FF8c" /><rect x="810" y="300" width="30" height="30" fill="#0702FF8a" /><rect x="960" y="300" width="30" height="30" fill="#0702FF6f" /><rect x="330" y="330" width="30" height="30" fill="#0702FF71" /><rect x="360" y="330" width="30" height="30" fill="#0702FF86" /><rect x="420" y="330" width="30" height="30" fill="#0702FF8c" /><rect x="450" y="330" width="30" height="30" fill="#0702FF8c" /><rect x="480" y="330" width="30" height="30" fill="#0702FF8c" /><rect x="540" y="330" width="30" height="30" fill="#0702FF8c" /><rect x="600" y="330" width="30" height="30" fill="#0702FF8c" /><rect x="630" y="330" width="30" height="30" fill="#0702FF8c" /><rect x="660" y="330" width="30" height="30" fill="#0702FF8c" /><rect x="720" y="330" width="30" height="30" fill="#0702FF8c" /><rect x="750" y="330" width="30" height="30" fill="#0702FF8c" /><rect x="780" y="330" width="30" height="30" fill="#0702FF8c" /><rect x="810" y="330" width="30" height="30" fill="#0702FF8c" /><rect x="870" y="330" width="30" height="30" fill="#0702FF6d" /><rect x="900" y="330" width="30" height="30" fill="#0702FF62" /><rect x="930" y="330" width="30" height="30" fill="#0702FF8c" /><rect x="1020" y="330" width="30" height="30" fill="#0702FF6c" /><rect x="240" y="360" width="30" height="30" fill="#0702FF43" /><rect x="330" y="360" width="30" height="30" fill="#0702FF8c" /><rect x="540" y="360" width="30" height="30" fill="#0702FF8c" /><rect x="570" y="360" width="30" height="30" fill="#0702FF8c" /><rect x="600" y="360" width="30" height="30" fill="#0702FF8c" /><rect x="630" y="360" width="30" height="30" fill="#0702FF8c" /><rect x="660" y="360" width="30" height="30" fill="#0702FF8c" /><rect x="720" y="360" width="30" height="30" fill="#0702FF8c" /><rect x="810" y="360" width="30" height="30" fill="#0702FF7c" /><rect x="1110" y="360" width="30" height="30" fill="#0702FF80" /><rect x="240" y="390" width="30" height="30" fill="#0702FF8c" /><rect x="330" y="390" width="30" height="30" fill="#0702FF8c" /><rect x="360" y="390" width="30" height="30" fill="#0702FF87" /><rect x="420" y="390" width="30" height="30" fill="#0702FF81" /><rect x="510" y="390" width="30" height="30" fill="#0702FF8c" /><rect x="540" y="390" width="30" height="30" fill="#0702FF8c" /><rect x="570" y="390" width="30" height="30" fill="#0702FF8c" /><rect x="630" y="390" width="30" height="30" fill="#0702FF8c" /><rect x="660" y="390" width="30" height="30" fill="#0702FF8c" /><rect x="690" y="390" width="30" height="30" fill="#0702FF8c" /><rect x="720" y="390" width="30" height="30" fill="#0702FF83" /><rect x="750" y="390" width="30" height="30" fill="#0702FF8c" /><rect x="810" y="390" width="30" height="30" fill="#0702FF68" /><rect x="960" y="390" width="30" height="30" fill="#0702FF74" /><rect x="1170" y="390" width="30" height="30" fill="#0702FF53" /><rect x="1200" y="390" width="30" height="30" fill="#0702FF5c" /><rect x="210" y="420" width="30" height="30" fill="#0702FF42" /><rect x="270" y="420" width="30" height="30" fill="#0702FF84" /><rect x="360" y="420" width="30" height="30" fill="#0702FF8c" /><rect x="390" y="420" width="30" height="30" fill="#0702FF68" /><rect x="450" y="420" width="30" height="30" fill="#0702FF8c" /><rect x="510" y="420" width="30" height="30" fill="#0702FF8c" /><rect x="540" y="420" width="30" height="30" fill="#0702FF8c" /><rect x="570" y="420" width="30" height="30" fill="#0702FF8c" /><rect x="600" y="420" width="30" height="30" fill="#0702FF8c" /><rect x="630" y="420" width="30" height="30" fill="#0702FF8c" /><rect x="660" y="420" width="30" height="30" fill="#0702FF8c" /><rect x="720" y="420" width="30" height="30" fill="#0702FF78" /><rect x="780" y="420" width="30" height="30" fill="#0702FF8c" /><rect x="810" y="420" width="30" height="30" fill="#0702FF8c" /><rect x="840" y="420" width="30" height="30" fill="#0702FF8a" /><rect x="870" y="420" width="30" height="30" fill="#0702FF76" /><rect x="960" y="420" width="30" height="30" fill="#0702FF65" /><rect x="990" y="420" width="30" height="30" fill="#0702FF6d" /><rect x="210" y="450" width="30" height="30" fill="#0702FF61" /><rect x="390" y="450" width="30" height="30" fill="#0702FF6e" /><rect x="420" y="450" width="30" height="30" fill="#0702FF84" /><rect x="450" y="450" width="30" height="30" fill="#0702FF7e" /><rect x="480" y="450" width="30" height="30" fill="#0702FF6a" /><rect x="540" y="450" width="30" height="30" fill="#0702FF8c" /><rect x="570" y="450" width="30" height="30" fill="#0702FF84" /><rect x="630" y="450" width="30" height="30" fill="#0702FF8a" /><rect x="660" y="450" width="30" height="30" fill="#0702FF8c" /><rect x="720" y="450" width="30" height="30" fill="#0702FF8c" /><rect x="840" y="450" width="30" height="30" fill="#0702FF7e" /><rect x="900" y="450" width="30" height="30" fill="#0702FF60" /><rect x="1110" y="450" width="30" height="30" fill="#0702FF56" /><rect x="30" y="480" width="30" height="30" fill="#0702FF62" /><rect x="300" y="480" width="30" height="30" fill="#0702FF81" /><rect x="360" y="480" width="30" height="30" fill="#0702FF7c" /><rect x="420" y="480" width="30" height="30" fill="#0702FF8a" /><rect x="450" y="480" width="30" height="30" fill="#0702FF8c" /><rect x="540" y="480" width="30" height="30" fill="#0702FF77" /><rect x="570" y="480" width="30" height="30" fill="#0702FF8c" /><rect x="600" y="480" width="30" height="30" fill="#0702FF8c" /><rect x="630" y="480" width="30" height="30" fill="#0702FF8c" /><rect x="660" y="480" width="30" height="30" fill="#0702FF85" /><rect x="690" y="480" width="30" height="30" fill="#0702FF8c" /><rect x="720" y="480" width="30" height="30" fill="#0702FF7f" /><rect x="780" y="480" width="30" height="30" fill="#0702FF8c" /><rect x="900" y="480" width="30" height="30" fill="#0702FF8c" /><rect x="930" y="480" width="30" height="30" fill="#0702FF61" /><rect x="1080" y="480" width="30" height="30" fill="#0702FF55" /><rect x="210" y="510" width="30" height="30" fill="#0702FF6c" /><rect x="300" y="510" width="30" height="30" fill="#0702FF63" /><rect x="420" y="510" width="30" height="30" fill="#0702FF8c" /><rect x="510" y="510" width="30" height="30" fill="#0702FF8c" /><rect x="540" y="510" width="30" height="30" fill="#0702FF8c" /><rect x="570" y="510" width="30" height="30" fill="#0702FF8c" /><rect x="600" y="510" width="30" height="30" fill="#0702FF8c" /><rect x="630" y="510" width="30" height="30" fill="#0702FF8c" /><rect x="660" y="510" width="30" height="30" fill="#0702FF71" /><rect x="690" y="510" width="30" height="30" fill="#0702FF7c" /><rect x="720" y="510" width="30" height="30" fill="#0702FF7f" /><rect x="780" y="510" width="30" height="30" fill="#0702FF8c" /><rect x="810" y="510" width="30" height="30" fill="#0702FF8a" /><rect x="870" y="510" width="30" height="30" fill="#0702FF6d" /><rect x="360" y="540" width="30" height="30" fill="#0702FF5b" /><rect x="450" y="540" width="30" height="30" fill="#0702FF8c" /><rect x="510" y="540" width="30" height="30" fill="#0702FF87" /><rect x="540" y="540" width="30" height="30" fill="#0702FF7a" /><rect x="570" y="540" width="30" height="30" fill="#0702FF87" /><rect x="600" y="540" width="30" height="30" fill="#0702FF8c" /><rect x="630" y="540" width="30" height="30" fill="#0702FF89" /><rect x="660" y="540" width="30" height="30" fill="#0702FF61" /><rect x="990" y="540" width="30" height="30" fill="#0702FF5d" /><rect x="30" y="570" width="30" height="30" fill="#0702FF3c" /><rect x="330" y="570" width="30" height="30" fill="#0702FF72" /><rect x="390" y="570" width="30" height="30" fill="#0702FF6a" /><rect x="420" y="570" width="30" height="30" fill="#0702FF60" /><rect x="480" y="570" width="30" height="30" fill="#0702FF79" /><rect x="510" y="570" width="30" height="30" fill="#0702FF6d" /><rect x="570" y="570" width="30" height="30" fill="#0702FF8b" /><rect x="720" y="570" width="30" height="30" fill="#0702FF8c" /><rect x="750" y="570" width="30" height="30" fill="#0702FF78" /><rect x="780" y="570" width="30" height="30" fill="#0702FF8c" /><rect x="810" y="570" width="30" height="30" fill="#0702FF71" /><rect x="1050" y="570" width="30" height="30" fill="#0702FF43" /><rect x="1080" y="570" width="30" height="30" fill="#0702FF73" /><rect x="180" y="600" width="30" height="30" fill="#0702FF71" /><rect x="240" y="600" width="30" height="30" fill="#0702FF77" /><rect x="390" y="600" width="30" height="30" fill="#0702FF51" /><rect x="420" y="600" width="30" height="30" fill="#0702FF61" /><rect x="450" y="600" width="30" height="30" fill="#0702FF6f" /><rect x="480" y="600" width="30" height="30" fill="#0702FF87" /><rect x="510" y="600" width="30" height="30" fill="#0702FF8c" /><rect x="570" y="600" width="30" height="30" fill="#0702FF8c" /><rect x="600" y="600" width="30" height="30" fill="#0702FF5e" /><rect x="630" y="600" width="30" height="30" fill="#0702FF8a" /><rect x="660" y="600" width="30" height="30" fill="#0702FF8c" /><rect x="690" y="600" width="30" height="30" fill="#0702FF8c" /><rect x="720" y="600" width="30" height="30" fill="#0702FF7a" /><rect x="810" y="600" width="30" height="30" fill="#0702FF71" /><rect x="840" y="600" width="30" height="30" fill="#0702FF81" /><rect x="900" y="600" width="30" height="30" fill="#0702FF7d" /><rect x="930" y="600" width="30" height="30" fill="#0702FF70" /><rect x="990" y="600" width="30" height="30" fill="#0702FF6b" /><rect x="1080" y="600" width="30" height="30" fill="#0702FF3e" /><rect x="180" y="630" width="30" height="30" fill="#0702FF57" /><rect x="270" y="630" width="30" height="30" fill="#0702FF7e" /><rect x="510" y="630" width="30" height="30" fill="#0702FF8c" /><rect x="540" y="630" width="30" height="30" fill="#0702FF8c" /><rect x="630" y="630" width="30" height="30" fill="#0702FF7e" /><rect x="660" y="630" width="30" height="30" fill="#0702FF74" /><rect x="720" y="630" width="30" height="30" fill="#0702FF8c" /><rect x="810" y="630" width="30" height="30" fill="#0702FF7f" /><rect x="840" y="630" width="30" height="30" fill="#0702FF4f" /><rect x="930" y="630" width="30" height="30" fill="#0702FF4f" /><rect x="960" y="630" width="30" height="30" fill="#0702FF73" /><rect x="1050" y="630" width="30" height="30" fill="#0702FF69" /><rect x="360" y="660" width="30" height="30" fill="#0702FF51" /><rect x="420" y="660" width="30" height="30" fill="#0702FF6f" /><rect x="570" y="660" width="30" height="30" fill="#0702FF87" /><rect x="600" y="660" width="30" height="30" fill="#0702FF8c" /><rect x="630" y="660" width="30" height="30" fill="#0702FF71" /><rect x="660" y="660" width="30" height="30" fill="#0702FF76" /><rect x="780" y="660" width="30" height="30" fill="#0702FF7b" /><rect x="870" y="660" width="30" height="30" fill="#0702FF8c" /><rect x="900" y="660" width="30" height="30" fill="#0702FF43" /><rect x="960" y="660" width="30" height="30" fill="#0702FF49" /><rect x="1110" y="660" width="30" height="30" fill="#0702FF4e" /><rect x="360" y="690" width="30" height="30" fill="#0702FF52" /><rect x="480" y="690" width="30" height="30" fill="#0702FF8c" /><rect x="540" y="690" width="30" height="30" fill="#0702FF4d" /><rect x="570" y="690" width="30" height="30" fill="#0702FF76" /><rect x="630" y="690" width="30" height="30" fill="#0702FF79" /><rect x="780" y="690" width="30" height="30" fill="#0702FF8c" /><rect x="870" y="690" width="30" height="30" fill="#0702FF5c" /><line x1="0" y1="0" x2="1260" y2="0" stroke="#D3D3D3" stroke-width="1" /><line x1="0" y1="30" x2="1260" y2="30" stroke="#D3D3D3" stroke-width="1" /><line x1="0" y1="60" x2="1260" y2="60" stroke="#D3D3D3" stroke-width="1" /><line x1="0" y1="90" x2="1260" y2="90" stroke="#D3D3D3" stroke-width="1" /><line x1="0" y1="120" x2="1260" y2="120" stroke="#D3D3D3" stroke-width="1" /><line x1="0" y1="150" x2="1260" y2="150" stroke="#D3D3D3" stroke-width="1" /><line x1="0" y1="180" x2="1260" y2="180" stroke="#D3D3D3" stroke-width="1" /><line x1="0" y1="210" x2="1260" y2="210" stroke="#D3D3D3" stroke-width="1" /><line x1="0" y1="240" x2="1260" y2="240" stroke="#D3D3D3" stroke-width="1" /><line x1="0" y1="270" x2="1260" y2="270" stroke="#D3D3D3" stroke-width="1" /><line x1="0" y1="300" x2="1260" y2="300" stroke="#D3D3D3" stroke-width="1" /><line x1="0" y1="330" x2="1260" y2="330" stroke="#D3D3D3" stroke-width="1" /><line x1="0" y1="360" x2="1260" y2="360" stroke="#D3D3D3" stroke-width="1" /><line x1="0" y1="390" x2="1260" y2="390" stroke="#D3D3D3" stroke-width="1" /><line x1="0" y1="420" x2="1260" y2="420" stroke="#D3D3D3" stroke-width="1" /><line x1="0" y1="450" x2="1260" y2="450" stroke="#D3D3D3" stroke-width="1" /><line x1="0" y1="480" x2="1260" y2="480" stroke="#D3D3D3" stroke-width="1" /><line x1="0" y1="510" x2="1260" y2="510" stroke="#D3D3D3" stroke-width="1" /><line x1="0" y1="540" x2="1260" y2="540" stroke="#D3D3D3" stroke-width="1" /><line x1="0" y1="570" x2="1260" y2="570" stroke="#D3D3D3" stroke-width="1" /><line x1="0" y1="600" x2="1260" y2="600" stroke="#D3D3D3" stroke-width="1" /><line x1="0" y1="630" x2="1260" y2="630" stroke="#D3D3D3" stroke-width="1" /><line x1="0" y1="660" x2="1260" y2="660" stroke="#D3D3D3" stroke-width="1" /><line x1="0" y1="690" x2="1260" y2="690" stroke="#D3D3D3" stroke-width="1" /><line x1="0" y1="720" x2="1260" y2="720" stroke="#D3D3D3" stroke-width="1" /><line x1="0" y1="0" x2="0" y2="720" stroke="#D3D3D3" stroke-width="1" /><line x1="30" y1="0" x2="30" y2="720" stroke="#D3D3D3" stroke-width="1" /><line x1="60" y1="0" x2="60" y2="720" stroke="#D3D3D3" stroke-width="1" /><line x1="90" y1="0" x2="90" y2="720" stroke="#D3D3D3" stroke-width="1" /><line x1="120" y1="0" x2="120" y2="720" stroke="#D3D3D3" stroke-width="1" /><line x1="150" y1="0" x2="150" y2="720" stroke="#D3D3D3" stroke-width="1" /><line x1="180" y1="0" x2="180" y2="720" stroke="#D3D3D3" stroke-width="1" /><line x1="210" y1="0" x2="210" y2="720" stroke="#D3D3D3" stroke-width="1" /><line x1="240" y1="0" x2="240" y2="720" stroke="#D3D3D3" stroke-width="1" /><line x1="270" y1="0" x2="270" y2="720" stroke="#D3D3D3" stroke-width="1" /><line x1="300" y1="0" x2="300" y2="720" stroke="#D3D3D3" stroke-width="1" /><line x1="330" y1="0" x2="330" y2="720" stroke="#D3D3D3" stroke-width="1" /><line x1="360" y1="0" x2="360" y2="720" stroke="#D3D3D3" stroke-width="1" /><line x1="390" y1="0" x2="390" y2="720" stroke="#D3D3D3" stroke-width="1" /><line x1="420" y1="0" x2="420" y2="720" stroke="#D3D3D3" stroke-width="1" /><line x1="450" y1="0" x2="450" y2="720" stroke="#D3D3D3" stroke-width="1" /><line x1="480" y1="0" x2="480" y2="720" stroke="#D3D3D3" stroke-width="1" /><line x1="510" y1="0" x2="510" y2="720" stroke="#D3D3D3" stroke-width="1" /><line x1="540" y1="0" x2="540" y2="720" stroke="#D3D3D3" stroke-width="1" /><line x1="570" y1="0" x2="570" y2="720" stroke="#D3D3D3" stroke-width="1" /><line x1="600" y1="0" x2="600" y2="720" stroke="#D3D3D3" stroke-width="1" /><line x1="630" y1="0" x2="630" y2="720" stroke="#D3D3D3" stroke-width="1" /><line x1="660" y1="0" x2="660" y2="720" stroke="#D3D3D3" stroke-width="1" /><line x1="690" y1="0" x2="690" y2="720" stroke="#D3D3D3" stroke-width="1" /><line x1="720" y1="0" x2="720" y2="720" stroke="#D3D3D3" stroke-width="1" /><line x1="750" y1="0" x2="750" y2="720" stroke="#D3D3D3" stroke-width="1" /><line x1="780" y1="0" x2="780" y2="720" stroke="#D3D3D3" stroke-width="1" /><line x1="810" y1="0" x2="810" y2="720" stroke="#D3D3D3" stroke-width="1" /><line x1="840" y1="0" x2="840" y2="720" stroke="#D3D3D3" stroke-width="1" /><line x1="870" y1="0" x2="870" y2="720" stroke="#D3D3D3" stroke-width="1" /><line x1="900" y1="0" x2="900" y2="720" stroke="#D3D3D3" stroke-width="1" /><line x1="930" y1="0" x2="930" y2="720" stroke="#D3D3D3" stroke-width="1" /><line x1="960" y1="0" x2="960" y2="720" stroke="#D3D3D3" stroke-width="1" /><line x1="990" y1="0" x2="990" y2="720" stroke="#D3D3D3" stroke-width="1" /><line x1="1020" y1="0" x2="1020" y2="720" stroke="#D3D3D3" stroke-width="1" /><line x1="1050" y1="0" x2="1050" y2="720" stroke="#D3D3D3" stroke-width="1" /><line x1="1080" y1="0" x2="1080" y2="720" stroke="#D3D3D3" stroke-width="1" /><line x1="1110" y1="0" x2="1110" y2="720" stroke="#D3D3D3" stroke-width="1" /><line x1="1140" y1="0" x2="1140" y2="720" stroke="#D3D3D3" stroke-width="1" /><line x1="1170" y1="0" x2="1170" y2="720" stroke="#D3D3D3" stroke-width="1" /><line x1="1200" y1="0" x2="1200" y2="720" stroke="#D3D3D3" stroke-width="1" /><line x1="1230" y1="0" x2="1230" y2="720" stroke="#D3D3D3" stroke-width="1" /><line x1="1260" y1="0" x2="1260" y2="720" stroke="#D3D3D3" stroke-width="1" /></svg>