<?xml version="1.0" encoding="UTF-8" standalone="no"?>
<!-- Created with Inkscape (http://www.inkscape.org/) -->

<svg
   version="1.1"
   id="svg1"
   width="1044.9733"
   height="453.58667"
   viewBox="0 0 1044.9733 453.58667"
   sodipodi:docname="gasd_1_stadsarchief_cmyk.eps"
   inkscape:export-filename="gasd_1_stadsarchief_cmyk.eps.svg"
   inkscape:export-xdpi="45.934189"
   inkscape:export-ydpi="45.934189"
   xmlns:inkscape="http://www.inkscape.org/namespaces/inkscape"
   xmlns:sodipodi="http://sodipodi.sourceforge.net/DTD/sodipodi-0.dtd"
   xmlns="http://www.w3.org/2000/svg"
   xmlns:svg="http://www.w3.org/2000/svg">
  <defs
     id="defs1" />
  <sodipodi:namedview
     id="namedview1"
     pagecolor="#ffffff"
     bordercolor="#000000"
     borderopacity="0.25"
     inkscape:showpageshadow="2"
     inkscape:pageopacity="0.0"
     inkscape:pagecheckerboard="0"
     inkscape:deskcolor="#d1d1d1">
    <inkscape:page
       x="0"
       y="0"
       inkscape:label="1"
       id="page1"
       width="1044.9733"
       height="453.58667"
       margin="0"
       bleed="0" />
  </sodipodi:namedview>
  <g
     id="g1"
     inkscape:groupmode="layer"
     inkscape:label="1">
    <g
       id="group-R5">
      <path
         id="path2"
         d="m 2261.71,2557.99 c -98.03,-52.44 -209.75,-79.79 -334.01,-79.79 -248.52,0 -426.36,168.71 -426.36,420.65 0,258.77 177.84,427.49 426.36,427.49 123.12,0 233.7,-26.22 318.05,-101.46 l -106.01,-107.15 c -51.3,50.15 -129.96,78.65 -210.9,78.65 -166.44,0 -277.02,-127.68 -277.02,-288.42 0,-172.14 110.58,-299.81 277.02,-299.81 72.96,0 139.08,13.68 189.24,42.18 v 190.38 h -165.3 v 129.95 h 308.93 v -412.67"
         style="fill:#ed1c24;fill-opacity:1;fill-rule:nonzero;stroke:none"
         transform="matrix(0.13333333,0,0,-0.13333333,0,453.58667)" />
      <path
         id="path3"
         d="m 2808.92,2827.03 c -1.14,79.8 -53.58,129.95 -139.08,129.95 -80.94,0 -131.1,-51.3 -141.36,-129.95 z m -280.44,-102.6 c 9.12,-80.94 70.68,-129.96 147.06,-129.96 68.4,0 112.86,31.92 147.06,74.1 l 98.03,-74.1 c -63.83,-78.66 -144.77,-109.44 -231.41,-109.44 -165.3,0 -297.54,115.14 -297.54,287.28 0,172.14 132.24,287.28 297.54,287.28 152.76,0 256.49,-107.16 256.49,-297.54 v -37.62 h -417.23"
         style="fill:#ed1c24;fill-opacity:1;fill-rule:nonzero;stroke:none"
         transform="matrix(0.13333333,0,0,-0.13333333,0,453.58667)" />
      <path
         id="path4"
         d="m 3067.7,3045.9 h 129.95 v -85.49 h 2.28 c 23.94,51.29 76.38,99.18 167.58,99.18 84.36,0 142.5,-33.07 171,-101.46 39.9,69.53 98.03,101.46 180.11,101.46 145.92,0 197.22,-103.75 197.22,-234.84 v -326.04 h -136.8 v 310.08 c 0,68.4 -20.51,127.67 -101.45,127.67 -85.5,0 -117.42,-70.67 -117.42,-141.35 v -296.4 h -136.8 v 326.04 c 0,67.26 -27.36,111.71 -93.48,111.71 -90.06,0 -125.4,-66.11 -125.4,-139.07 V 2498.71 H 3067.7 v 547.19"
         style="fill:#ed1c24;fill-opacity:1;fill-rule:nonzero;stroke:none"
         transform="matrix(0.13333333,0,0,-0.13333333,0,453.58667)" />
      <path
         id="path5"
         d="m 4455.06,2827.03 c -1.14,79.8 -53.58,129.95 -139.07,129.95 -80.95,0 -131.11,-51.3 -141.37,-129.95 z m -280.44,-102.6 c 9.12,-80.94 70.68,-129.96 147.06,-129.96 68.4,0 112.86,31.92 147.06,74.1 l 98.04,-74.1 c -63.84,-78.66 -144.78,-109.44 -231.42,-109.44 -165.29,0 -297.54,115.14 -297.54,287.28 0,172.14 132.25,287.28 297.54,287.28 152.76,0 256.5,-107.16 256.5,-297.54 v -37.62 h -417.24"
         style="fill:#ed1c24;fill-opacity:1;fill-rule:nonzero;stroke:none"
         transform="matrix(0.13333333,0,0,-0.13333333,0,453.58667)" />
      <path
         id="path6"
         d="m 5109.4,2827.03 c -1.14,79.8 -53.57,129.95 -139.08,129.95 -80.94,0 -131.09,-51.3 -141.36,-129.95 z m -280.44,-102.6 c 9.13,-80.94 70.69,-129.96 147.07,-129.96 68.39,0 112.86,31.92 147.06,74.1 l 98.03,-74.1 c -63.83,-78.66 -144.77,-109.44 -231.41,-109.44 -165.31,0 -297.54,115.14 -297.54,287.28 0,172.14 132.23,287.28 297.54,287.28 152.75,0 256.49,-107.16 256.49,-297.54 v -37.62 h -417.24"
         style="fill:#ed1c24;fill-opacity:1;fill-rule:nonzero;stroke:none"
         transform="matrix(0.13333333,0,0,-0.13333333,0,453.58667)" />
      <path
         id="path7"
         d="m 5373.89,3045.9 h 129.96 v -87.77 h 2.27 c 25.08,54.71 76.38,101.46 167.58,101.46 147.06,0 199.5,-103.75 199.5,-215.46 v -345.42 h -136.8 v 277.02 c 0,60.42 -4.55,160.73 -100.32,160.73 -90.05,0 -125.4,-66.11 -125.4,-139.07 v -298.68 h -136.79 v 547.19"
         style="fill:#ed1c24;fill-opacity:1;fill-rule:nonzero;stroke:none"
         transform="matrix(0.13333333,0,0,-0.13333333,0,453.58667)" />
      <path
         id="path8"
         d="m 5964.39,2929.63 v 116.27 h 112.87 v 158.46 h 136.79 V 3045.9 h 150.48 v -116.27 h -150.48 v -239.4 c 0,-54.72 15.96,-88.92 76.38,-88.92 23.94,0 57,4.56 74.1,17.1 v -115.14 c -28.5,-13.68 -76.39,-18.24 -108.3,-18.24 -144.77,0 -178.97,64.98 -178.97,193.8 v 250.8 h -112.87"
         style="fill:#ed1c24;fill-opacity:1;fill-rule:nonzero;stroke:none"
         transform="matrix(0.13333333,0,0,-0.13333333,0,453.58667)" />
      <path
         id="path9"
         d="m 6861.55,2827.03 c -1.14,79.8 -53.57,129.95 -139.08,129.95 -80.94,0 -131.09,-51.3 -141.36,-129.95 z m -280.44,-102.6 c 9.12,-80.94 70.69,-129.96 147.06,-129.96 68.4,0 112.87,31.92 147.06,74.1 l 98.04,-74.1 c -63.84,-78.66 -144.77,-109.44 -231.41,-109.44 -165.31,0 -297.54,115.14 -297.54,287.28 0,172.14 132.23,287.28 297.54,287.28 152.75,0 256.49,-107.16 256.49,-297.54 v -37.62 h -417.24"
         style="fill:#ed1c24;fill-opacity:1;fill-rule:nonzero;stroke:none"
         transform="matrix(0.13333333,0,0,-0.13333333,0,453.58667)" />
      <path
         id="path10"
         d="m 1988.12,1606.08 -124.26,328.33 -126.54,-328.33 z m -182.4,499.33 h 124.26 l 347.69,-807.12 h -164.15 l -75.24,184.68 H 1688.3 l -72.96,-184.68 H 1454.6 l 351.12,807.12"
         style="fill:#ed1c24;fill-opacity:1;fill-rule:nonzero;stroke:none"
         transform="matrix(0.13333333,0,0,-0.13333333,0,453.58667)" />
      <path
         id="path11"
         d="m 2349.49,1845.49 h 129.95 v -85.5 h 2.28 c 23.94,51.3 76.38,99.18 167.58,99.18 84.36,0 142.5,-33.06 171,-101.46 39.9,69.54 98.03,101.46 180.12,101.46 145.91,0 197.21,-103.75 197.21,-234.83 v -326.05 h -136.8 v 310.08 c 0,68.41 -20.51,127.68 -101.45,127.68 -85.5,0 -117.42,-70.68 -117.42,-141.35 v -296.41 h -136.8 v 326.05 c 0,67.24 -27.36,111.71 -93.48,111.71 -90.06,0 -125.4,-66.13 -125.4,-139.09 v -298.67 h -136.79 v 547.2"
         style="fill:#ed1c24;fill-opacity:1;fill-rule:nonzero;stroke:none"
         transform="matrix(0.13333333,0,0,-0.13333333,0,453.58667)" />
      <path
         id="path12"
         d="m 3638.82,1693.88 c -26.22,36.46 -60.42,55.86 -107.16,55.86 -36.48,0 -79.8,-17.11 -79.8,-58.16 0,-98.03 295.26,-18.22 295.26,-231.41 0,-129.95 -124.26,-175.55 -235.98,-175.55 -84.36,0 -157.32,21.65 -213.18,84.36 l 91.2,85.49 c 35.34,-38.76 71.82,-67.26 129.96,-67.26 39.9,0 91.2,19.38 91.2,62.7 0,112.86 -295.26,23.94 -295.26,232.55 0,121.99 109.44,176.71 220.02,176.71 72.96,0 150.48,-22.8 194.94,-83.22 l -91.2,-82.07"
         style="fill:#ed1c24;fill-opacity:1;fill-rule:nonzero;stroke:none"
         transform="matrix(0.13333333,0,0,-0.13333333,0,453.58667)" />
      <path
         id="path13"
         d="m 3789.29,1729.21 v 116.28 h 112.86 v 158.46 h 136.8 v -158.46 h 150.47 v -116.28 h -150.47 v -239.4 c 0,-54.72 15.95,-88.91 76.37,-88.91 23.94,0 57,4.56 74.1,17.1 v -115.14 c -28.5,-13.69 -76.38,-18.24 -108.3,-18.24 -144.77,0 -178.97,64.97 -178.97,193.8 v 250.79 h -112.86"
         style="fill:#ed1c24;fill-opacity:1;fill-rule:nonzero;stroke:none"
         transform="matrix(0.13333333,0,0,-0.13333333,0,453.58667)" />
      <path
         id="path14"
         d="m 4686.45,1626.62 c -1.15,79.8 -53.58,129.95 -139.08,129.95 -80.94,0 -131.1,-51.3 -141.36,-129.95 z M 4406.01,1524 c 9.12,-80.92 70.68,-129.94 147.06,-129.94 68.39,0 112.86,31.91 147.06,74.09 l 98.03,-74.09 c -63.83,-78.67 -144.77,-109.44 -231.41,-109.44 -165.29,0 -297.54,115.13 -297.54,287.28 0,172.13 132.25,287.27 297.54,287.27 152.75,0 256.49,-107.17 256.49,-297.54 V 1524 h -417.23"
         style="fill:#ed1c24;fill-opacity:1;fill-rule:nonzero;stroke:none"
         transform="matrix(0.13333333,0,0,-0.13333333,0,453.58667)" />
      <path
         id="path15"
         d="m 4950.93,1845.49 h 136.79 v -86.64 h 2.29 c 29.64,62.7 90.06,100.32 161.87,100.32 17.1,0 33.06,-3.42 49.02,-7.98 v -132.23 c -22.79,5.7 -44.45,10.25 -66.11,10.25 -128.82,0 -147.07,-108.29 -147.07,-137.94 v -292.98 h -136.79 v 547.2"
         style="fill:#ed1c24;fill-opacity:1;fill-rule:nonzero;stroke:none"
         transform="matrix(0.13333333,0,0,-0.13333333,0,453.58667)" />
      <path
         id="path16"
         d="m 5645.17,1407.73 c 100.32,0 160.74,78.66 160.74,164.17 0,85.48 -60.42,164.15 -160.74,164.15 -100.33,0 -160.75,-78.67 -160.75,-164.15 0,-85.51 60.42,-164.17 160.75,-164.17 z m 163.01,-27.36 h -2.27 c -39.9,-66.12 -111.72,-95.75 -188.11,-95.75 -168.71,0 -270.17,125.39 -270.17,287.28 0,161.87 108.3,287.27 264.48,287.27 102.6,0 157.31,-47.88 185.81,-83.22 h 3.43 v 384.17 h 136.79 v -861.83 h -129.96 v 82.08"
         style="fill:#ed1c24;fill-opacity:1;fill-rule:nonzero;stroke:none"
         transform="matrix(0.13333333,0,0,-0.13333333,0,453.58667)" />
      <path
         id="path17"
         d="m 6427.2,1543.4 h -28.5 c -75.24,0 -205.19,-5.7 -205.19,-84.36 0,-50.16 51.29,-71.83 95.75,-71.83 93.47,0 137.94,49.03 137.94,125.41 z m 7.98,-169.86 h -3.42 c -38.76,-61.57 -102.6,-88.92 -175.56,-88.92 -101.45,0 -199.5,55.85 -199.5,164.15 0,177.85 207.48,190.39 344.28,190.39 h 34.2 v 14.81 c 0,67.26 -52.45,102.6 -125.4,102.6 -57,0 -109.44,-22.8 -145.92,-57 l -71.82,71.82 c 60.42,61.56 145.92,87.78 232.56,87.78 233.7,0 233.7,-168.71 233.7,-246.24 v -314.64 h -123.12 v 75.25"
         style="fill:#ed1c24;fill-opacity:1;fill-rule:nonzero;stroke:none"
         transform="matrix(0.13333333,0,0,-0.13333333,0,453.58667)" />
      <path
         id="path18"
         d="m 6699.65,1845.49 h 129.96 v -85.5 h 2.27 c 23.95,51.3 76.39,99.18 167.58,99.18 84.37,0 142.5,-33.06 171.01,-101.46 39.89,69.54 98.04,101.46 180.12,101.46 145.91,0 197.21,-103.75 197.21,-234.83 v -326.05 h -136.79 v 310.08 c 0,68.41 -20.53,127.68 -101.47,127.68 -85.5,0 -117.41,-70.68 -117.41,-141.35 v -296.41 h -136.81 v 326.05 c 0,67.24 -27.35,111.71 -93.47,111.71 -90.06,0 -125.4,-66.13 -125.4,-139.09 v -298.67 h -136.8 v 547.2"
         style="fill:#ed1c24;fill-opacity:1;fill-rule:nonzero;stroke:none"
         transform="matrix(0.13333333,0,0,-0.13333333,0,453.58667)" />
      <path
         id="path19"
         d="M 0,200 299.973,499.98 0,799.988 l 200,200 300,-300 300,300 200,-200 L 700,499.98 1000,200 800,0 500,299.98 200,0 0,200"
         style="fill:#ed1c24;fill-opacity:1;fill-rule:nonzero;stroke:none"
         transform="matrix(0.13333333,0,0,-0.13333333,0,453.58667)" />
      <path
         id="path20"
         d="M 0.03125,2601.89 300.027,2901.9 0.03125,3201.92 200,3401.9 l 300.027,-300 300,300 L 1000.03,3201.92 700,2901.9 1000.03,2601.89 800.027,2401.9 500.027,2701.91 200.059,2401.9 0.03125,2601.89"
         style="fill:#ed1c24;fill-opacity:1;fill-rule:nonzero;stroke:none"
         transform="matrix(0.13333333,0,0,-0.13333333,0,453.58667)" />
      <path
         id="path21"
         d="M 0.03125,1399.91 300.027,1699.9 0.03125,1999.91 200.039,2199.92 l 299.988,-300.01 300,300.01 200.003,-200.01 -299.991,-300.01 299.991,-299.99 -200.003,-200 -300,299.99 -299.988,-299.99 -200.00775,200"
         style="fill:#ed1c24;fill-opacity:1;fill-rule:nonzero;stroke:none"
         transform="matrix(0.13333333,0,0,-0.13333333,0,453.58667)" />
      <path
         id="path22"
         d="m 1940.24,736.559 c -30.78,43.32 -85.5,63.832 -141.36,63.832 -66.12,0 -132.24,-29.629 -132.24,-103.731 0,-161.871 383.04,-69.531 383.04,-356.82 0,-173.281 -136.8,-257.6291 -295.26,-257.6291 -100.32,0 -198.36,30.7771 -264.47,109.4301 l 108.29,104.879 c 35.34,-53.571 95.76,-84.348 159.6,-84.348 66.12,0 141.36,36.476 141.36,110.578 0,176.699 -383.04,75.238 -383.04,363.66 0,166.418 148.2,243.942 297.54,243.942 84.36,0 168.72,-23.922 231.42,-83.204 L 1940.24,736.559"
         style="fill:#231f20;fill-opacity:1;fill-rule:nonzero;stroke:none"
         transform="matrix(0.13333333,0,0,-0.13333333,0,453.58667)" />
      <path
         id="path23"
         d="m 2086.15,533.648 v 116.274 h 112.86 v 158.457 h 136.8 V 649.922 h 150.47 V 533.648 h -150.47 v -239.41 c 0,-54.707 15.96,-88.91 76.38,-88.91 23.94,0 56.99,4.551 74.09,17.094 V 107.289 c -28.5,-13.6796 -76.37,-18.2499 -108.29,-18.2499 -144.78,0 -178.98,64.9809 -178.98,193.8129 v 250.796 h -112.86"
         style="fill:#231f20;fill-opacity:1;fill-rule:nonzero;stroke:none"
         transform="matrix(0.13333333,0,0,-0.13333333,0,453.58667)" />
      <path
         id="path24"
         d="m 2919.48,347.828 h -28.5 c -75.24,0 -205.2,-5.699 -205.2,-84.348 0,-50.179 51.3,-71.839 95.76,-71.839 93.48,0 137.94,49.019 137.94,125.41 z m 7.98,-169.859 h -3.42 c -38.76,-61.559 -102.6,-88.9299 -175.56,-88.9299 -101.46,0 -199.5,55.8589 -199.5,164.1599 0,177.84 207.48,190.391 344.28,190.391 h 34.2 v 14.808 c 0,67.262 -52.44,102.602 -125.4,102.602 -57,0 -109.44,-22.801 -145.92,-57 l -71.82,71.82 c 60.42,61.559 145.92,87.77 232.56,87.77 233.7,0 233.7,-168.711 233.7,-246.231 V 102.73 h -123.12 v 75.239"
         style="fill:#231f20;fill-opacity:1;fill-rule:nonzero;stroke:none"
         transform="matrix(0.13333333,0,0,-0.13333333,0,453.58667)" />
      <path
         id="path25"
         d="m 3448.42,212.172 c 100.32,0 160.74,78.648 160.74,164.156 0,85.492 -60.42,164.16 -160.74,164.16 -100.31,0 -160.73,-78.668 -160.73,-164.16 0,-85.508 60.42,-164.156 160.73,-164.156 z m 163.02,-27.363 h -2.28 c -39.89,-66.118 -111.72,-95.7699 -188.1,-95.7699 -168.72,0 -270.17,125.4099 -270.17,287.2889 0,161.871 108.29,287.262 264.47,287.262 102.6,0 157.33,-47.871 185.82,-83.199 h 3.42 v 384.16 h 136.8 V 102.73 h -129.96 v 82.079"
         style="fill:#231f20;fill-opacity:1;fill-rule:nonzero;stroke:none"
         transform="matrix(0.13333333,0,0,-0.13333333,0,453.58667)" />
      <path
         id="path26"
         d="m 4168.9,498.301 c -26.23,36.488 -60.43,55.859 -107.17,55.859 -36.48,0 -79.8,-17.09 -79.8,-58.14 0,-98.032 295.26,-18.231 295.26,-231.411 0,-129.961 -124.26,-175.5699 -235.98,-175.5699 -84.35,0 -157.31,21.6599 -213.17,84.3829 l 91.19,85.488 c 35.35,-38.75 71.82,-67.269 129.96,-67.269 39.9,0 91.2,19.398 91.2,62.718 0,112.852 -295.25,23.922 -295.25,232.539 0,121.993 109.44,176.692 220.01,176.692 72.97,0 150.48,-22.789 194.94,-83.199 l -91.19,-82.09"
         style="fill:#231f20;fill-opacity:1;fill-rule:nonzero;stroke:none"
         transform="matrix(0.13333333,0,0,-0.13333333,0,453.58667)" />
      <path
         id="path27"
         d="m 4714.93,347.828 h -28.49 c -75.24,0 -205.2,-5.699 -205.2,-84.348 0,-50.179 51.31,-71.839 95.76,-71.839 93.48,0 137.93,49.019 137.93,125.41 z m 7.99,-169.859 h -3.42 c -38.77,-61.559 -102.6,-88.9299 -175.56,-88.9299 -101.46,0 -199.5,55.8589 -199.5,164.1599 0,177.84 207.48,190.391 344.28,190.391 h 34.2 v 14.808 c 0,67.262 -52.44,102.602 -125.41,102.602 -56.99,0 -109.43,-22.801 -145.91,-57 l -71.82,71.82 c 60.43,61.559 145.91,87.77 232.55,87.77 233.71,0 233.71,-168.711 233.71,-246.231 V 102.73 h -123.12 v 75.239"
         style="fill:#231f20;fill-opacity:1;fill-rule:nonzero;stroke:none"
         transform="matrix(0.13333333,0,0,-0.13333333,0,453.58667)" />
      <path
         id="path28"
         d="m 4979.4,649.922 h 136.8 v -86.641 h 2.29 c 29.64,62.699 90.05,100.309 161.87,100.309 17.11,0 33.07,-3.41 49.02,-7.961 v -132.25 c -22.79,5.699 -44.45,10.269 -66.11,10.269 -128.83,0 -147.07,-108.296 -147.07,-137.949 V 102.73 h -136.8 v 547.192"
         style="fill:#231f20;fill-opacity:1;fill-rule:nonzero;stroke:none"
         transform="matrix(0.13333333,0,0,-0.13333333,0,453.58667)" />
      <path
         id="path29"
         d="m 5771.69,485.762 c -31.91,33.066 -67.27,54.726 -103.73,54.726 -100.33,0 -160.74,-78.668 -160.74,-164.16 0,-85.508 60.41,-164.156 160.74,-164.156 42.17,0 80.94,18.238 106.01,51.308 l 91.2,-98.05 c -55.86,-55.86 -149.34,-76.3909 -197.21,-76.3909 -165.31,0 -297.54,115.1409 -297.54,287.2889 0,172.133 132.23,287.262 297.54,287.262 69.53,0 145.92,-25.07 198.36,-83.199 l -94.63,-94.629"
         style="fill:#231f20;fill-opacity:1;fill-rule:nonzero;stroke:none"
         transform="matrix(0.13333333,0,0,-0.13333333,0,453.58667)" />
      <path
         id="path30"
         d="m 6081.77,573.539 h 2.28 c 21.66,45.602 76.39,90.051 160.74,90.051 147.06,0 199.5,-103.731 199.5,-215.442 V 102.73 h -136.8 v 277.02 c 0,60.41 -4.55,160.738 -100.31,160.738 -90.06,0 -125.41,-66.129 -125.41,-139.078 V 102.73 h -136.8 v 861.821 h 136.8 V 573.539"
         style="fill:#231f20;fill-opacity:1;fill-rule:nonzero;stroke:none"
         transform="matrix(0.13333333,0,0,-0.13333333,0,453.58667)" />
      <path
         id="path31"
         d="m 6582.22,649.922 h 136.79 V 102.73 h -136.79 z m 67.26,267.887 c 50.16,0 88.91,-35.329 88.91,-82.071 0,-46.738 -38.75,-82.09 -88.91,-82.09 -50.17,0 -86.64,38.774 -86.64,82.09 0,43.321 36.47,82.071 86.64,82.071"
         style="fill:#231f20;fill-opacity:1;fill-rule:nonzero;stroke:none"
         transform="matrix(0.13333333,0,0,-0.13333333,0,453.58667)" />
      <path
         id="path32"
         d="M 7252.53,431.039 C 7251.38,510.84 7198.96,561 7113.45,561 c -80.94,0 -131.1,-51.289 -141.37,-129.961 z M 6972.08,328.441 C 6981.2,247.5 7042.76,198.5 7119.15,198.5 c 68.4,0 112.85,31.91 147.05,74.078 L 7364.25,198.5 C 7300.4,119.82 7219.46,89.0391 7132.82,89.0391 c -165.29,0 -297.54,115.1409 -297.54,287.2889 0,172.133 132.25,287.262 297.54,287.262 152.76,0 256.51,-107.141 256.51,-297.52 v -37.629 h -417.25"
         style="fill:#231f20;fill-opacity:1;fill-rule:nonzero;stroke:none"
         transform="matrix(0.13333333,0,0,-0.13333333,0,453.58667)" />
      <path
         id="path33"
         d="m 7546.65,533.648 h -112.87 v 116.274 h 112.87 v 77.519 c 0,151.618 34.2,250.797 204.04,250.797 29.65,0 58.15,-2.277 86.64,-7.988 l -9.12,-116.27 c -19.37,4.559 -37.61,7.969 -56.99,7.969 -76.39,0 -87.77,-52.437 -87.77,-112.847 v -99.18 h 126.52 V 533.648 H 7683.45 V 102.73 h -136.8 v 430.918"
         style="fill:#231f20;fill-opacity:1;fill-rule:nonzero;stroke:none"
         transform="matrix(0.13333333,0,0,-0.13333333,0,453.58667)" />
    </g>
  </g>
</svg>
